{"glyphs":{"0":{"ha":919,"x_min":72,"x_max":849,"o":"m 460 -8 q 260 51 347 -8 q 122 220 172 110 q 72 486 72 331 q 122 752 72 642 q 260 922 172 863 q 460 981 347 981 q 660 922 572 981 q 798 752 747 863 q 849 486 849 642 q 798 220 849 331 q 660 51 747 110 q 460 -8 572 -8 m 460 83 q 610 130 546 83 q 710 266 674 176 q 746 486 746 356 q 710 706 746 617 q 610 842 674 796 q 460 889 546 889 q 311 842 376 889 q 210 706 246 796 q 174 486 174 617 q 210 266 174 356 q 311 130 246 176 q 460 83 376 83 z "},"1":{"ha":501,"x_min":13,"x_max":342,"o":"m 242 0 l 242 931 l 286 883 l 13 883 l 13 972 l 342 972 l 342 0 l 242 0 z "},"2":{"ha":789,"x_min":25,"x_max":736,"o":"m 54 0 l 54 71 l 458 467 q 542 562 514 521 q 579 639 569 603 q 589 707 589 675 q 531 840 589 792 q 361 889 474 889 q 209 863 275 889 q 96 781 143 836 l 25 842 q 171 944 82 908 q 369 981 260 981 q 540 949 468 981 q 652 858 613 918 q 692 718 692 799 q 678 625 692 671 q 631 528 665 579 q 532 414 597 478 l 161 50 l 133 89 l 736 89 l 736 0 l 54 0 z "},"3":{"ha":783,"x_min":13,"x_max":715,"o":"m 363 -8 q 163 26 257 -8 q 13 117 69 60 l 61 196 q 188 115 108 147 q 363 83 268 83 q 548 136 483 83 q 613 278 613 189 q 549 419 613 367 q 350 472 486 472 l 281 472 l 281 546 l 581 922 l 594 883 l 53 883 l 53 972 l 678 972 l 678 901 l 378 525 l 329 557 l 367 557 q 628 479 542 557 q 715 279 715 401 q 676 132 715 197 q 559 29 638 67 q 363 -8 481 -8 z "},"4":{"ha":918,"x_min":56,"x_max":899,"o":"m 56 256 l 56 328 l 571 972 l 682 972 l 171 328 l 117 344 l 899 344 l 899 256 l 56 256 m 604 0 l 604 256 l 607 344 l 607 569 l 704 569 l 704 0 l 604 0 z "},"5":{"ha":786,"x_min":31,"x_max":732,"o":"m 379 -8 q 181 26 275 -8 q 31 117 86 60 l 79 196 q 205 115 125 147 q 378 83 285 83 q 566 138 501 83 q 631 282 631 193 q 601 390 631 344 q 500 460 571 435 q 306 485 429 485 l 99 485 l 149 972 l 681 972 l 681 883 l 189 883 l 240 932 l 197 524 l 146 574 l 328 574 q 564 538 475 574 q 692 437 653 501 q 732 286 732 372 q 693 137 732 204 q 576 31 654 69 q 379 -8 499 -8 z "},"6":{"ha":846,"x_min":72,"x_max":803,"o":"m 471 -8 q 253 49 342 -8 q 118 216 164 107 q 72 478 72 325 q 128 755 72 643 q 285 924 185 867 q 517 981 385 981 q 642 968 582 981 q 747 928 701 956 l 707 847 q 621 883 669 872 q 518 893 572 893 q 267 793 361 893 q 174 494 174 693 q 177 419 174 464 q 193 329 181 374 l 158 356 q 218 478 174 428 q 329 556 263 529 q 475 582 396 582 q 646 546 572 582 q 761 444 719 510 q 803 290 803 379 q 760 133 803 200 q 641 28 717 65 q 471 -8 565 -8 m 467 76 q 590 102 536 76 q 674 176 643 128 q 704 288 704 224 q 638 440 704 383 q 460 497 572 497 q 329 469 385 497 q 242 394 274 442 q 210 285 210 346 q 239 184 210 232 q 326 106 268 136 q 467 76 383 76 z "},"7":{"ha":818,"x_min":44,"x_max":758,"o":"m 243 0 l 663 928 l 693 883 l 92 883 l 143 932 l 143 701 l 44 701 l 44 972 l 758 972 l 758 901 l 351 0 l 243 0 z "},"8":{"ha":886,"x_min":67,"x_max":819,"o":"m 442 -8 q 241 25 325 -8 q 112 122 157 58 q 67 271 67 185 q 110 413 67 354 q 238 504 154 472 q 442 536 322 536 q 644 504 560 536 q 774 413 729 472 q 819 271 819 354 q 774 122 819 185 q 643 25 728 58 q 442 -8 558 -8 m 442 76 q 644 129 571 76 q 717 272 717 182 q 644 415 717 363 q 442 467 571 467 q 240 415 313 467 q 168 272 168 363 q 240 129 168 182 q 442 76 313 76 m 442 546 q 619 593 556 546 q 683 719 683 640 q 617 849 683 803 q 442 896 551 896 q 267 849 332 896 q 201 721 201 803 q 265 593 201 640 q 442 546 328 546 m 442 479 q 258 508 333 479 q 142 592 182 538 q 101 724 101 647 q 144 862 101 804 q 263 950 186 919 q 442 981 339 981 q 622 950 544 981 q 742 862 699 919 q 785 724 785 804 q 744 592 785 647 q 627 508 704 538 q 442 479 550 479 z "},"9":{"ha":846,"x_min":43,"x_max":774,"o":"m 329 -8 q 205 4 264 -8 q 99 44 146 17 l 139 125 q 226 90 176 100 q 328 79 275 79 q 578 179 485 79 q 672 478 672 279 q 669 554 672 510 q 653 643 665 599 l 688 617 q 628 494 674 544 q 517 417 583 443 q 371 390 451 390 q 201 426 275 390 q 85 528 126 463 q 43 682 43 593 q 86 840 43 774 q 205 944 129 907 q 375 981 281 981 q 593 923 504 981 q 728 757 682 865 q 774 494 774 649 q 717 218 774 331 q 561 49 661 106 q 329 -8 461 -8 m 386 475 q 517 503 461 475 q 605 579 574 531 q 636 688 636 628 q 607 789 636 742 q 521 866 578 836 q 379 896 464 896 q 256 870 310 896 q 172 797 203 844 q 142 685 142 750 q 208 532 142 589 q 386 475 274 475 z "},"A":{"ha":996,"x_min":3,"x_max":993,"o":"m 3 0 l 447 972 l 549 972 l 993 0 l 885 0 l 476 913 l 518 913 l 110 0 l 3 0 m 178 260 l 208 343 l 774 343 l 804 260 l 178 260 z "},"Á":{"ha":996,"x_min":3,"x_max":993,"o":"m 3 0 l 447 972 l 549 972 l 993 0 l 885 0 l 476 913 l 518 913 l 110 0 l 3 0 m 178 260 l 208 343 l 774 343 l 804 260 l 178 260 m 408 1051 l 599 1224 l 731 1224 l 506 1051 l 408 1051 z "},"Ă":{"ha":996,"x_min":3,"x_max":993,"o":"m 3 0 l 447 972 l 549 972 l 993 0 l 885 0 l 476 913 l 518 913 l 110 0 l 3 0 m 178 260 l 208 343 l 774 343 l 804 260 l 178 260 m 499 1058 q 351 1106 411 1058 q 288 1238 290 1154 l 357 1238 q 401 1151 360 1183 q 499 1119 442 1119 q 598 1151 557 1119 q 640 1238 639 1183 l 710 1238 q 647 1106 707 1154 q 499 1058 586 1058 z "},"Ắ":{"ha":996,"x_min":3,"x_max":993,"o":"m 3 0 l 447 972 l 549 972 l 993 0 l 885 0 l 476 913 l 518 913 l 110 0 l 3 0 m 178 260 l 208 343 l 774 343 l 804 260 l 178 260 m 499 1058 q 354 1094 413 1058 q 288 1196 296 1131 l 356 1196 q 401 1138 363 1158 q 499 1117 440 1117 q 596 1138 557 1117 q 642 1196 635 1158 l 710 1196 q 643 1094 701 1131 q 499 1058 585 1058 m 414 1210 l 582 1360 l 701 1360 l 501 1210 l 414 1210 z "},"Ặ":{"ha":996,"x_min":3,"x_max":993,"o":"m 3 0 l 447 972 l 549 972 l 993 0 l 885 0 l 476 913 l 518 913 l 110 0 l 3 0 m 178 260 l 208 343 l 774 343 l 804 260 l 178 260 m 499 -253 q 451 -233 471 -253 q 432 -186 432 -214 q 451 -138 432 -157 q 499 -119 471 -119 q 546 -138 526 -119 q 565 -186 565 -157 q 546 -233 565 -214 q 499 -253 526 -253 m 499 1058 q 351 1106 411 1058 q 288 1238 290 1154 l 357 1238 q 401 1151 360 1183 q 499 1119 442 1119 q 598 1151 557 1119 q 640 1238 639 1183 l 710 1238 q 647 1106 707 1154 q 499 1058 586 1058 z "},"Ằ":{"ha":996,"x_min":3,"x_max":993,"o":"m 3 0 l 447 972 l 549 972 l 993 0 l 885 0 l 476 913 l 518 913 l 110 0 l 3 0 m 178 260 l 208 343 l 774 343 l 804 260 l 178 260 m 499 1058 q 354 1094 413 1058 q 288 1196 296 1131 l 356 1196 q 401 1138 363 1158 q 499 1117 440 1117 q 596 1138 557 1117 q 642 1196 635 1158 l 710 1196 q 643 1094 701 1131 q 499 1058 585 1058 m 497 1210 l 296 1360 l 417 1360 l 583 1210 l 497 1210 z "},"Ẳ":{"ha":996,"x_min":3,"x_max":993,"o":"m 3 0 l 447 972 l 549 972 l 993 0 l 885 0 l 476 913 l 518 913 l 110 0 l 3 0 m 178 260 l 208 343 l 774 343 l 804 260 l 178 260 m 499 1058 q 354 1094 413 1058 q 288 1196 296 1131 l 356 1196 q 401 1138 363 1158 q 499 1117 440 1117 q 596 1138 557 1117 q 642 1196 635 1158 l 710 1196 q 643 1094 701 1131 q 499 1058 585 1058 m 514 1172 l 486 1207 q 529 1239 514 1221 q 544 1276 544 1257 q 529 1310 544 1297 q 489 1322 514 1322 q 429 1306 458 1322 l 408 1346 q 451 1366 428 1360 q 497 1372 474 1372 q 571 1347 544 1372 q 597 1282 597 1321 q 576 1217 597 1246 q 514 1172 554 1189 z "},"Ẵ":{"ha":996,"x_min":3,"x_max":993,"o":"m 3 0 l 447 972 l 549 972 l 993 0 l 885 0 l 476 913 l 518 913 l 110 0 l 3 0 m 178 260 l 208 343 l 774 343 l 804 260 l 178 260 m 499 1058 q 354 1094 413 1058 q 288 1196 296 1131 l 356 1196 q 401 1138 363 1158 q 499 1117 440 1117 q 596 1138 557 1117 q 642 1196 635 1158 l 710 1196 q 643 1094 701 1131 q 499 1058 585 1058 m 592 1247 q 535 1258 560 1247 q 490 1285 511 1269 q 450 1311 469 1300 q 410 1322 431 1322 q 361 1304 378 1322 q 343 1253 344 1286 l 283 1253 q 318 1347 285 1313 q 407 1381 351 1381 q 478 1362 449 1381 q 535 1324 508 1343 q 588 1306 561 1306 q 637 1324 619 1306 q 656 1374 654 1342 l 714 1374 q 680 1282 713 1317 q 592 1247 647 1247 z "},"Ǎ":{"ha":996,"x_min":3,"x_max":993,"o":"m 3 0 l 447 972 l 549 972 l 993 0 l 885 0 l 476 913 l 518 913 l 110 0 l 3 0 m 178 260 l 208 343 l 774 343 l 804 260 l 178 260 m 449 1051 l 269 1224 l 361 1224 l 538 1078 l 460 1078 l 636 1224 l 728 1224 l 549 1051 l 449 1051 z "},"Â":{"ha":996,"x_min":3,"x_max":993,"o":"m 3 0 l 447 972 l 549 972 l 993 0 l 885 0 l 476 913 l 518 913 l 110 0 l 3 0 m 178 260 l 208 343 l 774 343 l 804 260 l 178 260 m 269 1051 l 449 1224 l 549 1224 l 728 1051 l 636 1051 l 460 1199 l 538 1199 l 361 1051 l 269 1051 z "},"Ấ":{"ha":996,"x_min":3,"x_max":993,"o":"m 3 0 l 447 972 l 549 972 l 993 0 l 885 0 l 476 913 l 518 913 l 110 0 l 3 0 m 178 260 l 208 343 l 774 343 l 804 260 l 178 260 m 269 1051 l 450 1182 l 547 1182 l 728 1051 l 633 1051 l 460 1157 l 538 1157 l 364 1051 l 269 1051 m 625 1167 l 793 1317 l 913 1317 l 713 1167 l 625 1167 z "},"Ậ":{"ha":996,"x_min":3,"x_max":993,"o":"m 3 0 l 447 972 l 549 972 l 993 0 l 885 0 l 476 913 l 518 913 l 110 0 l 3 0 m 178 260 l 208 343 l 774 343 l 804 260 l 178 260 m 499 -253 q 451 -233 471 -253 q 432 -186 432 -214 q 451 -138 432 -157 q 499 -119 471 -119 q 546 -138 526 -119 q 565 -186 565 -157 q 546 -233 565 -214 q 499 -253 526 -253 m 269 1051 l 449 1224 l 549 1224 l 728 1051 l 636 1051 l 460 1199 l 538 1199 l 361 1051 l 269 1051 z "},"Ầ":{"ha":996,"x_min":3,"x_max":993,"o":"m 3 0 l 447 972 l 549 972 l 993 0 l 885 0 l 476 913 l 518 913 l 110 0 l 3 0 m 178 260 l 208 343 l 774 343 l 804 260 l 178 260 m 269 1051 l 450 1182 l 547 1182 l 728 1051 l 633 1051 l 460 1157 l 538 1157 l 364 1051 l 269 1051 m 708 1167 l 507 1317 l 628 1317 l 794 1167 l 708 1167 z "},"Ẩ":{"ha":996,"x_min":3,"x_max":993,"o":"m 3 0 l 447 972 l 549 972 l 993 0 l 885 0 l 476 913 l 518 913 l 110 0 l 3 0 m 178 260 l 208 343 l 774 343 l 804 260 l 178 260 m 269 1051 l 450 1182 l 547 1182 l 728 1051 l 633 1051 l 460 1157 l 538 1157 l 364 1051 l 269 1051 m 681 1143 l 653 1178 q 696 1210 681 1192 q 711 1247 711 1228 q 696 1281 711 1268 q 656 1293 681 1293 q 596 1276 625 1293 l 575 1317 q 617 1337 594 1331 q 664 1343 640 1343 q 738 1317 711 1343 q 764 1253 764 1292 q 742 1188 764 1217 q 681 1143 721 1160 z "},"Ẫ":{"ha":996,"x_min":3,"x_max":993,"o":"m 3 0 l 447 972 l 549 972 l 993 0 l 885 0 l 476 913 l 518 913 l 110 0 l 3 0 m 178 260 l 208 343 l 774 343 l 804 260 l 178 260 m 269 1051 l 450 1182 l 547 1182 l 728 1051 l 633 1051 l 460 1157 l 538 1157 l 364 1051 l 269 1051 m 592 1229 q 535 1240 560 1229 q 490 1267 511 1251 q 450 1293 469 1282 q 410 1304 431 1304 q 361 1286 378 1304 q 343 1235 344 1268 l 283 1235 q 318 1328 285 1294 q 407 1363 351 1363 q 478 1344 449 1363 q 535 1306 508 1325 q 588 1288 561 1288 q 637 1306 619 1288 q 656 1356 654 1324 l 714 1356 q 680 1264 713 1299 q 592 1229 647 1229 z "},"Ȁ":{"ha":996,"x_min":3,"x_max":993,"o":"m 3 0 l 447 972 l 549 972 l 993 0 l 885 0 l 476 913 l 518 913 l 110 0 l 3 0 m 178 260 l 208 343 l 774 343 l 804 260 l 178 260 m 568 1051 l 411 1224 l 521 1224 l 656 1051 l 568 1051 m 342 1051 l 186 1224 l 296 1224 l 429 1051 l 342 1051 z "},"Ä":{"ha":996,"x_min":3,"x_max":993,"o":"m 3 0 l 447 972 l 549 972 l 993 0 l 885 0 l 476 913 l 518 913 l 110 0 l 3 0 m 178 260 l 208 343 l 774 343 l 804 260 l 178 260 m 622 1083 q 581 1100 599 1083 q 563 1143 563 1117 q 581 1186 563 1169 q 622 1203 599 1203 q 665 1186 647 1203 q 682 1143 682 1169 q 665 1100 682 1117 q 622 1083 647 1083 m 375 1083 q 333 1100 350 1083 q 315 1143 315 1117 q 333 1186 315 1169 q 375 1203 350 1203 q 417 1186 399 1203 q 435 1143 435 1169 q 417 1100 435 1117 q 375 1083 399 1083 z "},"Ǟ":{"ha":996,"x_min":3,"x_max":993,"o":"m 3 0 l 447 972 l 549 972 l 993 0 l 885 0 l 476 913 l 518 913 l 110 0 l 3 0 m 178 260 l 208 343 l 774 343 l 804 260 l 178 260 m 621 1069 q 580 1087 597 1069 q 563 1128 563 1104 q 580 1169 563 1153 q 621 1186 597 1186 q 662 1169 644 1186 q 679 1128 679 1153 q 662 1087 679 1104 q 621 1069 644 1069 m 376 1069 q 336 1087 354 1069 q 318 1128 318 1104 q 336 1169 318 1153 q 376 1186 354 1186 q 418 1169 401 1186 q 435 1128 435 1153 q 418 1087 435 1104 q 376 1069 401 1069 m 285 1281 l 285 1343 l 713 1343 l 713 1281 l 285 1281 z "},"Ȧ":{"ha":996,"x_min":3,"x_max":993,"o":"m 3 0 l 447 972 l 549 972 l 993 0 l 885 0 l 476 913 l 518 913 l 110 0 l 3 0 m 178 260 l 208 343 l 774 343 l 804 260 l 178 260 m 499 1083 q 451 1103 471 1083 q 432 1150 432 1122 q 451 1198 432 1179 q 499 1217 471 1217 q 546 1198 526 1217 q 565 1150 565 1179 q 546 1103 565 1122 q 499 1083 526 1083 z "},"Ạ":{"ha":996,"x_min":3,"x_max":993,"o":"m 3 0 l 447 972 l 549 972 l 993 0 l 885 0 l 476 913 l 518 913 l 110 0 l 3 0 m 178 260 l 208 343 l 774 343 l 804 260 l 178 260 m 499 -253 q 451 -233 471 -253 q 432 -186 432 -214 q 451 -138 432 -157 q 499 -119 471 -119 q 546 -138 526 -119 q 565 -186 565 -157 q 546 -233 565 -214 q 499 -253 526 -253 z "},"Ǡ":{"ha":996,"x_min":3,"x_max":993,"o":"m 3 0 l 447 972 l 549 972 l 993 0 l 885 0 l 476 913 l 518 913 l 110 0 l 3 0 m 178 260 l 208 343 l 774 343 l 804 260 l 178 260 m 499 1075 q 457 1092 475 1075 q 439 1135 439 1110 q 457 1178 439 1161 q 499 1194 475 1194 q 541 1178 524 1194 q 558 1135 558 1161 q 541 1092 558 1110 q 499 1075 524 1075 m 285 1281 l 285 1343 l 713 1343 l 713 1281 l 285 1281 z "},"À":{"ha":996,"x_min":3,"x_max":993,"o":"m 3 0 l 447 972 l 549 972 l 993 0 l 885 0 l 476 913 l 518 913 l 110 0 l 3 0 m 178 260 l 208 343 l 774 343 l 804 260 l 178 260 m 492 1051 l 267 1224 l 399 1224 l 589 1051 l 492 1051 z "},"Ả":{"ha":996,"x_min":3,"x_max":993,"o":"m 3 0 l 447 972 l 549 972 l 993 0 l 885 0 l 476 913 l 518 913 l 110 0 l 3 0 m 178 260 l 208 343 l 774 343 l 804 260 l 178 260 m 499 1019 l 464 1063 q 526 1106 506 1082 q 546 1161 546 1129 q 525 1210 546 1190 q 469 1229 504 1229 q 386 1203 426 1229 l 363 1251 q 417 1278 386 1269 q 478 1288 449 1288 q 547 1273 517 1288 q 593 1232 576 1258 q 610 1168 610 1206 q 583 1083 610 1119 q 499 1019 556 1046 z "},"Ȃ":{"ha":996,"x_min":3,"x_max":993,"o":"m 3 0 l 447 972 l 549 972 l 993 0 l 885 0 l 476 913 l 518 913 l 110 0 l 3 0 m 178 260 l 208 343 l 774 343 l 804 260 l 178 260 m 288 1051 q 351 1182 290 1135 q 499 1229 411 1229 q 647 1182 586 1229 q 710 1051 707 1135 l 640 1051 q 598 1138 639 1106 q 499 1169 557 1169 q 401 1138 442 1169 q 357 1051 360 1106 l 288 1051 z "},"Ɑ":{"ha":1250,"x_min":72,"x_max":1090,"o":"m 574 -8 q 376 28 468 -8 q 217 130 285 64 q 110 287 149 196 q 72 488 72 378 q 110 688 72 597 q 217 844 149 778 q 376 945 285 910 q 574 981 467 981 q 764 947 676 981 q 917 850 851 914 q 1018 694 982 786 q 1054 488 1054 603 q 1019 281 1054 372 q 918 125 983 190 q 765 26 853 60 q 574 -8 678 -8 m 583 83 q 791 135 700 83 q 935 277 882 186 q 989 488 989 368 q 935 698 989 608 q 791 839 882 788 q 583 890 700 890 q 375 839 468 890 q 228 698 282 788 q 175 488 175 608 q 228 277 175 368 q 374 135 282 186 q 583 83 467 83 m 992 0 l 992 314 l 1008 490 l 988 667 l 988 972 l 1090 972 l 1090 0 l 992 0 z "},"Ā":{"ha":996,"x_min":3,"x_max":993,"o":"m 3 0 l 447 972 l 549 972 l 993 0 l 885 0 l 476 913 l 518 913 l 110 0 l 3 0 m 178 260 l 208 343 l 774 343 l 804 260 l 178 260 m 285 1104 l 285 1169 l 713 1169 l 713 1104 l 285 1104 z "},"Ą":{"ha":996,"x_min":3,"x_max":1022,"o":"m 3 0 l 447 972 l 549 972 l 993 0 l 885 0 l 476 913 l 518 913 l 110 0 l 3 0 m 178 260 l 208 343 l 774 343 l 804 260 l 178 260 m 906 -306 q 794 -269 835 -306 q 753 -174 753 -233 q 770 -103 753 -140 q 830 -31 788 -67 q 949 38 872 6 l 994 0 q 891 -58 928 -29 q 840 -113 854 -86 q 825 -167 825 -140 q 851 -225 825 -206 q 915 -244 876 -244 q 960 -237 938 -244 q 1000 -218 983 -231 l 1024 -272 q 969 -297 999 -287 q 906 -306 939 -306 z "},"Å":{"ha":996,"x_min":3,"x_max":993,"o":"m 3 0 l 447 972 l 549 972 l 993 0 l 885 0 l 476 913 l 518 913 l 110 0 l 3 0 m 178 260 l 208 343 l 774 343 l 804 260 l 178 260 m 497 1035 q 423 1054 456 1035 q 372 1106 390 1074 q 353 1176 353 1138 q 372 1249 353 1215 q 424 1302 392 1282 q 497 1322 457 1322 q 572 1302 539 1322 q 624 1249 604 1282 q 643 1176 643 1215 q 624 1106 643 1138 q 572 1054 604 1074 q 497 1035 539 1035 m 497 1083 q 565 1110 539 1083 q 592 1176 592 1138 q 565 1245 592 1217 q 497 1274 539 1274 q 431 1246 457 1274 q 404 1176 404 1218 q 430 1110 404 1136 q 497 1083 456 1083 z "},"Ǻ":{"ha":996,"x_min":3,"x_max":993,"o":"m 3 0 l 447 972 l 549 972 l 993 0 l 885 0 l 476 913 l 518 913 l 110 0 l 3 0 m 178 260 l 208 343 l 774 343 l 804 260 l 178 260 m 497 1035 q 423 1054 456 1035 q 372 1106 390 1074 q 353 1176 353 1138 q 372 1249 353 1215 q 424 1302 392 1282 q 497 1322 457 1322 q 572 1302 539 1322 q 624 1249 604 1282 q 643 1176 643 1215 q 624 1106 643 1138 q 572 1054 604 1074 q 497 1035 539 1035 m 497 1083 q 565 1110 539 1083 q 592 1176 592 1138 q 565 1245 592 1217 q 497 1274 539 1274 q 431 1246 457 1274 q 404 1176 404 1218 q 430 1110 404 1136 q 497 1083 456 1083 m 606 1254 l 547 1275 l 688 1414 l 743 1369 l 606 1254 z "},"Ḁ":{"ha":996,"x_min":3,"x_max":993,"o":"m 3 0 l 447 972 l 549 972 l 993 0 l 885 0 l 476 913 l 518 913 l 110 0 l 3 0 m 178 260 l 208 343 l 774 343 l 804 260 l 178 260 m 497 -346 q 423 -326 456 -346 q 372 -275 390 -307 q 353 -204 353 -243 q 372 -132 353 -165 q 424 -78 392 -99 q 497 -58 457 -58 q 572 -78 539 -58 q 624 -132 604 -99 q 643 -204 643 -165 q 624 -275 643 -243 q 572 -326 604 -307 q 497 -346 539 -346 m 497 -297 q 565 -270 539 -297 q 592 -204 592 -243 q 565 -135 592 -164 q 497 -107 539 -107 q 431 -135 457 -107 q 404 -204 404 -162 q 430 -271 404 -244 q 497 -297 456 -297 z "},"Ⱥ":{"ha":996,"x_min":3,"x_max":993,"o":"m 3 0 l 447 972 l 549 972 l 993 0 l 885 0 l 476 917 l 518 917 l 110 0 l 3 0 m 178 263 l 208 340 l 774 340 l 804 263 l 178 263 m 249 -97 l 768 1069 l 853 1069 l 335 -97 l 249 -97 z "},"Ã":{"ha":996,"x_min":3,"x_max":993,"o":"m 3 0 l 447 972 l 549 972 l 993 0 l 885 0 l 476 913 l 518 913 l 110 0 l 3 0 m 178 260 l 208 343 l 774 343 l 804 260 l 178 260 m 603 1056 q 540 1071 567 1056 q 491 1105 513 1086 q 447 1139 469 1124 q 399 1154 425 1154 q 348 1128 367 1154 q 326 1061 329 1101 l 263 1061 q 299 1176 264 1129 q 394 1222 333 1222 q 458 1207 431 1222 q 507 1173 485 1192 q 551 1139 529 1154 q 599 1124 572 1124 q 650 1151 631 1124 q 671 1214 669 1178 l 733 1214 q 698 1101 732 1146 q 603 1056 664 1056 z "},"Ɐ":{"ha":996,"x_min":3,"x_max":993,"o":"m 993 972 l 549 0 l 449 0 l 3 972 l 111 972 l 519 60 l 478 60 l 886 972 l 993 972 m 819 713 l 789 629 l 222 629 l 192 713 l 819 713 z "},"Æ":{"ha":1435,"x_min":3,"x_max":1351,"o":"m 3 0 l 596 972 l 697 972 l 697 883 l 606 883 l 669 925 l 110 0 l 3 0 m 235 260 l 246 343 l 697 343 l 697 260 l 235 260 m 664 0 l 664 972 l 1331 972 l 1331 883 l 767 883 l 767 89 l 1351 89 l 1351 0 l 664 0 m 756 450 l 756 538 l 1271 538 l 1271 450 l 756 450 z "},"Ǽ":{"ha":1435,"x_min":3,"x_max":1351,"o":"m 3 0 l 596 972 l 697 972 l 697 883 l 606 883 l 669 925 l 110 0 l 3 0 m 235 260 l 246 343 l 697 343 l 697 260 l 235 260 m 664 0 l 664 972 l 1331 972 l 1331 883 l 767 883 l 767 89 l 1351 89 l 1351 0 l 664 0 m 756 450 l 756 538 l 1271 538 l 1271 450 l 756 450 m 765 1051 l 956 1224 l 1088 1224 l 863 1051 l 765 1051 z "},"Ǣ":{"ha":1435,"x_min":3,"x_max":1351,"o":"m 3 0 l 596 972 l 697 972 l 697 883 l 606 883 l 669 925 l 110 0 l 3 0 m 235 260 l 246 343 l 697 343 l 697 260 l 235 260 m 664 0 l 664 972 l 1331 972 l 1331 883 l 767 883 l 767 89 l 1351 89 l 1351 0 l 664 0 m 756 450 l 756 538 l 1271 538 l 1271 450 l 756 450 m 642 1104 l 642 1169 l 1069 1169 l 1069 1104 l 642 1104 z "},"B":{"ha":1047,"x_min":158,"x_max":971,"o":"m 158 0 l 158 972 l 578 972 q 830 907 740 972 q 919 722 919 842 q 883 589 919 643 q 783 507 846 535 q 644 479 719 479 l 668 513 q 828 484 761 513 q 933 399 896 456 q 971 260 971 343 q 880 68 971 136 q 606 0 789 0 l 158 0 m 261 85 l 604 85 q 800 128 732 85 q 868 268 868 172 q 800 406 868 363 q 604 450 732 450 l 250 450 l 250 535 l 571 535 q 752 579 688 535 q 817 711 817 624 q 752 844 817 800 q 571 888 688 888 l 261 888 l 261 85 z "},"Ḃ":{"ha":1047,"x_min":158,"x_max":971,"o":"m 158 0 l 158 972 l 578 972 q 830 907 740 972 q 919 722 919 842 q 883 589 919 643 q 783 507 846 535 q 644 479 719 479 l 668 513 q 828 484 761 513 q 933 399 896 456 q 971 260 971 343 q 880 68 971 136 q 606 0 789 0 l 158 0 m 261 85 l 604 85 q 800 128 732 85 q 868 268 868 172 q 800 406 868 363 q 604 450 732 450 l 250 450 l 250 535 l 571 535 q 752 579 688 535 q 817 711 817 624 q 752 844 817 800 q 571 888 688 888 l 261 888 l 261 85 m 525 1083 q 478 1103 497 1083 q 458 1150 458 1122 q 478 1198 458 1179 q 525 1217 497 1217 q 572 1198 553 1217 q 592 1150 592 1179 q 572 1103 592 1122 q 525 1083 553 1083 z "},"Ḅ":{"ha":1047,"x_min":158,"x_max":971,"o":"m 158 0 l 158 972 l 578 972 q 830 907 740 972 q 919 722 919 842 q 883 589 919 643 q 783 507 846 535 q 644 479 719 479 l 668 513 q 828 484 761 513 q 933 399 896 456 q 971 260 971 343 q 880 68 971 136 q 606 0 789 0 l 158 0 m 261 85 l 604 85 q 800 128 732 85 q 868 268 868 172 q 800 406 868 363 q 604 450 732 450 l 250 450 l 250 535 l 571 535 q 752 579 688 535 q 817 711 817 624 q 752 844 817 800 q 571 888 688 888 l 261 888 l 261 85 m 525 -253 q 478 -233 497 -253 q 458 -186 458 -214 q 478 -138 458 -157 q 525 -119 497 -119 q 572 -138 553 -119 q 592 -186 592 -157 q 572 -233 592 -214 q 525 -253 553 -253 z "},"Ꞵ":{"ha":1047,"x_min":158,"x_max":971,"o":"m 158 -269 l 158 972 l 578 972 q 830 907 740 972 q 919 722 919 842 q 883 589 919 643 q 783 507 846 535 q 644 479 719 479 l 668 513 q 828 484 761 513 q 933 399 896 456 q 971 260 971 343 q 880 68 971 136 q 606 0 789 0 l 251 0 l 251 85 l 604 85 q 800 128 732 85 q 868 268 868 172 q 800 406 868 363 q 604 450 732 450 l 250 450 l 250 535 l 571 535 q 752 579 688 535 q 817 711 817 624 q 752 844 817 800 q 571 888 688 888 l 261 888 l 261 -269 l 158 -269 z "},"Ɓ":{"ha":1265,"x_min":46,"x_max":1189,"o":"m 133 560 q 67 660 89 606 q 48 770 46 715 q 76 871 50 825 q 157 944 103 917 q 293 972 211 972 l 386 972 l 386 883 l 293 883 q 199 858 233 883 q 153 793 164 833 q 154 707 142 753 q 203 617 167 661 l 133 560 m 376 0 l 376 972 l 796 972 q 1047 907 957 972 q 1138 722 1138 842 q 1101 589 1138 643 q 1001 507 1064 535 q 861 479 938 479 l 886 513 q 1047 484 979 513 q 1151 399 1114 456 q 1189 260 1189 343 q 1097 68 1189 136 q 824 0 1006 0 l 376 0 m 478 85 l 821 85 q 1018 128 950 85 q 1086 268 1086 172 q 1018 406 1086 363 q 821 450 950 450 l 468 450 l 468 535 l 789 535 q 970 579 906 535 q 1035 711 1035 624 q 970 844 1035 800 q 789 888 906 888 l 478 888 l 478 85 z "},"Ḇ":{"ha":1047,"x_min":158,"x_max":971,"o":"m 158 0 l 158 972 l 578 972 q 830 907 740 972 q 919 722 919 842 q 883 589 919 643 q 783 507 846 535 q 644 479 719 479 l 668 513 q 828 484 761 513 q 933 399 896 456 q 971 260 971 343 q 880 68 971 136 q 606 0 789 0 l 158 0 m 261 85 l 604 85 q 800 128 732 85 q 868 268 868 172 q 800 406 868 363 q 604 450 732 450 l 250 450 l 250 535 l 571 535 q 752 579 688 535 q 817 711 817 624 q 752 844 817 800 q 571 888 688 888 l 261 888 l 261 85 m 311 -221 l 311 -156 l 739 -156 l 739 -221 l 311 -221 z "},"Ƀ":{"ha":1064,"x_min":24,"x_max":986,"o":"m 175 0 l 175 972 l 594 972 q 845 907 756 972 q 935 722 935 842 q 898 590 935 643 q 799 509 861 536 q 660 482 736 482 l 685 515 q 844 486 776 515 q 949 401 913 457 q 986 263 986 344 q 895 69 986 139 q 622 0 804 0 l 175 0 m 24 231 l 24 311 l 207 311 l 235 311 l 497 311 l 497 231 l 235 231 l 207 231 l 24 231 m 276 85 l 619 85 q 816 128 749 85 q 883 268 883 172 q 816 408 883 363 q 619 453 749 453 l 267 453 l 267 538 l 586 538 q 769 581 704 538 q 833 711 833 624 q 769 844 833 800 q 586 888 704 888 l 276 888 l 276 85 z "},"Ƃ":{"ha":1047,"x_min":158,"x_max":971,"o":"m 158 0 l 158 972 l 888 972 l 888 888 l 261 888 l 261 85 l 604 85 q 800 130 732 85 q 868 278 868 175 q 801 422 868 378 q 604 467 733 467 l 250 467 l 250 551 l 619 551 q 881 485 792 551 q 971 281 971 418 q 878 69 971 139 q 606 0 786 0 l 158 0 z "},"C":{"ha":985,"x_min":72,"x_max":938,"o":"m 581 -8 q 378 28 471 -8 q 217 132 285 65 q 110 289 149 199 q 72 486 72 379 q 110 683 72 593 q 217 840 149 774 q 379 944 286 907 q 582 981 472 981 q 781 945 688 981 q 938 839 874 910 l 872 774 q 740 862 813 835 q 585 889 668 889 q 422 859 497 889 q 292 774 347 829 q 205 647 236 719 q 174 486 174 574 q 205 326 174 399 q 292 198 236 253 q 422 113 347 143 q 585 83 497 83 q 740 111 668 83 q 872 200 813 139 l 938 135 q 781 28 874 64 q 581 -8 688 -8 z "},"Ć":{"ha":990,"x_min":72,"x_max":938,"o":"m 581 -8 q 378 28 471 -8 q 217 132 285 65 q 110 289 149 199 q 72 486 72 379 q 110 683 72 593 q 217 840 149 774 q 379 944 286 907 q 582 981 472 981 q 781 945 688 981 q 938 839 874 910 l 872 774 q 740 862 813 835 q 585 889 668 889 q 422 859 497 889 q 292 774 347 829 q 205 647 236 719 q 174 486 174 574 q 205 326 174 399 q 292 198 236 253 q 422 113 347 143 q 585 83 497 83 q 740 111 668 83 q 872 200 813 139 l 938 135 q 781 28 874 64 q 581 -8 688 -8 m 479 1051 l 669 1224 l 801 1224 l 576 1051 l 479 1051 z "},"Ꞓ":{"ha":1082,"x_min":18,"x_max":1036,"o":"m 678 -8 q 476 28 569 -8 q 315 132 383 65 q 208 289 246 199 q 169 486 169 379 q 208 683 169 593 q 315 840 246 774 q 476 944 383 907 q 679 981 569 981 q 878 945 786 981 q 1036 839 971 910 l 969 774 q 838 862 911 835 q 683 889 765 889 q 519 859 594 889 q 389 774 444 829 q 303 647 333 719 q 272 486 272 574 q 303 326 272 399 q 389 198 333 253 q 519 113 444 143 q 683 83 594 83 q 838 111 765 83 q 969 200 911 139 l 1036 135 q 878 28 971 64 q 678 -8 786 -8 m 18 454 l 18 538 l 519 538 l 519 454 l 18 454 z "},"Č":{"ha":990,"x_min":72,"x_max":938,"o":"m 581 -8 q 378 28 471 -8 q 217 132 285 65 q 110 289 149 199 q 72 486 72 379 q 110 683 72 593 q 217 840 149 774 q 379 944 286 907 q 582 981 472 981 q 781 945 688 981 q 938 839 874 910 l 872 774 q 740 862 813 835 q 585 889 668 889 q 422 859 497 889 q 292 774 347 829 q 205 647 236 719 q 174 486 174 574 q 205 326 174 399 q 292 198 236 253 q 422 113 347 143 q 585 83 497 83 q 740 111 668 83 q 872 200 813 139 l 938 135 q 781 28 874 64 q 581 -8 688 -8 m 519 1051 l 340 1224 l 432 1224 l 608 1078 l 531 1078 l 707 1224 l 799 1224 l 619 1051 l 519 1051 z "},"Ç":{"ha":985,"x_min":72,"x_max":938,"o":"m 581 -8 q 378 28 471 -8 q 217 132 285 65 q 110 289 149 199 q 72 486 72 379 q 110 683 72 593 q 217 840 149 774 q 379 944 286 907 q 582 981 472 981 q 781 945 688 981 q 938 839 874 910 l 872 774 q 740 862 813 835 q 585 889 668 889 q 422 859 497 889 q 292 774 347 829 q 205 647 236 719 q 174 486 174 574 q 205 326 174 399 q 292 198 236 253 q 422 113 347 143 q 585 83 497 83 q 740 111 668 83 q 872 200 813 139 l 938 135 q 781 28 874 64 q 581 -8 688 -8 m 542 -306 q 478 -297 507 -306 q 425 -274 450 -289 l 449 -221 q 492 -240 469 -233 q 540 -247 515 -247 q 604 -230 582 -247 q 626 -182 626 -212 q 605 -136 626 -154 q 540 -118 583 -118 l 508 -118 l 542 8 l 601 8 l 581 -72 q 668 -108 638 -76 q 699 -185 699 -139 q 655 -273 699 -240 q 542 -306 611 -306 z "},"Ḉ":{"ha":990,"x_min":72,"x_max":938,"o":"m 581 -8 q 378 28 471 -8 q 217 132 285 65 q 110 289 149 199 q 72 486 72 379 q 110 683 72 593 q 217 840 149 774 q 379 944 286 907 q 582 981 472 981 q 781 945 688 981 q 938 839 874 910 l 872 774 q 740 862 813 835 q 585 889 668 889 q 422 859 497 889 q 292 774 347 829 q 205 647 236 719 q 174 486 174 574 q 205 326 174 399 q 292 198 236 253 q 422 113 347 143 q 585 83 497 83 q 740 111 668 83 q 872 200 813 139 l 938 135 q 781 28 874 64 q 581 -8 688 -8 m 539 -306 q 476 -297 504 -306 q 422 -274 447 -289 l 446 -221 q 490 -240 467 -233 q 538 -247 513 -247 q 601 -230 579 -247 q 624 -182 624 -212 q 602 -136 624 -154 q 538 -118 581 -118 l 506 -118 l 539 8 l 599 8 l 578 -72 q 665 -108 635 -76 q 696 -185 696 -139 q 652 -273 696 -240 q 539 -306 608 -306 m 479 1051 l 669 1224 l 801 1224 l 576 1051 l 479 1051 z "},"Ĉ":{"ha":990,"x_min":72,"x_max":938,"o":"m 581 -8 q 378 28 471 -8 q 217 132 285 65 q 110 289 149 199 q 72 486 72 379 q 110 683 72 593 q 217 840 149 774 q 379 944 286 907 q 582 981 472 981 q 781 945 688 981 q 938 839 874 910 l 872 774 q 740 862 813 835 q 585 889 668 889 q 422 859 497 889 q 292 774 347 829 q 205 647 236 719 q 174 486 174 574 q 205 326 174 399 q 292 198 236 253 q 422 113 347 143 q 585 83 497 83 q 740 111 668 83 q 872 200 813 139 l 938 135 q 781 28 874 64 q 581 -8 688 -8 m 340 1051 l 519 1224 l 619 1224 l 799 1051 l 707 1051 l 531 1199 l 608 1199 l 432 1051 l 340 1051 z "},"Ċ":{"ha":990,"x_min":72,"x_max":938,"o":"m 581 -8 q 378 28 471 -8 q 217 132 285 65 q 110 289 149 199 q 72 486 72 379 q 110 683 72 593 q 217 840 149 774 q 379 944 286 907 q 582 981 472 981 q 781 945 688 981 q 938 839 874 910 l 872 774 q 740 862 813 835 q 585 889 668 889 q 422 859 497 889 q 292 774 347 829 q 205 647 236 719 q 174 486 174 574 q 205 326 174 399 q 292 198 236 253 q 422 113 347 143 q 585 83 497 83 q 740 111 668 83 q 872 200 813 139 l 938 135 q 781 28 874 64 q 581 -8 688 -8 m 569 1083 q 522 1103 542 1083 q 503 1150 503 1122 q 522 1198 503 1179 q 569 1217 542 1217 q 617 1198 597 1217 q 636 1150 636 1179 q 617 1103 636 1122 q 569 1083 597 1083 z "},"Ꭓ":{"ha":781,"x_min":-157,"x_max":938,"o":"m 938 -190 q 867 -252 910 -228 q 775 -278 824 -276 q 681 -252 726 -279 q 604 -162 635 -225 l 356 321 l 326 365 l 90 818 q 32 883 64 867 q -33 886 0 899 q -93 839 -65 874 l -157 893 q -87 954 -129 931 q 4 980 -44 978 q 97 955 53 982 q 174 865 142 928 l 390 446 l 415 406 l 689 -115 q 747 -180 714 -164 q 813 -183 779 -196 q 874 -136 847 -169 l 938 -190 m -58 -269 l 343 418 l 354 422 l 681 972 l 789 972 l 410 347 l 397 335 l 49 -269 l -58 -269 z "},"Ƈ":{"ha":1029,"x_min":92,"x_max":1156,"o":"m 958 839 l 864 840 l 864 939 q 890 1054 864 1007 q 957 1126 915 1101 q 1051 1153 999 1151 q 1156 1133 1103 1154 l 1126 1053 q 1046 1062 1085 1071 q 983 1022 1007 1053 q 958 939 958 992 l 958 839 m 600 -8 q 399 28 492 -8 q 237 132 306 65 q 130 289 168 199 q 92 486 92 379 q 130 683 92 593 q 237 840 168 774 q 399 944 306 907 q 601 981 492 981 q 801 945 708 981 q 958 839 893 910 l 892 774 q 760 862 833 835 q 606 889 688 889 q 442 859 517 889 q 311 774 367 829 q 225 647 256 719 q 194 486 194 574 q 225 326 194 399 q 311 198 256 253 q 442 113 367 143 q 606 83 517 83 q 760 111 688 83 q 892 200 833 139 l 958 135 q 801 28 893 64 q 600 -8 708 -8 z "},"Ȼ":{"ha":985,"x_min":72,"x_max":938,"o":"m 242 -97 l 789 1069 l 875 1069 l 329 -97 l 242 -97 m 581 -8 q 378 28 471 -8 q 217 132 285 65 q 110 289 149 199 q 72 486 72 379 q 110 683 72 593 q 217 840 149 774 q 379 944 286 907 q 582 981 472 981 q 781 945 688 981 q 938 839 874 910 l 872 774 q 740 862 813 835 q 585 889 668 889 q 422 859 497 889 q 292 774 347 829 q 205 647 236 719 q 174 486 174 574 q 205 326 174 399 q 292 198 236 253 q 422 113 347 143 q 585 83 497 83 q 740 111 668 83 q 872 200 813 139 l 938 135 q 781 28 874 64 q 581 -8 688 -8 z "},"D":{"ha":1147,"x_min":158,"x_max":1075,"o":"m 158 0 l 158 972 l 554 972 q 827 910 710 972 q 1010 739 944 849 q 1075 486 1075 629 q 1010 233 1075 343 q 827 62 944 124 q 554 0 710 0 l 158 0 m 261 89 l 549 89 q 773 140 678 89 q 921 280 868 190 q 974 486 974 369 q 921 693 974 604 q 773 833 868 782 q 549 883 678 883 l 261 883 l 261 89 z "},"Ǳ":{"ha":2039,"x_min":158,"x_max":1994,"o":"m 158 0 l 158 972 l 554 972 q 827 910 710 972 q 1010 739 944 849 q 1075 486 1075 629 q 1010 233 1075 343 q 827 62 944 124 q 554 0 710 0 l 158 0 m 261 89 l 549 89 q 773 140 678 89 q 921 280 868 190 q 974 486 974 369 q 921 693 974 604 q 773 833 868 782 q 549 883 678 883 l 261 883 l 261 89 m 1197 0 l 1197 71 l 1872 922 l 1883 883 l 1207 883 l 1207 972 l 1978 972 l 1978 901 l 1304 50 l 1292 89 l 1994 89 l 1994 0 l 1197 0 z "},"Ǆ":{"ha":2039,"x_min":158,"x_max":1994,"o":"m 158 0 l 158 972 l 554 972 q 827 910 710 972 q 1010 739 944 849 q 1075 486 1075 629 q 1010 233 1075 343 q 827 62 944 124 q 554 0 710 0 l 158 0 m 261 89 l 549 89 q 773 140 678 89 q 921 280 868 190 q 974 486 974 369 q 921 693 974 604 q 773 833 868 782 q 549 883 678 883 l 261 883 l 261 89 m 1197 0 l 1197 71 l 1872 922 l 1883 883 l 1207 883 l 1207 972 l 1978 972 l 1978 901 l 1304 50 l 1292 89 l 1994 89 l 1994 0 l 1197 0 m 1546 1051 l 1367 1224 l 1458 1224 l 1635 1078 l 1557 1078 l 1733 1224 l 1825 1224 l 1646 1051 l 1546 1051 z "},"Ď":{"ha":1147,"x_min":158,"x_max":1075,"o":"m 158 0 l 158 972 l 554 972 q 827 910 710 972 q 1010 739 944 849 q 1075 486 1075 629 q 1010 233 1075 343 q 827 62 944 124 q 554 0 710 0 l 158 0 m 261 89 l 549 89 q 773 140 678 89 q 921 280 868 190 q 974 486 974 369 q 921 693 974 604 q 773 833 868 782 q 549 883 678 883 l 261 883 l 261 89 m 482 1051 l 303 1224 l 394 1224 l 571 1078 l 493 1078 l 669 1224 l 761 1224 l 582 1051 l 482 1051 z "},"Ḑ":{"ha":1147,"x_min":158,"x_max":1075,"o":"m 158 0 l 158 972 l 554 972 q 827 910 710 972 q 1010 739 944 849 q 1075 486 1075 629 q 1010 233 1075 343 q 827 62 944 124 q 554 0 710 0 l 158 0 m 261 89 l 549 89 q 773 140 678 89 q 921 280 868 190 q 974 486 974 369 q 921 693 974 604 q 773 833 868 782 q 549 883 678 883 l 261 883 l 261 89 m 490 -350 l 529 -200 l 539 -239 q 496 -224 513 -239 q 479 -185 479 -208 q 496 -146 479 -161 q 539 -131 513 -131 q 583 -147 567 -131 q 599 -185 599 -162 q 595 -214 599 -199 q 583 -247 592 -229 l 544 -350 l 490 -350 z "},"Ḓ":{"ha":1147,"x_min":158,"x_max":1075,"o":"m 158 0 l 158 972 l 554 972 q 827 910 710 972 q 1010 739 944 849 q 1075 486 1075 629 q 1010 233 1075 343 q 827 62 944 124 q 554 0 710 0 l 158 0 m 261 89 l 549 89 q 773 140 678 89 q 921 280 868 190 q 974 486 974 369 q 921 693 974 604 q 773 833 868 782 q 549 883 678 883 l 261 883 l 261 89 m 310 -275 l 489 -103 l 589 -103 l 768 -275 l 676 -275 l 500 -128 l 578 -128 l 401 -275 l 310 -275 z "},"Đ":{"ha":1154,"x_min":18,"x_max":1082,"o":"m 165 0 l 165 972 l 561 972 q 834 910 717 972 q 1017 739 951 849 q 1082 486 1082 629 q 1017 233 1082 343 q 834 62 951 124 q 561 0 717 0 l 165 0 m 268 89 l 556 89 q 780 140 685 89 q 928 280 875 190 q 981 486 981 369 q 928 693 981 604 q 780 833 875 782 q 556 883 685 883 l 268 883 l 268 89 m 18 456 l 18 538 l 557 538 l 557 456 l 18 456 z "},"Ḋ":{"ha":1147,"x_min":158,"x_max":1075,"o":"m 158 0 l 158 972 l 554 972 q 827 910 710 972 q 1010 739 944 849 q 1075 486 1075 629 q 1010 233 1075 343 q 827 62 944 124 q 554 0 710 0 l 158 0 m 261 89 l 549 89 q 773 140 678 89 q 921 280 868 190 q 974 486 974 369 q 921 693 974 604 q 773 833 868 782 q 549 883 678 883 l 261 883 l 261 89 m 532 1083 q 485 1103 504 1083 q 465 1150 465 1122 q 485 1198 465 1179 q 532 1217 504 1217 q 579 1198 560 1217 q 599 1150 599 1179 q 579 1103 599 1122 q 532 1083 560 1083 z "},"Ḍ":{"ha":1147,"x_min":158,"x_max":1075,"o":"m 158 0 l 158 972 l 554 972 q 827 910 710 972 q 1010 739 944 849 q 1075 486 1075 629 q 1010 233 1075 343 q 827 62 944 124 q 554 0 710 0 l 158 0 m 261 89 l 549 89 q 773 140 678 89 q 921 280 868 190 q 974 486 974 369 q 921 693 974 604 q 773 833 868 782 q 549 883 678 883 l 261 883 l 261 89 m 539 -253 q 492 -233 511 -253 q 472 -186 472 -214 q 492 -138 472 -157 q 539 -119 511 -119 q 586 -138 567 -119 q 606 -186 606 -157 q 586 -233 606 -214 q 539 -253 567 -253 z "},"Ɗ":{"ha":1365,"x_min":46,"x_max":1293,"o":"m 133 560 q 67 660 89 606 q 48 770 46 715 q 76 871 50 825 q 157 944 103 917 q 293 972 211 972 l 386 972 l 386 883 l 293 883 q 199 858 233 883 q 153 793 164 833 q 154 707 142 753 q 203 617 167 661 l 133 560 m 376 0 l 376 972 l 772 972 q 1045 910 928 972 q 1228 739 1163 849 q 1293 486 1293 629 q 1228 233 1293 343 q 1045 62 1163 124 q 772 0 928 0 l 376 0 m 478 89 l 767 89 q 991 140 896 89 q 1138 280 1086 190 q 1190 486 1190 369 q 1138 693 1190 604 q 991 833 1086 782 q 767 883 896 883 l 478 883 l 478 89 z "},"Ḏ":{"ha":1147,"x_min":158,"x_max":1075,"o":"m 158 0 l 158 972 l 554 972 q 827 910 710 972 q 1010 739 944 849 q 1075 486 1075 629 q 1010 233 1075 343 q 827 62 944 124 q 554 0 710 0 l 158 0 m 261 89 l 549 89 q 773 140 678 89 q 921 280 868 190 q 974 486 974 369 q 921 693 974 604 q 773 833 868 782 q 549 883 678 883 l 261 883 l 261 89 m 325 -221 l 325 -156 l 753 -156 l 753 -221 l 325 -221 z "},"Ɖ":{"ha":1147,"x_min":11,"x_max":1075,"o":"m 158 0 l 158 972 l 554 972 q 827 910 710 972 q 1010 739 944 849 q 1075 486 1075 629 q 1010 233 1075 343 q 827 62 944 124 q 554 0 710 0 l 158 0 m 261 89 l 549 89 q 773 140 678 89 q 921 280 868 190 q 974 486 974 369 q 921 693 974 604 q 773 833 868 782 q 549 883 678 883 l 261 883 l 261 89 m 11 456 l 11 538 l 550 538 l 550 456 l 11 456 z "},"Ƌ":{"ha":1029,"x_min":58,"x_max":871,"o":"m 422 0 q 153 77 247 0 q 58 289 58 154 q 149 492 58 419 q 415 564 239 564 l 769 564 l 769 883 l 163 883 l 163 972 l 871 972 l 871 0 l 422 0 m 429 85 l 769 85 l 769 479 l 429 479 q 227 428 293 479 q 161 288 161 378 q 228 140 161 196 q 429 85 294 85 z "},"ǲ":{"ha":1857,"x_min":158,"x_max":1800,"o":"m 158 0 l 158 972 l 554 972 q 827 910 710 972 q 1010 739 944 849 q 1075 486 1075 629 q 1010 233 1075 343 q 827 62 944 124 q 554 0 710 0 l 158 0 m 261 89 l 549 89 q 773 140 678 89 q 921 280 868 190 q 974 486 974 369 q 921 693 974 604 q 773 833 868 782 q 549 883 678 883 l 261 883 l 261 89 m 1206 0 l 1206 65 l 1692 681 l 1713 647 l 1214 647 l 1214 729 l 1790 729 l 1790 665 l 1306 49 l 1281 82 l 1800 82 l 1800 0 l 1206 0 z "},"ǅ":{"ha":1857,"x_min":158,"x_max":1800,"o":"m 158 0 l 158 972 l 554 972 q 827 910 710 972 q 1010 739 944 849 q 1075 486 1075 629 q 1010 233 1075 343 q 827 62 944 124 q 554 0 710 0 l 158 0 m 261 89 l 549 89 q 773 140 678 89 q 921 280 868 190 q 974 486 974 369 q 921 693 974 604 q 773 833 868 782 q 549 883 678 883 l 261 883 l 261 89 m 1206 0 l 1206 65 l 1692 681 l 1713 647 l 1214 647 l 1214 729 l 1790 729 l 1790 665 l 1306 49 l 1281 82 l 1800 82 l 1800 0 l 1206 0 m 1453 843 l 1274 1015 l 1365 1015 l 1542 869 l 1464 869 l 1640 1015 l 1732 1015 l 1553 843 l 1453 843 z "},"Ð":{"ha":1154,"x_min":18,"x_max":1082,"o":"m 165 0 l 165 972 l 561 972 q 834 910 717 972 q 1017 739 951 849 q 1082 486 1082 629 q 1017 233 1082 343 q 834 62 951 124 q 561 0 717 0 l 165 0 m 268 89 l 556 89 q 780 140 685 89 q 928 280 875 190 q 981 486 981 369 q 928 693 981 604 q 780 833 875 782 q 556 883 685 883 l 268 883 l 268 89 m 18 456 l 18 538 l 557 538 l 557 456 l 18 456 z "},"E":{"ha":929,"x_min":158,"x_max":846,"o":"m 158 0 l 158 972 l 825 972 l 825 883 l 261 883 l 261 89 l 846 89 l 846 0 l 158 0 m 250 450 l 250 538 l 764 538 l 764 450 l 250 450 z "},"É":{"ha":929,"x_min":158,"x_max":846,"o":"m 158 0 l 158 972 l 825 972 l 825 883 l 261 883 l 261 89 l 846 89 l 846 0 l 158 0 m 250 450 l 250 538 l 764 538 l 764 450 l 250 450 m 401 1051 l 592 1224 l 724 1224 l 499 1051 l 401 1051 z "},"Ĕ":{"ha":929,"x_min":158,"x_max":846,"o":"m 158 0 l 158 972 l 825 972 l 825 883 l 261 883 l 261 89 l 846 89 l 846 0 l 158 0 m 250 450 l 250 538 l 764 538 l 764 450 l 250 450 m 492 1058 q 344 1106 404 1058 q 281 1238 283 1154 l 350 1238 q 394 1151 353 1183 q 492 1119 435 1119 q 591 1151 550 1119 q 633 1238 632 1183 l 703 1238 q 640 1106 700 1154 q 492 1058 579 1058 z "},"Ě":{"ha":929,"x_min":158,"x_max":846,"o":"m 158 0 l 158 972 l 825 972 l 825 883 l 261 883 l 261 89 l 846 89 l 846 0 l 158 0 m 250 450 l 250 538 l 764 538 l 764 450 l 250 450 m 442 1051 l 263 1224 l 354 1224 l 531 1078 l 453 1078 l 629 1224 l 721 1224 l 542 1051 l 442 1051 z "},"Ȩ":{"ha":929,"x_min":158,"x_max":846,"o":"m 158 0 l 158 972 l 825 972 l 825 883 l 261 883 l 261 89 l 846 89 l 846 0 l 158 0 m 250 450 l 250 538 l 764 538 l 764 450 l 250 450 m 461 -306 q 398 -297 426 -306 q 344 -274 369 -289 l 368 -221 q 412 -240 389 -233 q 460 -247 435 -247 q 524 -230 501 -247 q 546 -182 546 -212 q 524 -136 546 -154 q 460 -118 503 -118 l 428 -118 l 461 8 l 521 8 l 500 -72 q 588 -108 557 -76 q 618 -185 618 -139 q 574 -273 618 -240 q 461 -306 531 -306 z "},"Ḝ":{"ha":929,"x_min":158,"x_max":846,"o":"m 158 0 l 158 972 l 825 972 l 825 883 l 261 883 l 261 89 l 846 89 l 846 0 l 158 0 m 250 450 l 250 538 l 764 538 l 764 450 l 250 450 m 461 -306 q 398 -297 426 -306 q 344 -274 369 -289 l 368 -221 q 412 -240 389 -233 q 460 -247 435 -247 q 524 -230 501 -247 q 546 -182 546 -212 q 524 -136 546 -154 q 460 -118 503 -118 l 428 -118 l 461 8 l 521 8 l 500 -72 q 588 -108 557 -76 q 618 -185 618 -139 q 574 -273 618 -240 q 461 -306 531 -306 m 492 1058 q 344 1106 404 1058 q 281 1238 283 1154 l 350 1238 q 394 1151 353 1183 q 492 1119 435 1119 q 591 1151 550 1119 q 633 1238 632 1183 l 703 1238 q 640 1106 700 1154 q 492 1058 579 1058 z "},"Ê":{"ha":929,"x_min":158,"x_max":846,"o":"m 158 0 l 158 972 l 825 972 l 825 883 l 261 883 l 261 89 l 846 89 l 846 0 l 158 0 m 250 450 l 250 538 l 764 538 l 764 450 l 250 450 m 263 1051 l 442 1224 l 542 1224 l 721 1051 l 629 1051 l 453 1199 l 531 1199 l 354 1051 l 263 1051 z "},"Ế":{"ha":929,"x_min":158,"x_max":907,"o":"m 158 0 l 158 972 l 825 972 l 825 883 l 261 883 l 261 89 l 846 89 l 846 0 l 158 0 m 250 450 l 250 538 l 764 538 l 764 450 l 250 450 m 263 1051 l 443 1182 l 540 1182 l 721 1051 l 626 1051 l 453 1157 l 531 1157 l 357 1051 l 263 1051 m 619 1167 l 788 1317 l 907 1317 l 707 1167 l 619 1167 z "},"Ḙ":{"ha":929,"x_min":158,"x_max":846,"o":"m 158 0 l 158 972 l 825 972 l 825 883 l 261 883 l 261 89 l 846 89 l 846 0 l 158 0 m 250 450 l 250 538 l 764 538 l 764 450 l 250 450 m 263 -275 l 442 -103 l 542 -103 l 721 -275 l 629 -275 l 453 -128 l 531 -128 l 354 -275 l 263 -275 z "},"Ệ":{"ha":929,"x_min":158,"x_max":846,"o":"m 158 0 l 158 972 l 825 972 l 825 883 l 261 883 l 261 89 l 846 89 l 846 0 l 158 0 m 250 450 l 250 538 l 764 538 l 764 450 l 250 450 m 492 -253 q 444 -233 464 -253 q 425 -186 425 -214 q 444 -138 425 -157 q 492 -119 464 -119 q 539 -138 519 -119 q 558 -186 558 -157 q 539 -233 558 -214 q 492 -253 519 -253 m 263 1051 l 442 1224 l 542 1224 l 721 1051 l 629 1051 l 453 1199 l 531 1199 l 354 1051 l 263 1051 z "},"Ề":{"ha":929,"x_min":158,"x_max":846,"o":"m 158 0 l 158 972 l 825 972 l 825 883 l 261 883 l 261 89 l 846 89 l 846 0 l 158 0 m 250 450 l 250 538 l 764 538 l 764 450 l 250 450 m 263 1051 l 443 1182 l 540 1182 l 721 1051 l 626 1051 l 453 1157 l 531 1157 l 357 1051 l 263 1051 m 703 1167 l 501 1317 l 622 1317 l 789 1167 l 703 1167 z "},"Ể":{"ha":929,"x_min":158,"x_max":846,"o":"m 158 0 l 158 972 l 825 972 l 825 883 l 261 883 l 261 89 l 846 89 l 846 0 l 158 0 m 250 450 l 250 538 l 764 538 l 764 450 l 250 450 m 263 1051 l 443 1182 l 540 1182 l 721 1051 l 626 1051 l 453 1157 l 531 1157 l 357 1051 l 263 1051 m 674 1143 l 646 1178 q 689 1210 674 1192 q 704 1247 704 1228 q 689 1281 704 1268 q 649 1293 674 1293 q 589 1276 618 1293 l 568 1317 q 610 1337 588 1331 q 657 1343 633 1343 q 731 1317 704 1343 q 757 1253 757 1292 q 735 1188 757 1217 q 674 1143 714 1160 z "},"Ễ":{"ha":929,"x_min":158,"x_max":846,"o":"m 158 0 l 158 972 l 825 972 l 825 883 l 261 883 l 261 89 l 846 89 l 846 0 l 158 0 m 250 450 l 250 538 l 764 538 l 764 450 l 250 450 m 263 1051 l 443 1182 l 540 1182 l 721 1051 l 626 1051 l 453 1157 l 531 1157 l 357 1051 l 263 1051 m 585 1229 q 528 1240 553 1229 q 483 1267 504 1251 q 443 1293 463 1282 q 403 1304 424 1304 q 354 1286 371 1304 q 336 1235 338 1268 l 276 1235 q 311 1328 278 1294 q 400 1363 344 1363 q 472 1344 442 1363 q 528 1306 501 1325 q 581 1288 554 1288 q 630 1306 613 1288 q 649 1356 647 1324 l 707 1356 q 673 1264 706 1299 q 585 1229 640 1229 z "},"Ȅ":{"ha":929,"x_min":158,"x_max":846,"o":"m 158 0 l 158 972 l 825 972 l 825 883 l 261 883 l 261 89 l 846 89 l 846 0 l 158 0 m 250 450 l 250 538 l 764 538 l 764 450 l 250 450 m 561 1051 l 404 1224 l 514 1224 l 649 1051 l 561 1051 m 335 1051 l 179 1224 l 289 1224 l 422 1051 l 335 1051 z "},"Ë":{"ha":929,"x_min":158,"x_max":846,"o":"m 158 0 l 158 972 l 825 972 l 825 883 l 261 883 l 261 89 l 846 89 l 846 0 l 158 0 m 250 450 l 250 538 l 764 538 l 764 450 l 250 450 m 615 1083 q 574 1100 592 1083 q 556 1143 556 1117 q 574 1186 556 1169 q 615 1203 592 1203 q 658 1186 640 1203 q 675 1143 675 1169 q 658 1100 675 1117 q 615 1083 640 1083 m 368 1083 q 326 1100 343 1083 q 308 1143 308 1117 q 326 1186 308 1169 q 368 1203 343 1203 q 410 1186 392 1203 q 428 1143 428 1169 q 410 1100 428 1117 q 368 1083 392 1083 z "},"Ė":{"ha":929,"x_min":158,"x_max":846,"o":"m 158 0 l 158 972 l 825 972 l 825 883 l 261 883 l 261 89 l 846 89 l 846 0 l 158 0 m 250 450 l 250 538 l 764 538 l 764 450 l 250 450 m 492 1083 q 444 1103 464 1083 q 425 1150 425 1122 q 444 1198 425 1179 q 492 1217 464 1217 q 539 1198 519 1217 q 558 1150 558 1179 q 539 1103 558 1122 q 492 1083 519 1083 z "},"Ẹ":{"ha":929,"x_min":158,"x_max":846,"o":"m 158 0 l 158 972 l 825 972 l 825 883 l 261 883 l 261 89 l 846 89 l 846 0 l 158 0 m 250 450 l 250 538 l 764 538 l 764 450 l 250 450 m 492 -253 q 444 -233 464 -253 q 425 -186 425 -214 q 444 -138 425 -157 q 492 -119 464 -119 q 539 -138 519 -119 q 558 -186 558 -157 q 539 -233 558 -214 q 492 -253 519 -253 z "},"È":{"ha":929,"x_min":158,"x_max":846,"o":"m 158 0 l 158 972 l 825 972 l 825 883 l 261 883 l 261 89 l 846 89 l 846 0 l 158 0 m 250 450 l 250 538 l 764 538 l 764 450 l 250 450 m 485 1051 l 260 1224 l 392 1224 l 582 1051 l 485 1051 z "},"Ẻ":{"ha":929,"x_min":158,"x_max":846,"o":"m 158 0 l 158 972 l 825 972 l 825 883 l 261 883 l 261 89 l 846 89 l 846 0 l 158 0 m 250 450 l 250 538 l 764 538 l 764 450 l 250 450 m 493 1019 l 458 1063 q 520 1106 500 1082 q 540 1161 540 1129 q 519 1210 540 1190 q 464 1229 499 1229 q 381 1203 421 1229 l 357 1251 q 412 1278 381 1269 q 472 1288 443 1288 q 541 1273 511 1288 q 588 1232 571 1258 q 604 1168 604 1206 q 577 1083 604 1119 q 493 1019 550 1046 z "},"Ȇ":{"ha":929,"x_min":158,"x_max":846,"o":"m 158 0 l 158 972 l 825 972 l 825 883 l 261 883 l 261 89 l 846 89 l 846 0 l 158 0 m 250 450 l 250 538 l 764 538 l 764 450 l 250 450 m 281 1051 q 344 1182 283 1135 q 492 1229 404 1229 q 640 1182 579 1229 q 703 1051 700 1135 l 633 1051 q 591 1138 632 1106 q 492 1169 550 1169 q 394 1138 435 1169 q 350 1051 353 1106 l 281 1051 z "},"Ē":{"ha":929,"x_min":158,"x_max":846,"o":"m 158 0 l 158 972 l 825 972 l 825 883 l 261 883 l 261 89 l 846 89 l 846 0 l 158 0 m 250 450 l 250 538 l 764 538 l 764 450 l 250 450 m 278 1104 l 278 1169 l 706 1169 l 706 1104 l 278 1104 z "},"Ḗ":{"ha":929,"x_min":158,"x_max":846,"o":"m 158 0 l 158 972 l 825 972 l 825 883 l 261 883 l 261 89 l 846 89 l 846 0 l 158 0 m 250 450 l 250 538 l 764 538 l 764 450 l 250 450 m 278 1093 l 278 1156 l 706 1156 l 706 1093 l 278 1093 m 407 1235 l 575 1385 l 694 1385 l 494 1235 l 407 1235 z "},"Ḕ":{"ha":929,"x_min":158,"x_max":846,"o":"m 158 0 l 158 972 l 825 972 l 825 883 l 261 883 l 261 89 l 846 89 l 846 0 l 158 0 m 250 450 l 250 538 l 764 538 l 764 450 l 250 450 m 278 1093 l 278 1156 l 706 1156 l 706 1093 l 278 1093 m 490 1235 l 289 1385 l 410 1385 l 576 1235 l 490 1235 z "},"Ę":{"ha":929,"x_min":158,"x_max":874,"o":"m 158 0 l 158 972 l 825 972 l 825 883 l 261 883 l 261 89 l 846 89 l 846 0 l 158 0 m 250 450 l 250 538 l 764 538 l 764 450 l 250 450 m 757 -306 q 645 -269 686 -306 q 604 -174 604 -233 q 622 -103 604 -140 q 681 -31 639 -67 q 800 38 724 6 l 846 0 q 742 -58 779 -29 q 691 -113 706 -86 q 676 -167 676 -140 q 702 -225 676 -206 q 767 -244 728 -244 q 812 -237 789 -244 q 851 -218 835 -231 l 875 -272 q 820 -297 850 -287 q 757 -306 790 -306 z "},"Ɛ":{"ha":863,"x_min":81,"x_max":857,"o":"m 479 -8 q 260 27 349 -8 q 126 126 172 63 q 81 269 81 189 q 121 406 81 350 q 228 490 161 461 q 375 519 294 519 l 381 488 q 244 518 303 488 q 154 601 186 549 q 122 722 122 654 q 151 836 122 788 q 231 917 181 885 q 344 964 281 949 q 479 979 408 979 q 651 957 565 979 q 810 892 738 935 l 778 810 q 688 853 738 835 q 584 881 638 871 q 479 890 531 890 q 353 872 411 890 q 260 813 296 853 q 225 710 225 772 q 283 588 225 629 q 446 546 342 546 l 663 546 l 663 463 l 442 463 q 307 442 365 463 q 216 381 249 422 q 183 276 183 339 q 256 133 183 186 q 478 79 329 79 q 674 108 586 79 q 818 189 763 138 l 857 111 q 699 23 797 54 q 479 -8 600 -8 z "},"Ǝ":{"ha":929,"x_min":85,"x_max":771,"o":"m 771 0 l 85 0 l 85 89 l 669 89 l 669 883 l 104 883 l 104 972 l 771 972 l 771 0 m 679 449 l 165 449 l 165 538 l 679 538 l 679 449 z "},"Ɜ":{"ha":863,"x_min":6,"x_max":782,"o":"m 383 -8 q 165 23 264 -8 q 6 111 67 54 l 44 189 q 189 108 101 138 q 385 79 276 79 q 607 133 535 79 q 679 276 679 186 q 647 381 679 339 q 556 442 614 422 q 421 463 499 463 l 200 463 l 200 546 l 417 546 q 579 588 521 546 q 638 710 638 629 q 602 813 638 772 q 509 872 567 853 q 383 890 451 890 q 278 881 332 890 q 176 853 225 871 q 85 810 126 835 l 53 892 q 211 957 125 935 q 383 979 297 979 q 518 964 454 979 q 632 917 582 949 q 711 836 682 885 q 740 722 740 788 q 709 601 740 654 q 619 518 678 549 q 482 488 561 488 l 489 519 q 636 490 569 519 q 742 406 703 461 q 782 269 782 350 q 736 126 782 189 q 602 27 690 63 q 383 -8 514 -8 z "},"Ʃ":{"ha":646,"x_min":-40,"x_max":679,"o":"m 142 -8 q 44 8 92 -8 q -40 60 -4 25 l -7 135 q 58 94 24 108 q 129 81 92 81 q 231 116 189 81 q 272 231 274 151 l 265 738 q 294 876 264 822 q 378 955 325 929 q 499 981 431 981 q 597 964 550 981 q 679 913 644 947 l 646 838 q 581 878 615 864 q 513 892 546 892 q 443 878 476 892 q 389 831 410 864 q 368 742 368 799 l 375 235 q 354 115 375 163 q 299 40 333 68 q 222 2 264 13 q 142 -8 181 -8 z "},"Ɇ":{"ha":931,"x_min":158,"x_max":846,"o":"m 199 -97 l 731 1069 l 814 1069 l 283 -97 l 199 -97 m 160 0 l 158 972 l 825 972 l 826 883 l 261 883 l 261 89 l 846 89 l 846 0 l 160 0 m 251 450 l 251 538 l 765 538 l 765 450 l 251 450 z "},"Ẽ":{"ha":929,"x_min":158,"x_max":846,"o":"m 158 0 l 158 972 l 825 972 l 825 883 l 261 883 l 261 89 l 846 89 l 846 0 l 158 0 m 250 450 l 250 538 l 764 538 l 764 450 l 250 450 m 596 1056 q 533 1071 560 1056 q 484 1105 506 1086 q 440 1139 463 1124 q 392 1154 418 1154 q 341 1128 360 1154 q 319 1061 322 1101 l 256 1061 q 292 1176 257 1129 q 388 1222 326 1222 q 451 1207 424 1222 q 500 1173 478 1192 q 544 1139 522 1154 q 592 1124 565 1124 q 643 1151 624 1124 q 664 1214 663 1178 l 726 1214 q 691 1101 725 1146 q 596 1056 657 1056 z "},"Ḛ":{"ha":929,"x_min":158,"x_max":846,"o":"m 158 0 l 158 972 l 825 972 l 825 883 l 261 883 l 261 89 l 846 89 l 846 0 l 158 0 m 250 450 l 250 538 l 764 538 l 764 450 l 250 450 m 596 -256 q 533 -240 560 -256 q 484 -206 506 -225 q 440 -172 463 -187 q 392 -157 418 -157 q 341 -183 360 -157 q 319 -250 322 -210 l 256 -250 q 292 -135 257 -182 q 388 -89 326 -89 q 451 -104 424 -89 q 500 -138 478 -119 q 544 -172 522 -157 q 592 -187 565 -187 q 643 -160 624 -187 q 664 -97 663 -133 l 726 -97 q 691 -210 725 -165 q 596 -256 657 -256 z "},"Ə":{"ha":1135,"x_min":72,"x_max":1063,"o":"m 568 -8 q 370 28 461 -8 q 213 133 279 65 q 109 291 146 200 q 72 490 72 382 l 72 521 l 974 521 l 974 433 l 139 433 l 174 486 q 203 323 174 397 q 284 194 232 249 q 408 110 336 140 q 568 81 481 81 q 723 110 651 81 q 848 193 794 139 q 931 321 901 247 q 960 481 960 394 l 960 490 q 929 649 960 576 q 844 775 899 721 q 715 859 789 829 q 557 889 642 889 q 443 877 499 889 q 338 840 388 865 q 246 776 289 815 l 185 847 q 288 920 231 890 q 415 965 346 950 q 557 981 483 981 q 759 944 667 981 q 919 840 851 907 q 1025 683 988 774 q 1063 488 1063 593 q 1025 292 1063 382 q 920 134 988 201 q 763 29 853 67 q 568 -8 672 -8 z "},"Ʒ":{"ha":857,"x_min":44,"x_max":779,"o":"m 410 -8 q 197 26 294 -8 q 44 114 100 60 l 85 194 q 219 113 135 146 q 407 81 304 81 q 610 134 540 81 q 679 279 679 188 q 610 421 679 368 q 394 474 542 474 l 322 474 l 322 550 l 647 928 l 657 883 l 81 883 l 81 972 l 738 972 l 738 900 l 413 524 l 372 556 l 410 556 q 617 521 535 556 q 739 424 699 486 q 779 279 779 361 q 739 132 779 197 q 616 29 699 67 q 410 -8 533 -8 z "},"Ǯ":{"ha":857,"x_min":44,"x_max":779,"o":"m 410 -8 q 197 26 294 -8 q 44 114 100 60 l 85 194 q 219 113 135 146 q 407 81 304 81 q 610 134 540 81 q 679 279 679 188 q 610 421 679 368 q 394 474 542 474 l 322 474 l 322 550 l 647 928 l 657 883 l 81 883 l 81 972 l 738 972 l 738 900 l 413 524 l 372 556 l 410 556 q 617 521 535 556 q 739 424 699 486 q 779 279 779 361 q 739 132 779 197 q 616 29 699 67 q 410 -8 533 -8 m 363 1051 l 183 1224 l 275 1224 l 451 1078 l 374 1078 l 550 1224 l 642 1224 l 463 1051 l 363 1051 z "},"Ƹ":{"ha":861,"x_min":83,"x_max":817,"o":"m 451 -8 q 247 29 329 -8 q 124 132 165 67 q 83 279 83 197 q 124 424 83 361 q 247 521 165 486 q 451 556 328 556 l 489 556 l 454 525 l 126 901 l 126 972 l 781 972 l 781 885 l 207 885 l 215 929 l 544 553 l 544 474 l 467 474 q 253 421 322 474 q 183 279 183 368 q 253 134 183 188 q 454 81 324 81 q 643 113 558 81 q 776 194 728 146 l 817 114 q 664 26 763 60 q 451 -8 565 -8 z "},"F":{"ha":879,"x_min":158,"x_max":825,"o":"m 158 0 l 158 972 l 825 972 l 825 883 l 261 883 l 261 0 l 158 0 m 250 413 l 250 501 l 764 501 l 764 413 l 250 413 z "},"Ḟ":{"ha":879,"x_min":158,"x_max":825,"o":"m 158 0 l 158 972 l 825 972 l 825 883 l 261 883 l 261 0 l 158 0 m 250 413 l 250 501 l 764 501 l 764 413 l 250 413 m 489 1083 q 442 1103 461 1083 q 422 1150 422 1122 q 442 1198 422 1179 q 489 1217 461 1217 q 536 1198 517 1217 q 556 1150 556 1179 q 536 1103 556 1122 q 489 1083 517 1083 z "},"Ƒ":{"ha":897,"x_min":-37,"x_max":844,"o":"m -37 -254 l -7 -172 q 78 -186 36 -192 q 149 -149 121 -181 q 178 -57 178 -117 l 178 972 l 844 972 l 844 883 l 281 883 l 281 -57 q 251 -180 281 -131 q 174 -253 221 -229 q 71 -277 126 -278 q -37 -254 15 -276 m 269 413 l 269 501 l 783 501 l 783 413 l 269 413 z "},"G":{"ha":1074,"x_min":72,"x_max":947,"o":"m 585 -8 q 380 28 474 -8 q 217 132 286 65 q 110 289 149 199 q 72 486 72 379 q 110 683 72 593 q 218 840 149 774 q 381 944 288 907 q 586 981 475 981 q 790 946 697 981 q 947 840 882 911 l 883 775 q 749 863 822 836 q 590 889 675 889 q 424 859 500 889 q 292 774 349 829 q 205 647 236 719 q 174 486 174 574 q 205 326 174 400 q 292 198 236 253 q 424 113 349 143 q 589 83 500 83 q 747 108 672 83 q 883 193 821 133 l 942 115 q 779 23 872 54 q 585 -8 686 -8 m 942 115 l 843 128 l 843 486 l 942 486 l 942 115 z "},"Ǵ":{"ha":1074,"x_min":72,"x_max":947,"o":"m 585 -8 q 380 28 474 -8 q 217 132 286 65 q 110 289 149 199 q 72 486 72 379 q 110 683 72 593 q 218 840 149 774 q 381 944 288 907 q 586 981 475 981 q 790 946 697 981 q 947 840 882 911 l 883 775 q 749 863 822 836 q 590 889 675 889 q 424 859 500 889 q 292 774 349 829 q 205 647 236 719 q 174 486 174 574 q 205 326 174 400 q 292 198 236 253 q 424 113 349 143 q 589 83 500 83 q 747 108 672 83 q 883 193 821 133 l 942 115 q 779 23 872 54 q 585 -8 686 -8 m 942 115 l 843 128 l 843 486 l 942 486 l 942 115 m 476 1051 l 667 1224 l 799 1224 l 574 1051 l 476 1051 z "},"Ğ":{"ha":1074,"x_min":72,"x_max":947,"o":"m 585 -8 q 380 28 474 -8 q 217 132 286 65 q 110 289 149 199 q 72 486 72 379 q 110 683 72 593 q 218 840 149 774 q 381 944 288 907 q 586 981 475 981 q 790 946 697 981 q 947 840 882 911 l 883 775 q 749 863 822 836 q 590 889 675 889 q 424 859 500 889 q 292 774 349 829 q 205 647 236 719 q 174 486 174 574 q 205 326 174 400 q 292 198 236 253 q 424 113 349 143 q 589 83 500 83 q 747 108 672 83 q 883 193 821 133 l 942 115 q 779 23 872 54 q 585 -8 686 -8 m 942 115 l 843 128 l 843 486 l 942 486 l 942 115 m 567 1058 q 419 1106 479 1058 q 356 1238 358 1154 l 425 1238 q 469 1151 428 1183 q 567 1119 510 1119 q 666 1151 625 1119 q 708 1238 707 1183 l 778 1238 q 715 1106 775 1154 q 567 1058 654 1058 z "},"Ǧ":{"ha":1074,"x_min":72,"x_max":947,"o":"m 585 -8 q 380 28 474 -8 q 217 132 286 65 q 110 289 149 199 q 72 486 72 379 q 110 683 72 593 q 218 840 149 774 q 381 944 288 907 q 586 981 475 981 q 790 946 697 981 q 947 840 882 911 l 883 775 q 749 863 822 836 q 590 889 675 889 q 424 859 500 889 q 292 774 349 829 q 205 647 236 719 q 174 486 174 574 q 205 326 174 400 q 292 198 236 253 q 424 113 349 143 q 589 83 500 83 q 747 108 672 83 q 883 193 821 133 l 942 115 q 779 23 872 54 q 585 -8 686 -8 m 942 115 l 843 128 l 843 486 l 942 486 l 942 115 m 517 1051 l 338 1224 l 429 1224 l 606 1078 l 528 1078 l 704 1224 l 796 1224 l 617 1051 l 517 1051 z "},"Ĝ":{"ha":1074,"x_min":72,"x_max":947,"o":"m 585 -8 q 380 28 474 -8 q 217 132 286 65 q 110 289 149 199 q 72 486 72 379 q 110 683 72 593 q 218 840 149 774 q 381 944 288 907 q 586 981 475 981 q 790 946 697 981 q 947 840 882 911 l 883 775 q 749 863 822 836 q 590 889 675 889 q 424 859 500 889 q 292 774 349 829 q 205 647 236 719 q 174 486 174 574 q 205 326 174 400 q 292 198 236 253 q 424 113 349 143 q 589 83 500 83 q 747 108 672 83 q 883 193 821 133 l 942 115 q 779 23 872 54 q 585 -8 686 -8 m 942 115 l 843 128 l 843 486 l 942 486 l 942 115 m 338 1051 l 517 1224 l 617 1224 l 796 1051 l 704 1051 l 528 1199 l 606 1199 l 429 1051 l 338 1051 z "},"Ģ":{"ha":1074,"x_min":72,"x_max":947,"o":"m 585 -8 q 380 28 474 -8 q 217 132 286 65 q 110 289 149 199 q 72 486 72 379 q 110 683 72 593 q 218 840 149 774 q 381 944 288 907 q 586 981 475 981 q 790 946 697 981 q 947 840 882 911 l 883 775 q 749 863 822 836 q 590 889 675 889 q 424 859 500 889 q 292 774 349 829 q 205 647 236 719 q 174 486 174 574 q 205 326 174 400 q 292 198 236 253 q 424 113 349 143 q 589 83 500 83 q 747 108 672 83 q 883 193 821 133 l 942 115 q 779 23 872 54 q 585 -8 686 -8 m 942 115 l 843 128 l 843 486 l 942 486 l 942 115 m 513 -350 l 551 -200 l 561 -239 q 518 -224 535 -239 q 501 -185 501 -208 q 518 -146 501 -161 q 561 -131 535 -131 q 605 -147 589 -131 q 621 -185 621 -162 q 617 -214 621 -199 q 606 -247 614 -229 l 567 -350 l 513 -350 z "},"Ġ":{"ha":1074,"x_min":72,"x_max":947,"o":"m 585 -8 q 380 28 474 -8 q 217 132 286 65 q 110 289 149 199 q 72 486 72 379 q 110 683 72 593 q 218 840 149 774 q 381 944 288 907 q 586 981 475 981 q 790 946 697 981 q 947 840 882 911 l 883 775 q 749 863 822 836 q 590 889 675 889 q 424 859 500 889 q 292 774 349 829 q 205 647 236 719 q 174 486 174 574 q 205 326 174 400 q 292 198 236 253 q 424 113 349 143 q 589 83 500 83 q 747 108 672 83 q 883 193 821 133 l 942 115 q 779 23 872 54 q 585 -8 686 -8 m 942 115 l 843 128 l 843 486 l 942 486 l 942 115 m 567 1083 q 519 1103 539 1083 q 500 1150 500 1122 q 519 1198 500 1179 q 567 1217 539 1217 q 614 1198 594 1217 q 633 1150 633 1179 q 614 1103 633 1122 q 567 1083 594 1083 z "},"Ɠ":{"ha":1083,"x_min":72,"x_max":1144,"o":"m 585 -8 q 380 28 474 -8 q 217 132 286 65 q 110 289 149 199 q 72 486 72 379 q 110 683 72 593 q 218 840 149 774 q 381 944 288 907 q 586 981 475 981 q 790 946 697 981 q 947 840 882 911 l 883 775 q 749 863 822 836 q 590 889 675 889 q 424 859 500 889 q 292 774 349 829 q 205 647 236 719 q 174 486 174 574 q 205 326 174 400 q 292 198 236 253 q 424 113 349 143 q 589 83 500 83 q 747 108 672 83 q 883 193 821 133 l 942 115 q 779 23 872 54 q 585 -8 686 -8 m 942 115 l 843 128 l 843 486 l 942 486 l 942 115 m 854 840 l 854 939 q 880 1054 854 1007 q 947 1126 906 1101 q 1041 1153 989 1151 q 1144 1133 1093 1154 l 1117 1053 q 1036 1062 1075 1071 q 972 1022 997 1053 q 947 939 947 992 l 947 840 l 854 840 z "},"Ɂ":{"ha":807,"x_min":-14,"x_max":767,"o":"m 317 0 l 317 213 q 342 332 317 283 q 407 414 368 381 q 490 474 446 447 q 574 530 535 501 q 640 597 614 558 q 665 690 665 635 q 625 806 665 763 q 521 871 585 850 q 386 892 457 892 q 264 876 325 892 q 151 826 203 860 q 67 742 100 793 l -14 800 q 92 901 29 861 q 231 961 156 942 q 386 981 307 981 q 528 963 460 981 q 650 910 596 946 q 735 821 704 875 q 767 692 767 767 q 742 576 767 624 q 677 495 717 529 q 593 433 638 461 q 509 375 549 406 q 444 305 469 344 q 418 207 418 265 l 418 0 l 317 0 z "},"Ḡ":{"ha":1074,"x_min":72,"x_max":947,"o":"m 585 -8 q 380 28 474 -8 q 217 132 286 65 q 110 289 149 199 q 72 486 72 379 q 110 683 72 593 q 218 840 149 774 q 381 944 288 907 q 586 981 475 981 q 790 946 697 981 q 947 840 882 911 l 883 775 q 749 863 822 836 q 590 889 675 889 q 424 859 500 889 q 292 774 349 829 q 205 647 236 719 q 174 486 174 574 q 205 326 174 400 q 292 198 236 253 q 424 113 349 143 q 589 83 500 83 q 747 108 672 83 q 883 193 821 133 l 942 115 q 779 23 872 54 q 585 -8 686 -8 m 942 115 l 843 128 l 843 486 l 942 486 l 942 115 m 353 1104 l 353 1169 l 781 1169 l 781 1104 l 353 1104 z "},"Ǥ":{"ha":1107,"x_min":72,"x_max":1093,"o":"m 585 -8 q 380 28 474 -8 q 217 132 286 65 q 110 289 149 199 q 72 486 72 379 q 110 683 72 593 q 218 840 149 774 q 381 944 288 907 q 586 981 475 981 q 790 946 697 981 q 947 840 882 911 l 883 775 q 749 863 822 836 q 590 889 675 889 q 424 859 500 889 q 292 774 349 829 q 205 647 236 719 q 174 486 174 574 q 205 326 174 400 q 292 198 236 253 q 424 113 349 143 q 589 83 500 83 q 747 108 672 83 q 883 193 821 133 l 942 115 q 779 23 872 54 q 585 -8 686 -8 m 624 297 l 624 379 l 1093 379 l 1093 297 l 624 297 m 942 115 l 843 128 l 843 486 l 942 486 l 942 115 z "},"Ȝ":{"ha":825,"x_min":-28,"x_max":747,"o":"m -21 -131 l -28 -43 q 249 -1 125 -28 q 460 66 372 26 q 596 159 549 106 q 643 281 643 213 q 604 382 643 344 q 499 432 565 419 q 346 429 432 444 l 179 397 l 172 483 l 315 511 q 458 552 393 526 q 560 619 522 578 q 599 719 599 661 q 578 800 599 763 q 513 863 557 838 q 396 892 468 888 q 287 885 347 894 q 159 851 226 875 q 21 790 92 828 l -15 867 q 127 934 54 908 q 271 971 200 960 q 404 981 342 982 q 576 940 511 975 q 672 850 642 904 q 703 738 703 796 q 659 607 703 661 q 542 519 615 553 q 375 468 468 486 l 372 492 q 564 491 479 513 q 698 415 649 469 q 747 276 747 360 q 690 120 747 190 q 531 -1 633 50 q 288 -84 429 -51 q -21 -131 147 -117 z "},"H":{"ha":1129,"x_min":158,"x_max":971,"o":"m 869 0 l 869 972 l 971 972 l 971 0 l 869 0 m 158 0 l 158 972 l 261 972 l 261 0 l 158 0 m 250 449 l 250 539 l 879 539 l 879 449 l 250 449 z "},"Ħ":{"ha":1143,"x_min":15,"x_max":1129,"o":"m 876 0 l 876 972 l 978 972 l 978 0 l 876 0 m 165 0 l 165 972 l 268 972 l 268 0 l 165 0 m 257 449 l 257 539 l 886 539 l 886 449 l 257 449 m 15 713 l 15 794 l 1129 794 l 1129 713 l 15 713 z "},"Ḫ":{"ha":1129,"x_min":158,"x_max":971,"o":"m 869 0 l 869 972 l 971 972 l 971 0 l 869 0 m 158 0 l 158 972 l 261 972 l 261 0 l 158 0 m 250 449 l 250 539 l 879 539 l 879 449 l 250 449 m 564 -269 q 416 -222 476 -269 q 353 -90 356 -174 l 422 -90 q 466 -176 425 -144 q 564 -208 507 -208 q 663 -176 622 -208 q 706 -90 704 -144 l 775 -90 q 712 -222 772 -174 q 564 -269 651 -269 z "},"Ȟ":{"ha":1129,"x_min":158,"x_max":971,"o":"m 869 0 l 869 972 l 971 972 l 971 0 l 869 0 m 158 0 l 158 972 l 261 972 l 261 0 l 158 0 m 250 449 l 250 539 l 879 539 l 879 449 l 250 449 m 514 1051 l 335 1224 l 426 1224 l 603 1078 l 525 1078 l 701 1224 l 793 1224 l 614 1051 l 514 1051 z "},"Ḩ":{"ha":1129,"x_min":85,"x_max":971,"o":"m 869 0 l 869 972 l 971 972 l 971 0 l 869 0 m 201 -306 q 138 -297 167 -306 q 85 -274 110 -289 l 108 -221 q 152 -240 129 -233 q 200 -247 175 -247 q 264 -230 242 -247 q 286 -182 286 -212 q 265 -136 286 -154 q 200 -118 243 -118 l 157 -118 l 186 6 l 246 6 l 228 -72 q 326 -108 294 -76 q 358 -185 358 -139 q 315 -273 358 -240 q 201 -306 271 -306 m 158 0 l 158 972 l 261 972 l 261 0 l 158 0 m 250 449 l 250 539 l 879 539 l 879 449 l 250 449 z "},"Ĥ":{"ha":1129,"x_min":158,"x_max":971,"o":"m 869 0 l 869 972 l 971 972 l 971 0 l 869 0 m 158 0 l 158 972 l 261 972 l 261 0 l 158 0 m 250 449 l 250 539 l 879 539 l 879 449 l 250 449 m 335 1051 l 514 1224 l 614 1224 l 793 1051 l 701 1051 l 525 1199 l 603 1199 l 426 1051 l 335 1051 z "},"Ḧ":{"ha":1129,"x_min":158,"x_max":971,"o":"m 869 0 l 869 972 l 971 972 l 971 0 l 869 0 m 158 0 l 158 972 l 261 972 l 261 0 l 158 0 m 250 449 l 250 539 l 879 539 l 879 449 l 250 449 m 688 1083 q 646 1100 664 1083 q 628 1143 628 1117 q 646 1186 628 1169 q 688 1203 664 1203 q 730 1186 713 1203 q 747 1143 747 1169 q 730 1100 747 1117 q 688 1083 713 1083 m 440 1083 q 398 1100 415 1083 q 381 1143 381 1117 q 398 1186 381 1169 q 440 1203 415 1203 q 482 1186 464 1203 q 500 1143 500 1169 q 482 1100 500 1117 q 440 1083 464 1083 z "},"Ḣ":{"ha":1129,"x_min":158,"x_max":971,"o":"m 869 0 l 869 972 l 971 972 l 971 0 l 869 0 m 158 0 l 158 972 l 261 972 l 261 0 l 158 0 m 250 449 l 250 539 l 879 539 l 879 449 l 250 449 m 564 1083 q 517 1103 536 1083 q 497 1150 497 1122 q 517 1198 497 1179 q 564 1217 536 1217 q 611 1198 592 1217 q 631 1150 631 1179 q 611 1103 631 1122 q 564 1083 592 1083 z "},"Ḥ":{"ha":1129,"x_min":158,"x_max":971,"o":"m 869 0 l 869 972 l 971 972 l 971 0 l 869 0 m 158 0 l 158 972 l 261 972 l 261 0 l 158 0 m 250 449 l 250 539 l 879 539 l 879 449 l 250 449 m 564 -253 q 517 -233 536 -253 q 497 -186 497 -214 q 517 -138 497 -157 q 564 -119 536 -119 q 611 -138 592 -119 q 631 -186 631 -157 q 611 -233 631 -214 q 564 -253 592 -253 z "},"Ꜧ":{"ha":1138,"x_min":164,"x_max":972,"o":"m 604 -229 l 636 -154 q 714 -187 674 -181 q 790 -183 754 -194 q 848 -143 825 -172 q 871 -65 871 -114 l 871 972 l 972 972 l 972 -72 q 935 -197 972 -149 q 842 -263 899 -244 q 722 -274 785 -282 q 604 -229 658 -265 m 164 0 l 164 972 l 267 972 l 267 0 l 164 0 m 253 447 l 253 538 l 886 538 l 886 447 l 253 447 z "},"Ɦ":{"ha":1347,"x_min":46,"x_max":1189,"o":"m 133 560 q 67 660 89 606 q 48 770 46 715 q 76 871 50 825 q 157 944 103 917 q 293 972 211 972 l 386 972 l 386 883 l 293 883 q 199 858 233 883 q 153 793 164 833 q 154 707 142 753 q 203 617 167 661 l 133 560 m 1086 0 l 1086 972 l 1189 972 l 1189 0 l 1086 0 m 376 0 l 376 972 l 478 972 l 478 0 l 376 0 m 467 449 l 467 539 l 1097 539 l 1097 449 l 467 449 z "},"Ɥ":{"ha":1038,"x_min":78,"x_max":879,"o":"m 879 972 l 879 0 l 781 0 l 781 563 l 807 546 q 673 370 765 426 q 451 314 581 314 q 178 417 279 314 q 78 715 78 519 l 78 972 l 181 972 l 181 718 q 258 484 181 563 q 471 406 335 406 q 694 488 611 406 q 776 742 776 569 l 776 972 l 879 972 z "},"I":{"ha":419,"x_min":158,"x_max":261,"o":"m 158 0 l 158 972 l 261 972 l 261 0 l 158 0 z "},"Ĳ":{"ha":997,"x_min":136,"x_max":847,"o":"m 454 -8 q 279 18 361 -8 q 136 88 197 44 l 178 169 q 308 106 236 128 q 457 83 379 83 q 669 165 593 83 q 744 415 744 247 l 744 972 l 847 972 l 847 419 q 798 183 847 278 q 661 40 749 88 q 454 -8 574 -8 m 150 419 l 150 972 l 253 972 l 253 419 l 150 419 z "},"Í":{"ha":419,"x_min":119,"x_max":442,"o":"m 158 0 l 158 972 l 261 972 l 261 0 l 158 0 m 119 1051 l 310 1224 l 442 1224 l 217 1051 l 119 1051 z "},"Ĭ":{"ha":419,"x_min":-1,"x_max":421,"o":"m 158 0 l 158 972 l 261 972 l 261 0 l 158 0 m 210 1058 q 62 1106 122 1058 q -1 1238 1 1154 l 68 1238 q 112 1151 71 1183 q 210 1119 153 1119 q 309 1151 268 1119 q 351 1238 350 1183 l 421 1238 q 358 1106 418 1154 q 210 1058 297 1058 z "},"Ǐ":{"ha":419,"x_min":-19,"x_max":439,"o":"m 158 0 l 158 972 l 261 972 l 261 0 l 158 0 m 160 1051 l -19 1224 l 72 1224 l 249 1078 l 171 1078 l 347 1224 l 439 1224 l 260 1051 l 160 1051 z "},"Î":{"ha":419,"x_min":-19,"x_max":439,"o":"m 158 0 l 158 972 l 261 972 l 261 0 l 158 0 m -19 1051 l 160 1224 l 260 1224 l 439 1051 l 347 1051 l 171 1199 l 249 1199 l 72 1051 l -19 1051 z "},"Ȉ":{"ha":419,"x_min":-103,"x_max":367,"o":"m 158 0 l 158 972 l 261 972 l 261 0 l 158 0 m 279 1051 l 122 1224 l 232 1224 l 367 1051 l 279 1051 m 53 1051 l -103 1224 l 7 1224 l 140 1051 l 53 1051 z "},"Ï":{"ha":419,"x_min":26,"x_max":393,"o":"m 158 0 l 158 972 l 261 972 l 261 0 l 158 0 m 333 1083 q 292 1100 310 1083 q 274 1143 274 1117 q 292 1186 274 1169 q 333 1203 310 1203 q 376 1186 358 1203 q 393 1143 393 1169 q 376 1100 393 1117 q 333 1083 358 1083 m 86 1083 q 44 1100 61 1083 q 26 1143 26 1117 q 44 1186 26 1169 q 86 1203 61 1203 q 128 1186 110 1203 q 146 1143 146 1169 q 128 1100 146 1117 q 86 1083 110 1083 z "},"Ḯ":{"ha":419,"x_min":29,"x_max":413,"o":"m 158 0 l 158 972 l 261 972 l 261 0 l 158 0 m 332 1076 q 291 1094 308 1076 q 274 1135 274 1111 q 291 1176 274 1160 q 332 1193 308 1193 q 373 1176 356 1193 q 390 1135 390 1160 q 373 1094 390 1111 q 332 1076 356 1076 m 88 1076 q 47 1094 65 1076 q 29 1135 29 1111 q 47 1176 29 1160 q 88 1193 65 1193 q 129 1176 113 1193 q 146 1135 146 1160 q 129 1094 146 1111 q 88 1076 113 1076 m 125 1235 l 293 1385 l 413 1385 l 213 1235 l 125 1235 z "},"İ":{"ha":419,"x_min":143,"x_max":276,"o":"m 158 0 l 158 972 l 261 972 l 261 0 l 158 0 m 210 1083 q 163 1103 182 1083 q 143 1150 143 1122 q 163 1198 143 1179 q 210 1217 182 1217 q 257 1198 238 1217 q 276 1150 276 1179 q 257 1103 276 1122 q 210 1083 238 1083 z "},"Ị":{"ha":419,"x_min":143,"x_max":276,"o":"m 158 0 l 158 972 l 261 972 l 261 0 l 158 0 m 210 -253 q 163 -233 182 -253 q 143 -186 143 -214 q 163 -138 143 -157 q 210 -119 182 -119 q 257 -138 238 -119 q 276 -186 276 -157 q 257 -233 276 -214 q 210 -253 238 -253 z "},"Ì":{"ha":419,"x_min":-22,"x_max":300,"o":"m 158 0 l 158 972 l 261 972 l 261 0 l 158 0 m 203 1051 l -22 1224 l 110 1224 l 300 1051 l 203 1051 z "},"Ỉ":{"ha":419,"x_min":74,"x_max":321,"o":"m 158 0 l 158 972 l 261 972 l 261 0 l 158 0 m 210 1019 l 175 1063 q 237 1106 217 1082 q 257 1161 257 1129 q 236 1210 257 1190 q 181 1229 215 1229 q 97 1203 138 1229 l 74 1251 q 128 1278 97 1269 q 189 1288 160 1288 q 258 1273 228 1288 q 304 1232 288 1258 q 321 1168 321 1206 q 294 1083 321 1119 q 210 1019 267 1046 z "},"Ȋ":{"ha":419,"x_min":-1,"x_max":421,"o":"m 158 0 l 158 972 l 261 972 l 261 0 l 158 0 m -1 1051 q 62 1182 1 1135 q 210 1229 122 1229 q 358 1182 297 1229 q 421 1051 418 1135 l 351 1051 q 309 1138 350 1106 q 210 1169 268 1169 q 112 1138 153 1169 q 68 1051 71 1106 l -1 1051 z "},"Ī":{"ha":419,"x_min":35,"x_max":385,"o":"m 158 0 l 158 972 l 261 972 l 261 0 l 158 0 m 35 1104 l 35 1169 l 385 1169 l 385 1104 l 35 1104 z "},"Į":{"ha":419,"x_min":108,"x_max":314,"o":"m 158 0 l 158 972 l 261 972 l 261 0 l 158 0 m 231 -306 q 144 -273 179 -306 q 108 -181 108 -240 q 134 -78 108 -131 q 217 26 160 -25 l 260 0 q 199 -90 217 -47 q 181 -171 181 -133 q 199 -226 181 -206 q 242 -246 217 -246 q 293 -226 269 -246 l 313 -278 q 231 -306 281 -306 z "},"Ɩ":{"ha":514,"x_min":149,"x_max":524,"o":"m 364 -8 l 364 -8 q 259 15 308 -8 q 179 86 210 38 q 149 208 149 135 l 149 972 l 251 972 l 251 210 q 288 113 251 144 q 375 81 325 81 q 433 90 404 81 q 489 117 463 99 l 524 42 q 447 4 489 17 q 364 -8 406 -8 z "},"Ɨ":{"ha":464,"x_min":31,"x_max":433,"o":"m 181 0 l 181 972 l 283 972 l 283 0 l 181 0 m 31 454 l 31 538 l 433 538 l 433 454 l 31 454 z "},"Ĩ":{"ha":419,"x_min":17,"x_max":403,"o":"m 158 0 l 158 972 l 261 972 l 261 0 l 158 0 m 292 1056 q 235 1071 257 1056 q 197 1106 213 1086 q 166 1140 181 1125 q 131 1156 151 1156 q 93 1131 106 1156 q 79 1061 81 1106 l 17 1061 q 45 1178 18 1135 q 126 1222 72 1222 q 184 1207 163 1222 q 222 1172 206 1192 q 254 1137 239 1151 q 290 1122 269 1122 q 326 1146 314 1122 q 340 1213 339 1169 l 403 1213 q 374 1099 401 1143 q 292 1056 346 1056 z "},"Ḭ":{"ha":453,"x_min":31,"x_max":417,"o":"m 158 0 l 158 972 l 261 972 l 261 0 l 158 0 m 306 -256 q 249 -240 271 -256 q 210 -206 226 -225 q 180 -171 194 -186 q 144 -156 165 -156 q 107 -181 119 -156 q 93 -250 94 -206 l 31 -250 q 59 -133 32 -176 q 140 -89 86 -89 q 198 -104 176 -89 q 236 -140 219 -119 q 268 -174 253 -160 q 304 -189 283 -189 q 340 -165 328 -189 q 354 -99 353 -142 l 417 -99 q 388 -212 415 -168 q 306 -256 360 -256 z "},"J":{"ha":696,"x_min":-6,"x_max":546,"o":"m 263 -8 q 109 28 181 -8 q -6 131 38 64 l 54 200 q 147 111 94 142 q 264 81 200 81 q 444 294 444 81 l 444 883 l 89 883 l 89 972 l 546 972 l 546 299 q 474 68 546 144 q 263 -8 403 -8 z "},"Ĵ":{"ha":696,"x_min":-6,"x_max":547,"o":"m 263 -8 q 109 28 181 -8 q -6 131 38 64 l 54 200 q 147 111 94 142 q 264 81 200 81 q 444 294 444 81 l 444 883 l 89 883 l 89 972 l 546 972 l 546 299 q 474 68 546 144 q 263 -8 403 -8 m 89 1051 l 268 1224 l 368 1224 l 547 1051 l 456 1051 l 279 1199 l 357 1199 l 181 1051 l 89 1051 z "},"Ʝ":{"ha":694,"x_min":21,"x_max":656,"o":"m 256 -8 q 138 13 192 -8 q 53 78 85 35 q 21 181 21 121 q 47 274 21 229 q 132 347 72 318 q 293 375 192 375 l 656 375 l 656 292 l 293 292 q 184 274 222 292 q 131 231 146 257 q 117 179 117 204 q 135 124 117 147 q 184 87 153 100 q 254 74 215 74 q 341 93 299 74 q 411 156 383 113 q 439 274 439 200 l 442 883 l 86 883 l 86 972 l 543 972 l 542 274 q 499 111 542 174 q 390 20 456 49 q 256 -8 325 -8 z "},"Ɉ":{"ha":701,"x_min":-6,"x_max":697,"o":"m 263 -8 q 109 28 181 -8 q -6 131 38 64 l 54 200 q 147 111 94 142 q 264 81 200 81 q 444 294 444 81 l 444 883 l 89 883 l 89 972 l 546 972 l 546 299 q 474 68 546 144 q 263 -8 403 -8 m 224 454 l 224 538 l 697 538 l 697 454 l 224 454 z "},"K":{"ha":988,"x_min":158,"x_max":979,"o":"m 247 242 l 243 367 l 832 972 l 950 972 l 521 522 l 463 460 l 247 242 m 158 0 l 158 972 l 261 972 l 261 0 l 158 0 m 857 0 l 438 483 l 507 558 l 979 0 l 857 0 z "},"Ḱ":{"ha":988,"x_min":158,"x_max":979,"o":"m 247 242 l 243 367 l 832 972 l 950 972 l 521 522 l 463 460 l 247 242 m 158 0 l 158 972 l 261 972 l 261 0 l 158 0 m 857 0 l 438 483 l 507 558 l 979 0 l 857 0 m 428 1051 l 618 1224 l 750 1224 l 525 1051 l 428 1051 z "},"Ǩ":{"ha":988,"x_min":158,"x_max":979,"o":"m 247 242 l 243 367 l 832 972 l 950 972 l 521 522 l 463 460 l 247 242 m 158 0 l 158 972 l 261 972 l 261 0 l 158 0 m 857 0 l 438 483 l 507 558 l 979 0 l 857 0 m 468 1051 l 289 1224 l 381 1224 l 557 1078 l 479 1078 l 656 1224 l 747 1224 l 568 1051 l 468 1051 z "},"Ķ":{"ha":988,"x_min":158,"x_max":979,"o":"m 247 242 l 243 367 l 832 972 l 950 972 l 521 522 l 463 460 l 247 242 m 158 0 l 158 972 l 261 972 l 261 0 l 158 0 m 857 0 l 438 483 l 507 558 l 979 0 l 857 0 m 469 -350 l 508 -200 l 518 -239 q 475 -224 492 -239 q 458 -185 458 -208 q 475 -146 458 -161 q 518 -131 492 -131 q 562 -147 546 -131 q 578 -185 578 -162 q 574 -214 578 -199 q 563 -247 571 -229 l 524 -350 l 469 -350 z "},"Ḳ":{"ha":988,"x_min":158,"x_max":979,"o":"m 247 242 l 243 367 l 832 972 l 950 972 l 521 522 l 463 460 l 247 242 m 158 0 l 158 972 l 261 972 l 261 0 l 158 0 m 857 0 l 438 483 l 507 558 l 979 0 l 857 0 m 518 -253 q 471 -233 490 -253 q 451 -186 451 -214 q 471 -138 451 -157 q 518 -119 490 -119 q 565 -138 546 -119 q 585 -186 585 -157 q 565 -233 585 -214 q 518 -253 546 -253 z "},"Ƙ":{"ha":971,"x_min":158,"x_max":1000,"o":"m 247 257 l 243 385 l 711 949 q 810 1025 758 1006 q 910 1034 861 1044 q 1000 990 960 1024 l 950 921 q 866 949 914 953 q 772 892 818 946 l 247 257 m 158 0 l 158 972 l 261 972 l 261 0 l 158 0 m 857 0 l 428 494 l 497 569 l 979 0 l 857 0 z "},"Ḵ":{"ha":988,"x_min":158,"x_max":979,"o":"m 247 242 l 243 367 l 832 972 l 950 972 l 521 522 l 463 460 l 247 242 m 158 0 l 158 972 l 261 972 l 261 0 l 158 0 m 857 0 l 438 483 l 507 558 l 979 0 l 857 0 m 304 -221 l 304 -156 l 732 -156 l 732 -221 l 304 -221 z "},"Ꝁ":{"ha":988,"x_min":8,"x_max":979,"o":"m 247 242 l 243 367 l 832 972 l 950 972 l 247 242 m 158 0 l 158 972 l 261 972 l 261 0 l 158 0 m 857 0 l 438 483 l 507 558 l 979 0 l 857 0 m 8 754 l 8 835 l 481 835 l 481 754 l 8 754 z "},"L":{"ha":818,"x_min":158,"x_max":806,"o":"m 158 0 l 158 972 l 261 972 l 261 89 l 806 89 l 806 0 l 158 0 z "},"Ǉ":{"ha":1518,"x_min":158,"x_max":1368,"o":"m 158 0 l 158 972 l 261 972 l 261 89 l 806 89 l 806 0 l 158 0 m 1085 -8 q 931 28 1003 -8 q 817 131 860 64 l 876 200 q 969 111 917 142 q 1086 81 1022 81 q 1267 294 1267 81 l 1267 883 l 911 883 l 911 972 l 1368 972 l 1368 299 q 1297 68 1368 144 q 1085 -8 1225 -8 z "},"Ĺ":{"ha":818,"x_min":119,"x_max":806,"o":"m 158 0 l 158 972 l 261 972 l 261 89 l 806 89 l 806 0 l 158 0 m 119 1051 l 310 1224 l 442 1224 l 217 1051 l 119 1051 z "},"Ƚ":{"ha":831,"x_min":19,"x_max":817,"o":"m 171 0 l 171 972 l 272 972 l 272 89 l 817 89 l 817 0 l 171 0 m 19 454 l 19 538 l 493 538 l 493 454 l 19 454 z "},"Ɬ":{"ha":882,"x_min":-19,"x_max":869,"o":"m 222 0 l 222 972 l 325 972 l 325 89 l 869 89 l 869 0 l 222 0 m 181 456 q 65 478 108 456 q 1 537 21 501 q -19 611 -19 572 q 0 683 -19 653 q 51 731 19 714 q 121 749 83 749 q 196 727 160 749 q 256 660 232 706 q 279 538 279 614 l 222 538 q 190 643 222 611 q 125 675 158 675 q 81 657 97 675 q 65 615 65 639 q 91 563 65 588 q 182 538 117 538 l 636 538 l 638 456 l 181 456 z "},"Ľ":{"ha":818,"x_min":158,"x_max":806,"o":"m 158 0 l 158 972 l 261 972 l 261 89 l 806 89 l 806 0 l 158 0 m 611 750 l 611 1011 l 694 1011 l 682 750 l 611 750 z "},"Ḽ":{"ha":818,"x_min":158,"x_max":806,"o":"m 158 0 l 158 972 l 261 972 l 261 89 l 806 89 l 806 0 l 158 0 m 253 -275 l 432 -103 l 532 -103 l 711 -275 l 619 -275 l 443 -128 l 521 -128 l 344 -275 l 253 -275 z "},"Ļ":{"ha":818,"x_min":158,"x_max":806,"o":"m 158 0 l 158 972 l 261 972 l 261 89 l 806 89 l 806 0 l 158 0 m 433 -350 l 472 -200 l 482 -239 q 439 -224 456 -239 q 422 -185 422 -208 q 439 -146 422 -161 q 482 -131 456 -131 q 526 -147 510 -131 q 542 -185 542 -162 q 538 -214 542 -199 q 526 -247 535 -229 l 488 -350 l 433 -350 z "},"Ŀ":{"ha":818,"x_min":158,"x_max":806,"o":"m 158 0 l 158 972 l 261 972 l 261 89 l 806 89 l 806 0 l 158 0 m 644 483 q 597 503 617 483 q 576 553 576 524 q 597 603 576 583 q 644 624 617 624 q 693 603 674 624 q 713 553 713 583 q 693 503 713 524 q 644 483 674 483 z "},"Ḷ":{"ha":818,"x_min":158,"x_max":806,"o":"m 158 0 l 158 972 l 261 972 l 261 89 l 806 89 l 806 0 l 158 0 m 482 -253 q 435 -233 454 -253 q 415 -186 415 -214 q 435 -138 415 -157 q 482 -119 454 -119 q 529 -138 510 -119 q 549 -186 549 -157 q 529 -233 549 -214 q 482 -253 510 -253 z "},"Ḹ":{"ha":818,"x_min":-4,"x_max":806,"o":"m 158 0 l 158 972 l 261 972 l 261 89 l 806 89 l 806 0 l 158 0 m 482 -253 q 435 -233 454 -253 q 415 -186 415 -214 q 435 -138 415 -157 q 482 -119 454 -119 q 529 -138 510 -119 q 549 -186 549 -157 q 529 -233 549 -214 q 482 -253 510 -253 m -4 1104 l -4 1169 l 424 1169 l 424 1104 l -4 1104 z "},"Ⱡ":{"ha":864,"x_min":53,"x_max":850,"o":"m 204 0 l 204 972 l 306 972 l 306 89 l 850 89 l 850 0 l 204 0 m 53 393 l 53 474 l 526 474 l 526 393 l 53 393 m 53 604 l 53 685 l 526 685 l 526 604 l 53 604 z "},"ǈ":{"ha":1199,"x_min":158,"x_max":1085,"o":"m 158 0 l 158 972 l 261 972 l 261 89 l 806 89 l 806 0 l 158 0 m 847 -276 q 762 -265 803 -276 q 693 -229 721 -253 l 728 -154 q 842 -192 772 -192 q 931 -157 900 -192 q 963 -54 963 -122 l 963 729 l 1061 729 l 1061 -54 q 1006 -216 1061 -156 q 847 -276 951 -276 m 1013 890 q 961 911 982 890 q 940 961 940 932 q 961 1010 940 990 q 1013 1031 982 1031 q 1064 1011 1043 1031 q 1085 963 1085 992 q 1065 911 1085 932 q 1013 890 1044 890 z "},"Ḻ":{"ha":818,"x_min":158,"x_max":806,"o":"m 158 0 l 158 972 l 261 972 l 261 89 l 806 89 l 806 0 l 158 0 m 268 -221 l 268 -156 l 696 -156 l 696 -221 l 268 -221 z "},"Ɫ":{"ha":828,"x_min":-7,"x_max":814,"o":"m 168 0 l 168 972 l 269 972 l 269 89 l 814 89 l 814 0 l 168 0 m 349 458 q 285 472 317 458 q 225 505 253 486 q 171 538 197 524 q 122 553 144 553 q 73 528 92 553 q 53 464 54 503 l -7 464 q 29 575 -4 533 q 117 617 63 617 q 181 602 150 617 q 241 569 213 588 q 295 536 269 550 q 344 522 321 522 q 393 547 374 522 q 414 608 413 571 l 474 608 q 438 500 472 542 q 349 458 404 458 z "},"Ł":{"ha":825,"x_min":26,"x_max":813,"o":"m 165 0 l 165 972 l 268 972 l 268 89 l 813 89 l 813 0 l 165 0 m 72 340 l 26 399 l 432 704 l 479 644 l 72 340 z "},"M":{"ha":1326,"x_min":158,"x_max":1168,"o":"m 158 0 l 158 972 l 243 972 l 688 214 l 643 214 l 1083 972 l 1168 972 l 1168 0 l 1069 0 l 1069 818 l 1093 818 l 688 124 l 639 124 l 231 818 l 257 818 l 257 0 l 158 0 z "},"Ḿ":{"ha":1326,"x_min":158,"x_max":1168,"o":"m 158 0 l 158 972 l 243 972 l 688 214 l 643 214 l 1083 972 l 1168 972 l 1168 0 l 1069 0 l 1069 818 l 1093 818 l 688 124 l 639 124 l 231 818 l 257 818 l 257 0 l 158 0 m 572 1051 l 763 1224 l 894 1224 l 669 1051 l 572 1051 z "},"Ṁ":{"ha":1326,"x_min":158,"x_max":1168,"o":"m 158 0 l 158 972 l 243 972 l 688 214 l 643 214 l 1083 972 l 1168 972 l 1168 0 l 1069 0 l 1069 818 l 1093 818 l 688 124 l 639 124 l 231 818 l 257 818 l 257 0 l 158 0 m 663 1083 q 615 1103 635 1083 q 596 1150 596 1122 q 615 1198 596 1179 q 663 1217 635 1217 q 710 1198 690 1217 q 729 1150 729 1179 q 710 1103 729 1122 q 663 1083 690 1083 z "},"Ṃ":{"ha":1326,"x_min":158,"x_max":1168,"o":"m 158 0 l 158 972 l 243 972 l 688 214 l 643 214 l 1083 972 l 1168 972 l 1168 0 l 1069 0 l 1069 818 l 1093 818 l 688 124 l 639 124 l 231 818 l 257 818 l 257 0 l 158 0 m 663 -253 q 615 -233 635 -253 q 596 -186 596 -214 q 615 -138 596 -157 q 663 -119 635 -119 q 710 -138 690 -119 q 729 -186 729 -157 q 710 -233 729 -214 q 663 -253 690 -253 z "},"Ɱ":{"ha":1344,"x_min":176,"x_max":1185,"o":"m 824 -228 l 860 -151 q 936 -185 897 -176 q 1009 -182 975 -193 q 1065 -140 1043 -171 q 1086 -56 1086 -108 l 1086 818 l 1111 818 l 704 124 l 656 124 l 247 818 l 275 818 l 275 0 l 176 0 l 176 972 l 260 972 l 704 214 l 660 214 l 1100 972 l 1185 972 l 1185 -60 q 1161 -172 1185 -126 q 1099 -244 1138 -218 q 1012 -276 1060 -271 q 915 -269 964 -282 q 824 -228 865 -257 z "},"Ɯ":{"ha":1703,"x_min":150,"x_max":1543,"o":"m 1543 972 l 1543 0 l 1444 0 l 1444 203 l 1457 189 q 1338 42 1421 92 q 1139 -8 1254 -8 q 926 50 1011 -8 q 814 213 842 108 l 840 211 q 715 47 804 103 q 503 -8 625 -8 q 245 85 340 -8 q 150 365 150 179 l 150 972 l 253 972 l 253 368 q 326 153 253 224 q 518 83 399 83 q 722 156 646 83 q 797 390 797 229 l 797 972 l 899 972 l 899 368 q 969 153 899 224 q 1161 83 1040 83 q 1308 115 1246 83 q 1406 215 1371 147 q 1442 390 1442 283 l 1442 972 l 1543 972 z "},"N":{"ha":1129,"x_min":158,"x_max":971,"o":"m 158 0 l 158 972 l 243 972 l 914 128 l 869 128 l 869 972 l 971 972 l 971 0 l 886 0 l 217 844 l 261 844 l 261 0 l 158 0 z "},"Ǌ":{"ha":1826,"x_min":158,"x_max":1675,"o":"m 158 0 l 158 972 l 243 972 l 914 128 l 869 128 l 869 972 l 971 972 l 971 0 l 886 0 l 217 844 l 261 844 l 261 0 l 158 0 m 1392 -8 q 1238 28 1310 -8 q 1124 131 1167 64 l 1183 200 q 1276 111 1224 142 q 1393 81 1329 81 q 1574 294 1574 81 l 1574 883 l 1218 883 l 1218 972 l 1675 972 l 1675 299 q 1603 68 1675 144 q 1392 -8 1532 -8 z "},"Ń":{"ha":1129,"x_min":158,"x_max":971,"o":"m 158 0 l 158 972 l 243 972 l 914 128 l 869 128 l 869 972 l 971 972 l 971 0 l 886 0 l 217 844 l 261 844 l 261 0 l 158 0 m 474 1051 l 664 1224 l 796 1224 l 571 1051 l 474 1051 z "},"Ň":{"ha":1129,"x_min":158,"x_max":971,"o":"m 158 0 l 158 972 l 243 972 l 914 128 l 869 128 l 869 972 l 971 972 l 971 0 l 886 0 l 217 844 l 261 844 l 261 0 l 158 0 m 514 1051 l 335 1224 l 426 1224 l 603 1078 l 525 1078 l 701 1224 l 793 1224 l 614 1051 l 514 1051 z "},"Ṋ":{"ha":1129,"x_min":158,"x_max":971,"o":"m 158 0 l 158 972 l 243 972 l 914 128 l 869 128 l 869 972 l 971 972 l 971 0 l 886 0 l 217 844 l 261 844 l 261 0 l 158 0 m 336 -317 l 515 -144 l 615 -144 l 794 -317 l 703 -317 l 526 -169 l 604 -169 l 428 -317 l 336 -317 z "},"Ņ":{"ha":1129,"x_min":158,"x_max":971,"o":"m 158 0 l 158 972 l 243 972 l 914 128 l 869 128 l 869 972 l 971 972 l 971 0 l 886 0 l 217 844 l 261 844 l 261 0 l 158 0 m 515 -350 l 554 -200 l 564 -239 q 521 -224 538 -239 q 504 -185 504 -208 q 521 -146 504 -161 q 564 -131 538 -131 q 608 -147 592 -131 q 624 -185 624 -162 q 620 -214 624 -199 q 608 -247 617 -229 l 569 -350 l 515 -350 z "},"Ṅ":{"ha":1129,"x_min":158,"x_max":971,"o":"m 158 0 l 158 972 l 243 972 l 914 128 l 869 128 l 869 972 l 971 972 l 971 0 l 886 0 l 217 844 l 261 844 l 261 0 l 158 0 m 564 1083 q 517 1103 536 1083 q 497 1150 497 1122 q 517 1198 497 1179 q 564 1217 536 1217 q 611 1198 592 1217 q 631 1150 631 1179 q 611 1103 631 1122 q 564 1083 592 1083 z "},"Ṇ":{"ha":1129,"x_min":158,"x_max":971,"o":"m 158 0 l 158 972 l 243 972 l 914 128 l 869 128 l 869 972 l 971 972 l 971 0 l 886 0 l 217 844 l 261 844 l 261 0 l 158 0 m 564 -253 q 517 -233 536 -253 q 497 -186 497 -214 q 517 -138 497 -157 q 564 -119 536 -119 q 611 -138 592 -119 q 631 -186 631 -157 q 611 -233 631 -214 q 564 -253 592 -253 z "},"Ǹ":{"ha":1129,"x_min":158,"x_max":971,"o":"m 158 0 l 158 972 l 243 972 l 914 128 l 869 128 l 869 972 l 971 972 l 971 0 l 886 0 l 217 844 l 261 844 l 261 0 l 158 0 m 557 1051 l 332 1224 l 464 1224 l 654 1051 l 557 1051 z "},"Ɲ":{"ha":1129,"x_min":-37,"x_max":979,"o":"m -37 -254 l -7 -172 q 78 -186 36 -192 q 149 -149 121 -181 q 178 -57 178 -117 l 178 972 l 276 972 l 276 732 l 250 749 q 384 925 292 869 q 606 981 476 981 q 879 878 779 981 q 979 579 979 775 l 979 0 l 876 0 l 876 576 q 799 810 876 732 q 586 889 722 889 q 363 807 446 889 q 281 553 281 725 l 281 -57 q 251 -180 281 -131 q 174 -253 221 -229 q 71 -277 126 -278 q -37 -254 15 -276 z "},"ǋ":{"ha":1538,"x_min":158,"x_max":1424,"o":"m 158 0 l 158 972 l 243 972 l 914 128 l 869 128 l 869 972 l 971 972 l 971 0 l 886 0 l 217 844 l 261 844 l 261 0 l 158 0 m 1186 -276 q 1101 -265 1142 -276 q 1032 -229 1060 -253 l 1067 -154 q 1181 -192 1111 -192 q 1270 -157 1239 -192 q 1301 -54 1301 -122 l 1301 729 l 1400 729 l 1400 -54 q 1345 -216 1400 -156 q 1186 -276 1290 -276 m 1351 890 q 1300 911 1321 890 q 1279 961 1279 932 q 1300 1010 1279 990 q 1351 1031 1321 1031 q 1403 1011 1382 1031 q 1424 963 1424 992 q 1403 911 1424 932 q 1351 890 1383 890 z "},"Ṉ":{"ha":1129,"x_min":158,"x_max":971,"o":"m 158 0 l 158 972 l 243 972 l 914 128 l 869 128 l 869 972 l 971 972 l 971 0 l 886 0 l 217 844 l 261 844 l 261 0 l 158 0 m 350 -221 l 350 -156 l 778 -156 l 778 -221 l 350 -221 z "},"Ƞ":{"ha":1126,"x_min":176,"x_max":976,"o":"m 875 -269 l 875 576 q 797 810 875 732 q 583 889 719 889 q 360 807 443 889 q 278 553 278 725 l 278 0 l 176 0 l 176 972 l 275 972 l 275 732 l 247 749 q 382 925 290 869 q 603 981 474 981 q 876 878 776 981 q 976 579 976 775 l 976 -269 l 875 -269 z "},"Ñ":{"ha":1129,"x_min":158,"x_max":971,"o":"m 158 0 l 158 972 l 243 972 l 914 128 l 869 128 l 869 972 l 971 972 l 971 0 l 886 0 l 217 844 l 261 844 l 261 0 l 158 0 m 668 1056 q 605 1071 632 1056 q 556 1105 578 1086 q 513 1139 535 1124 q 464 1154 490 1154 q 413 1128 432 1154 q 392 1061 394 1101 l 328 1061 q 364 1176 329 1129 q 460 1222 399 1222 q 523 1207 496 1222 q 572 1173 550 1192 q 616 1139 594 1154 q 664 1124 638 1124 q 715 1151 696 1124 q 736 1214 735 1178 l 799 1214 q 763 1101 797 1146 q 668 1056 729 1056 z "},"Ŋ":{"ha":1129,"x_min":158,"x_max":971,"o":"m 158 0 l 158 972 l 243 972 l 914 128 l 886 0 l 217 844 l 261 844 l 261 0 l 158 0 m 690 -276 q 551 -245 617 -276 q 443 -157 486 -214 l 494 -85 q 581 -160 531 -133 q 690 -187 631 -187 q 825 -134 781 -187 q 869 28 869 -81 l 869 972 l 971 972 l 971 39 q 953 -100 971 -40 q 900 -199 935 -160 q 813 -257 865 -237 q 690 -276 760 -276 z "},"O":{"ha":1165,"x_min":72,"x_max":1093,"o":"m 583 -8 q 380 28 474 -8 q 217 133 286 65 q 110 290 149 200 q 72 486 72 379 q 110 683 72 593 q 217 840 149 772 q 379 944 286 907 q 583 981 472 981 q 786 944 693 981 q 948 840 879 907 q 1055 683 1017 774 q 1093 486 1093 593 q 1055 289 1093 379 q 948 132 1017 199 q 786 28 879 65 q 583 -8 693 -8 m 583 83 q 745 113 671 83 q 874 198 819 143 q 960 326 929 253 q 990 486 990 399 q 960 647 990 574 q 874 774 929 719 q 745 859 819 829 q 583 889 671 889 q 421 859 496 889 q 291 774 346 829 q 205 647 236 719 q 174 486 174 574 q 205 326 174 400 q 291 198 236 253 q 421 113 346 143 q 583 83 496 83 z "},"Ȣ":{"ha":1019,"x_min":79,"x_max":942,"o":"m 508 -8 q 280 30 376 -8 q 131 140 183 68 q 79 308 79 211 q 131 471 79 403 q 280 576 183 539 q 508 614 376 614 q 739 576 642 614 q 889 471 836 539 q 942 308 942 403 q 889 140 942 211 q 739 30 836 68 q 508 -8 642 -8 m 508 79 q 750 142 661 79 q 839 311 839 206 q 750 480 839 418 q 508 542 661 542 q 335 514 408 542 q 221 434 261 486 q 181 311 181 382 q 221 188 181 240 q 335 108 261 136 q 508 79 408 79 m 508 553 q 299 587 386 553 q 166 685 213 621 q 119 836 119 749 l 119 972 l 221 972 l 221 836 q 297 681 221 738 q 508 625 374 625 q 722 681 644 625 q 800 836 800 738 l 800 972 l 901 972 l 901 836 q 854 685 901 749 q 719 587 807 621 q 508 553 632 553 z "},"Ó":{"ha":1165,"x_min":72,"x_max":1093,"o":"m 583 -8 q 380 28 474 -8 q 217 133 286 65 q 110 290 149 200 q 72 486 72 379 q 110 683 72 593 q 217 840 149 772 q 379 944 286 907 q 583 981 472 981 q 786 944 693 981 q 948 840 879 907 q 1055 683 1017 774 q 1093 486 1093 593 q 1055 289 1093 379 q 948 132 1017 199 q 786 28 879 65 q 583 -8 693 -8 m 583 83 q 745 113 671 83 q 874 198 819 143 q 960 326 929 253 q 990 486 990 399 q 960 647 990 574 q 874 774 929 719 q 745 859 819 829 q 583 889 671 889 q 421 859 496 889 q 291 774 346 829 q 205 647 236 719 q 174 486 174 574 q 205 326 174 400 q 291 198 236 253 q 421 113 346 143 q 583 83 496 83 m 493 1051 l 683 1224 l 815 1224 l 590 1051 l 493 1051 z "},"Ŏ":{"ha":1165,"x_min":72,"x_max":1093,"o":"m 583 -8 q 380 28 474 -8 q 217 133 286 65 q 110 290 149 200 q 72 486 72 379 q 110 683 72 593 q 217 840 149 772 q 379 944 286 907 q 583 981 472 981 q 786 944 693 981 q 948 840 879 907 q 1055 683 1017 774 q 1093 486 1093 593 q 1055 289 1093 379 q 948 132 1017 199 q 786 28 879 65 q 583 -8 693 -8 m 583 83 q 745 113 671 83 q 874 198 819 143 q 960 326 929 253 q 990 486 990 399 q 960 647 990 574 q 874 774 929 719 q 745 859 819 829 q 583 889 671 889 q 421 859 496 889 q 291 774 346 829 q 205 647 236 719 q 174 486 174 574 q 205 326 174 400 q 291 198 236 253 q 421 113 346 143 q 583 83 496 83 m 583 1058 q 435 1106 496 1058 q 372 1238 375 1154 l 442 1238 q 485 1151 444 1183 q 583 1119 526 1119 q 683 1151 642 1119 q 725 1238 724 1183 l 794 1238 q 731 1106 792 1154 q 583 1058 671 1058 z "},"Ǒ":{"ha":1165,"x_min":72,"x_max":1093,"o":"m 583 -8 q 380 28 474 -8 q 217 133 286 65 q 110 290 149 200 q 72 486 72 379 q 110 683 72 593 q 217 840 149 772 q 379 944 286 907 q 583 981 472 981 q 786 944 693 981 q 948 840 879 907 q 1055 683 1017 774 q 1093 486 1093 593 q 1055 289 1093 379 q 948 132 1017 199 q 786 28 879 65 q 583 -8 693 -8 m 583 83 q 745 113 671 83 q 874 198 819 143 q 960 326 929 253 q 990 486 990 399 q 960 647 990 574 q 874 774 929 719 q 745 859 819 829 q 583 889 671 889 q 421 859 496 889 q 291 774 346 829 q 205 647 236 719 q 174 486 174 574 q 205 326 174 400 q 291 198 236 253 q 421 113 346 143 q 583 83 496 83 m 533 1051 l 354 1224 l 446 1224 l 622 1078 l 544 1078 l 721 1224 l 813 1224 l 633 1051 l 533 1051 z "},"Ɵ":{"ha":1182,"x_min":79,"x_max":1101,"o":"m 590 -8 q 388 28 481 -8 q 225 133 294 65 q 117 290 156 200 q 79 486 79 379 q 117 683 79 593 q 225 840 156 772 q 388 944 294 907 q 590 981 481 981 q 793 944 700 981 q 956 840 886 907 q 1063 683 1025 774 q 1101 486 1101 593 q 1063 289 1101 379 q 956 132 1025 199 q 793 28 886 65 q 590 -8 700 -8 m 590 83 q 744 110 674 83 q 869 186 814 136 q 956 304 924 236 q 997 454 989 372 l 183 454 q 224 304 190 372 q 311 186 257 236 q 436 110 365 136 q 590 83 507 83 m 186 538 l 993 538 q 955 677 988 613 q 867 789 922 742 q 742 863 813 836 q 590 889 672 889 q 438 863 510 889 q 313 789 367 836 q 226 677 258 742 q 186 538 193 613 z "},"Ô":{"ha":1165,"x_min":72,"x_max":1093,"o":"m 583 -8 q 380 28 474 -8 q 217 133 286 65 q 110 290 149 200 q 72 486 72 379 q 110 683 72 593 q 217 840 149 772 q 379 944 286 907 q 583 981 472 981 q 786 944 693 981 q 948 840 879 907 q 1055 683 1017 774 q 1093 486 1093 593 q 1055 289 1093 379 q 948 132 1017 199 q 786 28 879 65 q 583 -8 693 -8 m 583 83 q 745 113 671 83 q 874 198 819 143 q 960 326 929 253 q 990 486 990 399 q 960 647 990 574 q 874 774 929 719 q 745 859 819 829 q 583 889 671 889 q 421 859 496 889 q 291 774 346 829 q 205 647 236 719 q 174 486 174 574 q 205 326 174 400 q 291 198 236 253 q 421 113 346 143 q 583 83 496 83 m 354 1051 l 533 1224 l 633 1224 l 813 1051 l 721 1051 l 544 1199 l 622 1199 l 446 1051 l 354 1051 z "},"Ố":{"ha":1165,"x_min":72,"x_max":1093,"o":"m 583 -8 q 380 28 474 -8 q 217 133 286 65 q 110 290 149 200 q 72 486 72 379 q 110 683 72 593 q 217 840 149 772 q 379 944 286 907 q 583 981 472 981 q 786 944 693 981 q 948 840 879 907 q 1055 683 1017 774 q 1093 486 1093 593 q 1055 289 1093 379 q 948 132 1017 199 q 786 28 879 65 q 583 -8 693 -8 m 583 83 q 745 113 671 83 q 874 198 819 143 q 960 326 929 253 q 990 486 990 399 q 960 647 990 574 q 874 774 929 719 q 745 859 819 829 q 583 889 671 889 q 421 859 496 889 q 291 774 346 829 q 205 647 236 719 q 174 486 174 574 q 205 326 174 400 q 291 198 236 253 q 421 113 346 143 q 583 83 496 83 m 354 1051 l 535 1182 l 632 1182 l 813 1051 l 718 1051 l 544 1157 l 622 1157 l 449 1051 l 354 1051 m 710 1167 l 878 1317 l 997 1317 l 797 1167 l 710 1167 z "},"Ộ":{"ha":1165,"x_min":72,"x_max":1093,"o":"m 583 -8 q 380 28 474 -8 q 217 133 286 65 q 110 290 149 200 q 72 486 72 379 q 110 683 72 593 q 217 840 149 772 q 379 944 286 907 q 583 981 472 981 q 786 944 693 981 q 948 840 879 907 q 1055 683 1017 774 q 1093 486 1093 593 q 1055 289 1093 379 q 948 132 1017 199 q 786 28 879 65 q 583 -8 693 -8 m 583 83 q 745 113 671 83 q 874 198 819 143 q 960 326 929 253 q 990 486 990 399 q 960 647 990 574 q 874 774 929 719 q 745 859 819 829 q 583 889 671 889 q 421 859 496 889 q 291 774 346 829 q 205 647 236 719 q 174 486 174 574 q 205 326 174 400 q 291 198 236 253 q 421 113 346 143 q 583 83 496 83 m 583 -253 q 536 -233 556 -253 q 517 -186 517 -214 q 536 -138 517 -157 q 583 -119 556 -119 q 631 -138 611 -119 q 650 -186 650 -157 q 631 -233 650 -214 q 583 -253 611 -253 m 354 1051 l 533 1224 l 633 1224 l 813 1051 l 721 1051 l 544 1199 l 622 1199 l 446 1051 l 354 1051 z "},"Ồ":{"ha":1165,"x_min":72,"x_max":1093,"o":"m 583 -8 q 380 28 474 -8 q 217 133 286 65 q 110 290 149 200 q 72 486 72 379 q 110 683 72 593 q 217 840 149 772 q 379 944 286 907 q 583 981 472 981 q 786 944 693 981 q 948 840 879 907 q 1055 683 1017 774 q 1093 486 1093 593 q 1055 289 1093 379 q 948 132 1017 199 q 786 28 879 65 q 583 -8 693 -8 m 583 83 q 745 113 671 83 q 874 198 819 143 q 960 326 929 253 q 990 486 990 399 q 960 647 990 574 q 874 774 929 719 q 745 859 819 829 q 583 889 671 889 q 421 859 496 889 q 291 774 346 829 q 205 647 236 719 q 174 486 174 574 q 205 326 174 400 q 291 198 236 253 q 421 113 346 143 q 583 83 496 83 m 354 1051 l 535 1182 l 632 1182 l 813 1051 l 718 1051 l 544 1157 l 622 1157 l 449 1051 l 354 1051 m 793 1167 l 592 1317 l 713 1317 l 879 1167 l 793 1167 z "},"Ổ":{"ha":1165,"x_min":72,"x_max":1093,"o":"m 583 -8 q 380 28 474 -8 q 217 133 286 65 q 110 290 149 200 q 72 486 72 379 q 110 683 72 593 q 217 840 149 772 q 379 944 286 907 q 583 981 472 981 q 786 944 693 981 q 948 840 879 907 q 1055 683 1017 774 q 1093 486 1093 593 q 1055 289 1093 379 q 948 132 1017 199 q 786 28 879 65 q 583 -8 693 -8 m 583 83 q 745 113 671 83 q 874 198 819 143 q 960 326 929 253 q 990 486 990 399 q 960 647 990 574 q 874 774 929 719 q 745 859 819 829 q 583 889 671 889 q 421 859 496 889 q 291 774 346 829 q 205 647 236 719 q 174 486 174 574 q 205 326 174 400 q 291 198 236 253 q 421 113 346 143 q 583 83 496 83 m 354 1051 l 535 1182 l 632 1182 l 813 1051 l 718 1051 l 544 1157 l 622 1157 l 449 1051 l 354 1051 m 765 1143 l 738 1178 q 781 1210 765 1192 q 796 1247 796 1228 q 781 1281 796 1268 q 740 1293 765 1293 q 681 1276 710 1293 l 660 1317 q 702 1337 679 1331 q 749 1343 725 1343 q 822 1317 796 1343 q 849 1253 849 1292 q 827 1188 849 1217 q 765 1143 806 1160 z "},"Ỗ":{"ha":1165,"x_min":72,"x_max":1093,"o":"m 583 -8 q 380 28 474 -8 q 217 133 286 65 q 110 290 149 200 q 72 486 72 379 q 110 683 72 593 q 217 840 149 772 q 379 944 286 907 q 583 981 472 981 q 786 944 693 981 q 948 840 879 907 q 1055 683 1017 774 q 1093 486 1093 593 q 1055 289 1093 379 q 948 132 1017 199 q 786 28 879 65 q 583 -8 693 -8 m 583 83 q 745 113 671 83 q 874 198 819 143 q 960 326 929 253 q 990 486 990 399 q 960 647 990 574 q 874 774 929 719 q 745 859 819 829 q 583 889 671 889 q 421 859 496 889 q 291 774 346 829 q 205 647 236 719 q 174 486 174 574 q 205 326 174 400 q 291 198 236 253 q 421 113 346 143 q 583 83 496 83 m 354 1051 l 535 1182 l 632 1182 l 813 1051 l 718 1051 l 544 1157 l 622 1157 l 449 1051 l 354 1051 m 676 1229 q 620 1240 644 1229 q 575 1267 596 1251 q 535 1293 554 1282 q 494 1304 515 1304 q 446 1286 463 1304 q 428 1235 429 1268 l 368 1235 q 403 1328 369 1294 q 492 1363 436 1363 q 563 1344 533 1363 q 619 1306 593 1325 q 672 1288 646 1288 q 722 1306 704 1288 q 740 1356 739 1324 l 799 1356 q 765 1264 797 1299 q 676 1229 732 1229 z "},"Ȍ":{"ha":1165,"x_min":72,"x_max":1093,"o":"m 583 -8 q 380 28 474 -8 q 217 133 286 65 q 110 290 149 200 q 72 486 72 379 q 110 683 72 593 q 217 840 149 772 q 379 944 286 907 q 583 981 472 981 q 786 944 693 981 q 948 840 879 907 q 1055 683 1017 774 q 1093 486 1093 593 q 1055 289 1093 379 q 948 132 1017 199 q 786 28 879 65 q 583 -8 693 -8 m 583 83 q 745 113 671 83 q 874 198 819 143 q 960 326 929 253 q 990 486 990 399 q 960 647 990 574 q 874 774 929 719 q 745 859 819 829 q 583 889 671 889 q 421 859 496 889 q 291 774 346 829 q 205 647 236 719 q 174 486 174 574 q 205 326 174 400 q 291 198 236 253 q 421 113 346 143 q 583 83 496 83 m 653 1051 l 496 1224 l 606 1224 l 740 1051 l 653 1051 m 426 1051 l 271 1224 l 381 1224 l 514 1051 l 426 1051 z "},"Ö":{"ha":1165,"x_min":72,"x_max":1093,"o":"m 583 -8 q 380 28 474 -8 q 217 133 286 65 q 110 290 149 200 q 72 486 72 379 q 110 683 72 593 q 217 840 149 772 q 379 944 286 907 q 583 981 472 981 q 786 944 693 981 q 948 840 879 907 q 1055 683 1017 774 q 1093 486 1093 593 q 1055 289 1093 379 q 948 132 1017 199 q 786 28 879 65 q 583 -8 693 -8 m 583 83 q 745 113 671 83 q 874 198 819 143 q 960 326 929 253 q 990 486 990 399 q 960 647 990 574 q 874 774 929 719 q 745 859 819 829 q 583 889 671 889 q 421 859 496 889 q 291 774 346 829 q 205 647 236 719 q 174 486 174 574 q 205 326 174 400 q 291 198 236 253 q 421 113 346 143 q 583 83 496 83 m 707 1083 q 665 1100 683 1083 q 647 1143 647 1117 q 665 1186 647 1169 q 707 1203 683 1203 q 749 1186 732 1203 q 767 1143 767 1169 q 749 1100 767 1117 q 707 1083 732 1083 m 460 1083 q 417 1100 435 1083 q 400 1143 400 1117 q 417 1186 400 1169 q 460 1203 435 1203 q 501 1186 483 1203 q 519 1143 519 1169 q 501 1100 519 1117 q 460 1083 483 1083 z "},"Ȫ":{"ha":1165,"x_min":72,"x_max":1093,"o":"m 583 -8 q 380 28 474 -8 q 217 133 286 65 q 110 290 149 200 q 72 486 72 379 q 110 683 72 593 q 217 840 149 772 q 379 944 286 907 q 583 981 472 981 q 786 944 693 981 q 948 840 879 907 q 1055 683 1017 774 q 1093 486 1093 593 q 1055 289 1093 379 q 948 132 1017 199 q 786 28 879 65 q 583 -8 693 -8 m 583 83 q 745 113 671 83 q 874 198 819 143 q 960 326 929 253 q 990 486 990 399 q 960 647 990 574 q 874 774 929 719 q 745 859 819 829 q 583 889 671 889 q 421 859 496 889 q 291 774 346 829 q 205 647 236 719 q 174 486 174 574 q 205 326 174 400 q 291 198 236 253 q 421 113 346 143 q 583 83 496 83 m 706 1069 q 665 1087 682 1069 q 647 1128 647 1104 q 665 1169 647 1153 q 706 1186 682 1186 q 747 1169 729 1186 q 764 1128 764 1153 q 747 1087 764 1104 q 706 1069 729 1069 m 461 1069 q 421 1087 439 1069 q 403 1128 403 1104 q 421 1169 403 1153 q 461 1186 439 1186 q 503 1169 486 1186 q 519 1128 519 1153 q 503 1087 519 1104 q 461 1069 486 1069 m 369 1281 l 369 1343 l 797 1343 l 797 1281 l 369 1281 z "},"Ȯ":{"ha":1165,"x_min":72,"x_max":1093,"o":"m 583 -8 q 380 28 474 -8 q 217 133 286 65 q 110 290 149 200 q 72 486 72 379 q 110 683 72 593 q 217 840 149 772 q 379 944 286 907 q 583 981 472 981 q 786 944 693 981 q 948 840 879 907 q 1055 683 1017 774 q 1093 486 1093 593 q 1055 289 1093 379 q 948 132 1017 199 q 786 28 879 65 q 583 -8 693 -8 m 583 83 q 745 113 671 83 q 874 198 819 143 q 960 326 929 253 q 990 486 990 399 q 960 647 990 574 q 874 774 929 719 q 745 859 819 829 q 583 889 671 889 q 421 859 496 889 q 291 774 346 829 q 205 647 236 719 q 174 486 174 574 q 205 326 174 400 q 291 198 236 253 q 421 113 346 143 q 583 83 496 83 m 583 1083 q 536 1103 556 1083 q 517 1150 517 1122 q 536 1198 517 1179 q 583 1217 556 1217 q 631 1198 611 1217 q 650 1150 650 1179 q 631 1103 650 1122 q 583 1083 611 1083 z "},"Ȱ":{"ha":1165,"x_min":72,"x_max":1093,"o":"m 583 -8 q 380 28 474 -8 q 217 133 286 65 q 110 290 149 200 q 72 486 72 379 q 110 683 72 593 q 217 840 149 772 q 379 944 286 907 q 583 981 472 981 q 786 944 693 981 q 948 840 879 907 q 1055 683 1017 774 q 1093 486 1093 593 q 1055 289 1093 379 q 948 132 1017 199 q 786 28 879 65 q 583 -8 693 -8 m 583 83 q 745 113 671 83 q 874 198 819 143 q 960 326 929 253 q 990 486 990 399 q 960 647 990 574 q 874 774 929 719 q 745 859 819 829 q 583 889 671 889 q 421 859 496 889 q 291 774 346 829 q 205 647 236 719 q 174 486 174 574 q 205 326 174 400 q 291 198 236 253 q 421 113 346 143 q 583 83 496 83 m 583 1075 q 542 1092 560 1075 q 524 1135 524 1110 q 542 1178 524 1161 q 583 1194 560 1194 q 626 1178 608 1194 q 643 1135 643 1161 q 626 1092 643 1110 q 583 1075 608 1075 m 369 1281 l 369 1343 l 797 1343 l 797 1281 l 369 1281 z "},"Ọ":{"ha":1165,"x_min":72,"x_max":1093,"o":"m 583 -8 q 380 28 474 -8 q 217 133 286 65 q 110 290 149 200 q 72 486 72 379 q 110 683 72 593 q 217 840 149 772 q 379 944 286 907 q 583 981 472 981 q 786 944 693 981 q 948 840 879 907 q 1055 683 1017 774 q 1093 486 1093 593 q 1055 289 1093 379 q 948 132 1017 199 q 786 28 879 65 q 583 -8 693 -8 m 583 83 q 745 113 671 83 q 874 198 819 143 q 960 326 929 253 q 990 486 990 399 q 960 647 990 574 q 874 774 929 719 q 745 859 819 829 q 583 889 671 889 q 421 859 496 889 q 291 774 346 829 q 205 647 236 719 q 174 486 174 574 q 205 326 174 400 q 291 198 236 253 q 421 113 346 143 q 583 83 496 83 m 583 -253 q 536 -233 556 -253 q 517 -186 517 -214 q 536 -138 517 -157 q 583 -119 556 -119 q 631 -138 611 -119 q 650 -186 650 -157 q 631 -233 650 -214 q 583 -253 611 -253 z "},"Ò":{"ha":1165,"x_min":72,"x_max":1093,"o":"m 583 -8 q 380 28 474 -8 q 217 133 286 65 q 110 290 149 200 q 72 486 72 379 q 110 683 72 593 q 217 840 149 772 q 379 944 286 907 q 583 981 472 981 q 786 944 693 981 q 948 840 879 907 q 1055 683 1017 774 q 1093 486 1093 593 q 1055 289 1093 379 q 948 132 1017 199 q 786 28 879 65 q 583 -8 693 -8 m 583 83 q 745 113 671 83 q 874 198 819 143 q 960 326 929 253 q 990 486 990 399 q 960 647 990 574 q 874 774 929 719 q 745 859 819 829 q 583 889 671 889 q 421 859 496 889 q 291 774 346 829 q 205 647 236 719 q 174 486 174 574 q 205 326 174 400 q 291 198 236 253 q 421 113 346 143 q 583 83 496 83 m 576 1051 l 351 1224 l 483 1224 l 674 1051 l 576 1051 z "},"Ỏ":{"ha":1165,"x_min":72,"x_max":1093,"o":"m 583 -8 q 380 28 474 -8 q 217 133 286 65 q 110 290 149 200 q 72 486 72 379 q 110 683 72 593 q 217 840 149 772 q 379 944 286 907 q 583 981 472 981 q 786 944 693 981 q 948 840 879 907 q 1055 683 1017 774 q 1093 486 1093 593 q 1055 289 1093 379 q 948 132 1017 199 q 786 28 879 65 q 583 -8 693 -8 m 583 83 q 745 113 671 83 q 874 198 819 143 q 960 326 929 253 q 990 486 990 399 q 960 647 990 574 q 874 774 929 719 q 745 859 819 829 q 583 889 671 889 q 421 859 496 889 q 291 774 346 829 q 205 647 236 719 q 174 486 174 574 q 205 326 174 400 q 291 198 236 253 q 421 113 346 143 q 583 83 496 83 m 583 1019 l 549 1063 q 610 1106 590 1082 q 631 1161 631 1129 q 610 1210 631 1190 q 554 1229 589 1229 q 471 1203 511 1229 l 447 1251 q 502 1278 471 1269 q 563 1288 533 1288 q 631 1273 601 1288 q 678 1232 661 1258 q 694 1168 694 1206 q 667 1083 694 1119 q 583 1019 640 1046 z "},"Ơ":{"ha":1165,"x_min":72,"x_max":1093,"o":"m 583 -8 q 379 28 472 -8 q 217 133 286 65 q 110 290 149 200 q 72 486 72 379 q 110 683 72 593 q 218 840 149 774 q 381 944 288 907 q 586 981 475 981 q 735 971 672 981 q 861 961 799 961 q 964 988 929 961 q 999 1067 999 1014 q 990 1115 999 1093 q 971 1156 982 1136 l 1036 1181 q 1063 1126 1053 1157 q 1072 1064 1072 1096 q 1017 938 1072 982 q 857 894 961 894 q 780 899 822 894 q 700 908 738 903 l 822 924 q 965 821 904 886 q 1060 670 1026 756 q 1093 486 1093 585 q 1055 289 1093 379 q 948 132 1017 199 q 786 28 879 65 q 583 -8 693 -8 m 583 83 q 745 114 671 83 q 874 199 819 144 q 960 326 929 253 q 990 486 990 400 q 960 646 990 572 q 874 774 929 719 q 745 858 819 828 q 583 889 671 889 q 421 859 496 889 q 291 774 346 829 q 205 647 236 719 q 174 486 174 574 q 205 326 174 400 q 291 198 236 253 q 421 113 346 143 q 583 83 496 83 z "},"Ớ":{"ha":1165,"x_min":72,"x_max":1093,"o":"m 583 -8 q 379 28 472 -8 q 217 133 286 65 q 110 290 149 200 q 72 486 72 379 q 110 683 72 593 q 218 840 149 774 q 381 944 288 907 q 586 981 475 981 q 735 971 672 981 q 861 961 799 961 q 964 988 929 961 q 999 1067 999 1014 q 990 1115 999 1093 q 971 1156 982 1136 l 1036 1181 q 1063 1126 1053 1157 q 1072 1064 1072 1096 q 1017 938 1072 982 q 857 894 961 894 q 780 899 822 894 q 700 908 738 903 l 822 924 q 965 821 904 886 q 1060 670 1026 756 q 1093 486 1093 585 q 1055 289 1093 379 q 948 132 1017 199 q 786 28 879 65 q 583 -8 693 -8 m 583 83 q 745 114 671 83 q 874 199 819 144 q 960 326 929 253 q 990 486 990 400 q 960 646 990 572 q 874 774 929 719 q 745 858 819 828 q 583 889 671 889 q 421 859 496 889 q 291 774 346 829 q 205 647 236 719 q 174 486 174 574 q 205 326 174 400 q 291 198 236 253 q 421 113 346 143 q 583 83 496 83 m 493 1051 l 683 1224 l 815 1224 l 590 1051 l 493 1051 z "},"Ợ":{"ha":1165,"x_min":72,"x_max":1093,"o":"m 583 -8 q 379 28 472 -8 q 217 133 286 65 q 110 290 149 200 q 72 486 72 379 q 110 683 72 593 q 218 840 149 774 q 381 944 288 907 q 586 981 475 981 q 735 971 672 981 q 861 961 799 961 q 964 988 929 961 q 999 1067 999 1014 q 990 1115 999 1093 q 971 1156 982 1136 l 1036 1181 q 1063 1126 1053 1157 q 1072 1064 1072 1096 q 1017 938 1072 982 q 857 894 961 894 q 780 899 822 894 q 700 908 738 903 l 822 924 q 965 821 904 886 q 1060 670 1026 756 q 1093 486 1093 585 q 1055 289 1093 379 q 948 132 1017 199 q 786 28 879 65 q 583 -8 693 -8 m 583 83 q 745 114 671 83 q 874 199 819 144 q 960 326 929 253 q 990 486 990 400 q 960 646 990 572 q 874 774 929 719 q 745 858 819 828 q 583 889 671 889 q 421 859 496 889 q 291 774 346 829 q 205 647 236 719 q 174 486 174 574 q 205 326 174 400 q 291 198 236 253 q 421 113 346 143 q 583 83 496 83 m 583 -253 q 536 -233 556 -253 q 517 -186 517 -214 q 536 -138 517 -157 q 583 -119 556 -119 q 631 -138 611 -119 q 650 -186 650 -157 q 631 -233 650 -214 q 583 -253 611 -253 z "},"Ờ":{"ha":1165,"x_min":72,"x_max":1093,"o":"m 583 -8 q 379 28 472 -8 q 217 133 286 65 q 110 290 149 200 q 72 486 72 379 q 110 683 72 593 q 218 840 149 774 q 381 944 288 907 q 586 981 475 981 q 735 971 672 981 q 861 961 799 961 q 964 988 929 961 q 999 1067 999 1014 q 990 1115 999 1093 q 971 1156 982 1136 l 1036 1181 q 1063 1126 1053 1157 q 1072 1064 1072 1096 q 1017 938 1072 982 q 857 894 961 894 q 780 899 822 894 q 700 908 738 903 l 822 924 q 965 821 904 886 q 1060 670 1026 756 q 1093 486 1093 585 q 1055 289 1093 379 q 948 132 1017 199 q 786 28 879 65 q 583 -8 693 -8 m 583 83 q 745 114 671 83 q 874 199 819 144 q 960 326 929 253 q 990 486 990 400 q 960 646 990 572 q 874 774 929 719 q 745 858 819 828 q 583 889 671 889 q 421 859 496 889 q 291 774 346 829 q 205 647 236 719 q 174 486 174 574 q 205 326 174 400 q 291 198 236 253 q 421 113 346 143 q 583 83 496 83 m 576 1051 l 351 1224 l 483 1224 l 674 1051 l 576 1051 z "},"Ở":{"ha":1165,"x_min":72,"x_max":1093,"o":"m 583 -8 q 379 28 472 -8 q 217 133 286 65 q 110 290 149 200 q 72 486 72 379 q 110 683 72 593 q 218 840 149 774 q 381 944 288 907 q 586 981 475 981 q 735 971 672 981 q 861 961 799 961 q 964 988 929 961 q 999 1067 999 1014 q 990 1115 999 1093 q 971 1156 982 1136 l 1036 1181 q 1063 1126 1053 1157 q 1072 1064 1072 1096 q 1017 938 1072 982 q 857 894 961 894 q 780 899 822 894 q 700 908 738 903 l 822 924 q 965 821 904 886 q 1060 670 1026 756 q 1093 486 1093 585 q 1055 289 1093 379 q 948 132 1017 199 q 786 28 879 65 q 583 -8 693 -8 m 583 83 q 745 114 671 83 q 874 199 819 144 q 960 326 929 253 q 990 486 990 400 q 960 646 990 572 q 874 774 929 719 q 745 858 819 828 q 583 889 671 889 q 421 859 496 889 q 291 774 346 829 q 205 647 236 719 q 174 486 174 574 q 205 326 174 400 q 291 198 236 253 q 421 113 346 143 q 583 83 496 83 m 583 1019 l 549 1063 q 610 1106 590 1082 q 631 1161 631 1129 q 610 1210 631 1190 q 554 1229 589 1229 q 471 1203 511 1229 l 447 1251 q 502 1278 471 1269 q 563 1288 533 1288 q 631 1273 601 1288 q 678 1232 661 1258 q 694 1168 694 1206 q 667 1083 694 1119 q 583 1019 640 1046 z "},"Ỡ":{"ha":1165,"x_min":72,"x_max":1093,"o":"m 583 -8 q 379 28 472 -8 q 217 133 286 65 q 110 290 149 200 q 72 486 72 379 q 110 683 72 593 q 218 840 149 774 q 381 944 288 907 q 586 981 475 981 q 735 971 672 981 q 861 961 799 961 q 964 988 929 961 q 999 1067 999 1014 q 990 1115 999 1093 q 971 1156 982 1136 l 1036 1181 q 1063 1126 1053 1157 q 1072 1064 1072 1096 q 1017 938 1072 982 q 857 894 961 894 q 780 899 822 894 q 700 908 738 903 l 822 924 q 965 821 904 886 q 1060 670 1026 756 q 1093 486 1093 585 q 1055 289 1093 379 q 948 132 1017 199 q 786 28 879 65 q 583 -8 693 -8 m 583 83 q 745 114 671 83 q 874 199 819 144 q 960 326 929 253 q 990 486 990 400 q 960 646 990 572 q 874 774 929 719 q 745 858 819 828 q 583 889 671 889 q 421 859 496 889 q 291 774 346 829 q 205 647 236 719 q 174 486 174 574 q 205 326 174 400 q 291 198 236 253 q 421 113 346 143 q 583 83 496 83 m 688 1056 q 624 1071 651 1056 q 576 1105 597 1086 q 532 1139 554 1124 q 483 1154 510 1154 q 433 1128 451 1154 q 411 1061 414 1101 l 347 1061 q 383 1176 349 1129 q 479 1222 418 1222 q 542 1207 515 1222 q 592 1173 569 1192 q 635 1139 614 1154 q 683 1124 657 1124 q 735 1151 715 1124 q 756 1214 754 1178 l 818 1214 q 783 1101 817 1146 q 688 1056 749 1056 z "},"Ő":{"ha":1165,"x_min":72,"x_max":1093,"o":"m 583 -8 q 380 28 474 -8 q 217 133 286 65 q 110 290 149 200 q 72 486 72 379 q 110 683 72 593 q 217 840 149 772 q 379 944 286 907 q 583 981 472 981 q 786 944 693 981 q 948 840 879 907 q 1055 683 1017 774 q 1093 486 1093 593 q 1055 289 1093 379 q 948 132 1017 199 q 786 28 879 65 q 583 -8 693 -8 m 583 83 q 745 113 671 83 q 874 198 819 143 q 960 326 929 253 q 990 486 990 399 q 960 647 990 574 q 874 774 929 719 q 745 859 819 829 q 583 889 671 889 q 421 859 496 889 q 291 774 346 829 q 205 647 236 719 q 174 486 174 574 q 205 326 174 400 q 291 198 236 253 q 421 113 346 143 q 583 83 496 83 m 653 1051 l 786 1224 l 896 1224 l 740 1051 l 653 1051 m 426 1051 l 561 1224 l 671 1224 l 514 1051 l 426 1051 z "},"Ȏ":{"ha":1165,"x_min":72,"x_max":1093,"o":"m 583 -8 q 380 28 474 -8 q 217 133 286 65 q 110 290 149 200 q 72 486 72 379 q 110 683 72 593 q 217 840 149 772 q 379 944 286 907 q 583 981 472 981 q 786 944 693 981 q 948 840 879 907 q 1055 683 1017 774 q 1093 486 1093 593 q 1055 289 1093 379 q 948 132 1017 199 q 786 28 879 65 q 583 -8 693 -8 m 583 83 q 745 113 671 83 q 874 198 819 143 q 960 326 929 253 q 990 486 990 399 q 960 647 990 574 q 874 774 929 719 q 745 859 819 829 q 583 889 671 889 q 421 859 496 889 q 291 774 346 829 q 205 647 236 719 q 174 486 174 574 q 205 326 174 400 q 291 198 236 253 q 421 113 346 143 q 583 83 496 83 m 372 1051 q 435 1182 375 1135 q 583 1229 496 1229 q 731 1182 671 1229 q 794 1051 792 1135 l 725 1051 q 683 1138 724 1106 q 583 1169 642 1169 q 485 1138 526 1169 q 442 1051 444 1106 l 372 1051 z "},"Ō":{"ha":1165,"x_min":72,"x_max":1093,"o":"m 583 -8 q 380 28 474 -8 q 217 133 286 65 q 110 290 149 200 q 72 486 72 379 q 110 683 72 593 q 217 840 149 772 q 379 944 286 907 q 583 981 472 981 q 786 944 693 981 q 948 840 879 907 q 1055 683 1017 774 q 1093 486 1093 593 q 1055 289 1093 379 q 948 132 1017 199 q 786 28 879 65 q 583 -8 693 -8 m 583 83 q 745 113 671 83 q 874 198 819 143 q 960 326 929 253 q 990 486 990 399 q 960 647 990 574 q 874 774 929 719 q 745 859 819 829 q 583 889 671 889 q 421 859 496 889 q 291 774 346 829 q 205 647 236 719 q 174 486 174 574 q 205 326 174 400 q 291 198 236 253 q 421 113 346 143 q 583 83 496 83 m 369 1104 l 369 1169 l 797 1169 l 797 1104 l 369 1104 z "},"Ṓ":{"ha":1165,"x_min":72,"x_max":1093,"o":"m 583 -8 q 380 28 474 -8 q 217 133 286 65 q 110 290 149 200 q 72 486 72 379 q 110 683 72 593 q 217 840 149 772 q 379 944 286 907 q 583 981 472 981 q 786 944 693 981 q 948 840 879 907 q 1055 683 1017 774 q 1093 486 1093 593 q 1055 289 1093 379 q 948 132 1017 199 q 786 28 879 65 q 583 -8 693 -8 m 583 83 q 745 113 671 83 q 874 198 819 143 q 960 326 929 253 q 990 486 990 399 q 960 647 990 574 q 874 774 929 719 q 745 859 819 829 q 583 889 671 889 q 421 859 496 889 q 291 774 346 829 q 205 647 236 719 q 174 486 174 574 q 205 326 174 400 q 291 198 236 253 q 421 113 346 143 q 583 83 496 83 m 369 1093 l 369 1156 l 797 1156 l 797 1093 l 369 1093 m 499 1235 l 667 1385 l 786 1385 l 586 1235 l 499 1235 z "},"Ṑ":{"ha":1165,"x_min":72,"x_max":1093,"o":"m 583 -8 q 380 28 474 -8 q 217 133 286 65 q 110 290 149 200 q 72 486 72 379 q 110 683 72 593 q 217 840 149 772 q 379 944 286 907 q 583 981 472 981 q 786 944 693 981 q 948 840 879 907 q 1055 683 1017 774 q 1093 486 1093 593 q 1055 289 1093 379 q 948 132 1017 199 q 786 28 879 65 q 583 -8 693 -8 m 583 83 q 745 113 671 83 q 874 198 819 143 q 960 326 929 253 q 990 486 990 399 q 960 647 990 574 q 874 774 929 719 q 745 859 819 829 q 583 889 671 889 q 421 859 496 889 q 291 774 346 829 q 205 647 236 719 q 174 486 174 574 q 205 326 174 400 q 291 198 236 253 q 421 113 346 143 q 583 83 496 83 m 369 1093 l 369 1156 l 797 1156 l 797 1093 l 369 1093 m 582 1235 l 381 1385 l 501 1385 l 668 1235 l 582 1235 z "},"Ꞷ":{"ha":1476,"x_min":106,"x_max":1371,"o":"m 457 -6 q 300 33 367 -6 q 190 139 233 72 q 126 292 147 206 q 106 471 106 378 q 147 738 106 606 q 268 972 188 871 l 383 972 q 286 819 325 903 q 227 646 247 735 q 207 471 207 557 q 236 281 207 368 q 323 140 265 193 q 468 86 381 86 q 582 118 533 86 q 658 212 631 150 q 685 361 685 274 l 685 592 l 790 592 l 790 361 q 818 212 790 274 q 895 118 846 150 q 1008 86 944 86 q 1153 140 1096 86 q 1240 281 1211 193 q 1268 471 1268 368 q 1249 645 1268 557 q 1191 817 1229 733 q 1094 972 1153 901 l 1210 972 q 1299 821 1264 904 q 1353 649 1335 738 q 1371 471 1371 560 q 1349 291 1371 376 q 1285 139 1328 206 q 1176 33 1243 72 q 1018 -6 1110 -6 q 856 36 926 -6 q 748 153 786 78 q 710 331 710 229 l 767 331 q 728 153 767 229 q 619 36 689 78 q 457 -6 550 -6 z "},"Ǫ":{"ha":1165,"x_min":72,"x_max":1093,"o":"m 589 -306 q 477 -269 518 -306 q 436 -174 436 -233 q 453 -103 436 -140 q 513 -29 469 -65 q 631 38 557 7 l 626 -6 q 603 -8 614 -7 q 583 -8 593 -8 q 380 28 472 -8 q 218 132 288 65 q 110 289 149 199 q 72 486 72 379 q 110 683 72 593 q 218 840 149 774 q 380 944 288 907 q 583 981 472 981 q 786 944 693 981 q 948 840 879 907 q 1055 683 1017 774 q 1093 486 1093 593 q 1042 262 1093 361 q 906 98 992 163 q 717 8 821 33 q 610 -33 657 -6 q 535 -94 563 -60 q 508 -167 508 -128 q 534 -225 508 -206 q 599 -244 560 -244 q 644 -237 621 -244 q 683 -218 667 -231 l 707 -272 q 652 -297 682 -287 q 589 -306 622 -306 m 583 83 q 745 113 671 83 q 874 198 819 143 q 960 326 929 253 q 990 486 990 400 q 960 647 990 574 q 874 774 929 719 q 745 859 819 829 q 583 889 671 889 q 421 859 496 889 q 291 774 346 829 q 205 647 236 719 q 174 486 174 574 q 205 326 174 400 q 291 198 236 253 q 421 113 346 143 q 583 83 496 83 z "},"Ǭ":{"ha":1165,"x_min":72,"x_max":1093,"o":"m 589 -306 q 477 -269 518 -306 q 436 -174 436 -233 q 453 -103 436 -140 q 513 -29 469 -65 q 631 38 557 7 l 626 -6 q 603 -8 614 -7 q 583 -8 593 -8 q 380 28 472 -8 q 218 132 288 65 q 110 289 149 199 q 72 486 72 379 q 110 683 72 593 q 218 840 149 774 q 380 944 288 907 q 583 981 472 981 q 786 944 693 981 q 948 840 879 907 q 1055 683 1017 774 q 1093 486 1093 593 q 1042 262 1093 361 q 906 98 992 163 q 717 8 821 33 q 610 -33 657 -6 q 535 -94 563 -60 q 508 -167 508 -128 q 534 -225 508 -206 q 599 -244 560 -244 q 644 -237 621 -244 q 683 -218 667 -231 l 707 -272 q 652 -297 682 -287 q 589 -306 622 -306 m 583 83 q 745 113 671 83 q 874 198 819 143 q 960 326 929 253 q 990 486 990 400 q 960 647 990 574 q 874 774 929 719 q 745 859 819 829 q 583 889 671 889 q 421 859 496 889 q 291 774 346 829 q 205 647 236 719 q 174 486 174 574 q 205 326 174 400 q 291 198 236 253 q 421 113 346 143 q 583 83 496 83 m 369 1104 l 369 1169 l 797 1169 l 797 1104 l 369 1104 z "},"Ɔ":{"ha":985,"x_min":47,"x_max":913,"o":"m 404 981 q 606 944 514 981 q 767 840 699 907 q 874 683 836 774 q 913 486 913 593 q 874 289 913 379 q 767 132 836 199 q 606 28 699 65 q 403 -8 513 -8 q 203 28 296 -8 q 47 133 111 64 l 113 199 q 244 110 172 138 q 400 83 317 83 q 563 113 488 83 q 693 198 638 143 q 779 326 749 253 q 810 486 810 399 q 779 647 810 574 q 693 774 749 719 q 563 859 638 829 q 400 889 488 889 q 244 861 317 889 q 113 772 172 833 l 47 838 q 203 944 111 908 q 404 981 296 981 z "},"Ø":{"ha":1165,"x_min":72,"x_max":1093,"o":"m 583 -8 q 380 28 474 -8 q 217 133 286 65 q 110 290 149 200 q 72 486 72 379 q 110 683 72 593 q 217 840 149 772 q 379 944 286 907 q 583 981 472 981 q 786 944 693 981 q 948 840 879 907 q 1055 683 1017 774 q 1093 486 1093 593 q 1055 289 1093 379 q 948 132 1017 199 q 786 28 879 65 q 583 -8 693 -8 m 583 83 q 745 113 671 83 q 874 198 819 143 q 960 326 929 253 q 990 486 990 399 q 960 647 990 574 q 874 774 929 719 q 745 859 819 829 q 583 889 671 889 q 421 859 496 889 q 291 774 346 829 q 205 647 236 719 q 174 486 174 574 q 205 326 174 400 q 291 198 236 253 q 421 113 346 143 q 583 83 496 83 m 215 -97 l 863 1069 l 953 1069 l 306 -97 l 215 -97 z "},"Ǿ":{"ha":1165,"x_min":72,"x_max":1093,"o":"m 583 -8 q 380 28 474 -8 q 217 133 286 65 q 110 290 149 200 q 72 486 72 379 q 110 683 72 593 q 217 840 149 772 q 379 944 286 907 q 583 981 472 981 q 786 944 693 981 q 948 840 879 907 q 1055 683 1017 774 q 1093 486 1093 593 q 1055 289 1093 379 q 948 132 1017 199 q 786 28 879 65 q 583 -8 693 -8 m 583 83 q 745 113 671 83 q 874 198 819 143 q 960 326 929 253 q 990 486 990 399 q 960 647 990 574 q 874 774 929 719 q 745 859 819 829 q 583 889 671 889 q 421 859 496 889 q 291 774 346 829 q 205 647 236 719 q 174 486 174 574 q 205 326 174 400 q 291 198 236 253 q 421 113 346 143 q 583 83 496 83 m 215 -97 l 863 1069 l 953 1069 l 306 -97 l 215 -97 m 493 1051 l 683 1224 l 815 1224 l 590 1051 l 493 1051 z "},"Õ":{"ha":1165,"x_min":72,"x_max":1093,"o":"m 583 -8 q 380 28 474 -8 q 217 133 286 65 q 110 290 149 200 q 72 486 72 379 q 110 683 72 593 q 217 840 149 772 q 379 944 286 907 q 583 981 472 981 q 786 944 693 981 q 948 840 879 907 q 1055 683 1017 774 q 1093 486 1093 593 q 1055 289 1093 379 q 948 132 1017 199 q 786 28 879 65 q 583 -8 693 -8 m 583 83 q 745 113 671 83 q 874 198 819 143 q 960 326 929 253 q 990 486 990 399 q 960 647 990 574 q 874 774 929 719 q 745 859 819 829 q 583 889 671 889 q 421 859 496 889 q 291 774 346 829 q 205 647 236 719 q 174 486 174 574 q 205 326 174 400 q 291 198 236 253 q 421 113 346 143 q 583 83 496 83 m 688 1056 q 624 1071 651 1056 q 576 1105 597 1086 q 532 1139 554 1124 q 483 1154 510 1154 q 433 1128 451 1154 q 411 1061 414 1101 l 347 1061 q 383 1176 349 1129 q 479 1222 418 1222 q 542 1207 515 1222 q 592 1173 569 1192 q 635 1139 614 1154 q 683 1124 657 1124 q 735 1151 715 1124 q 756 1214 754 1178 l 818 1214 q 783 1101 817 1146 q 688 1056 749 1056 z "},"Ṍ":{"ha":1165,"x_min":72,"x_max":1093,"o":"m 583 -8 q 380 28 474 -8 q 217 133 286 65 q 110 290 149 200 q 72 486 72 379 q 110 683 72 593 q 217 840 149 772 q 379 944 286 907 q 583 981 472 981 q 786 944 693 981 q 948 840 879 907 q 1055 683 1017 774 q 1093 486 1093 593 q 1055 289 1093 379 q 948 132 1017 199 q 786 28 879 65 q 583 -8 693 -8 m 583 83 q 745 113 671 83 q 874 198 819 143 q 960 326 929 253 q 990 486 990 399 q 960 647 990 574 q 874 774 929 719 q 745 859 819 829 q 583 889 671 889 q 421 859 496 889 q 291 774 346 829 q 205 647 236 719 q 174 486 174 574 q 205 326 174 400 q 291 198 236 253 q 421 113 346 143 q 583 83 496 83 m 676 1063 q 620 1074 644 1063 q 575 1100 596 1085 q 535 1126 554 1115 q 494 1138 515 1138 q 446 1119 463 1138 q 428 1068 429 1101 l 368 1068 q 403 1162 369 1128 q 492 1196 436 1196 q 563 1177 533 1196 q 619 1140 593 1158 q 672 1121 646 1121 q 722 1139 704 1121 q 740 1189 739 1157 l 799 1189 q 765 1097 797 1132 q 676 1063 732 1063 m 499 1235 l 667 1385 l 786 1385 l 586 1235 l 499 1235 z "},"Ṏ":{"ha":1165,"x_min":72,"x_max":1093,"o":"m 583 -8 q 380 28 474 -8 q 217 133 286 65 q 110 290 149 200 q 72 486 72 379 q 110 683 72 593 q 217 840 149 772 q 379 944 286 907 q 583 981 472 981 q 786 944 693 981 q 948 840 879 907 q 1055 683 1017 774 q 1093 486 1093 593 q 1055 289 1093 379 q 948 132 1017 199 q 786 28 879 65 q 583 -8 693 -8 m 583 83 q 745 113 671 83 q 874 198 819 143 q 960 326 929 253 q 990 486 990 399 q 960 647 990 574 q 874 774 929 719 q 745 859 819 829 q 583 889 671 889 q 421 859 496 889 q 291 774 346 829 q 205 647 236 719 q 174 486 174 574 q 205 326 174 400 q 291 198 236 253 q 421 113 346 143 q 583 83 496 83 m 676 1063 q 620 1074 644 1063 q 575 1100 596 1085 q 535 1126 554 1115 q 494 1138 515 1138 q 446 1119 463 1138 q 428 1068 429 1101 l 368 1068 q 403 1162 369 1128 q 492 1196 436 1196 q 563 1177 533 1196 q 619 1140 593 1158 q 672 1121 646 1121 q 722 1139 704 1121 q 740 1189 739 1157 l 799 1189 q 765 1097 797 1132 q 676 1063 732 1063 m 706 1260 q 665 1277 682 1260 q 647 1318 647 1294 q 665 1360 647 1343 q 706 1376 682 1376 q 747 1360 729 1376 q 764 1318 764 1343 q 747 1277 764 1294 q 706 1260 729 1260 m 461 1260 q 421 1277 439 1260 q 403 1318 403 1294 q 421 1360 403 1343 q 461 1376 439 1376 q 503 1360 486 1376 q 519 1318 519 1343 q 503 1277 519 1294 q 461 1260 486 1260 z "},"Ȭ":{"ha":1165,"x_min":72,"x_max":1093,"o":"m 583 -8 q 380 28 474 -8 q 217 133 286 65 q 110 290 149 200 q 72 486 72 379 q 110 683 72 593 q 217 840 149 772 q 379 944 286 907 q 583 981 472 981 q 786 944 693 981 q 948 840 879 907 q 1055 683 1017 774 q 1093 486 1093 593 q 1055 289 1093 379 q 948 132 1017 199 q 786 28 879 65 q 583 -8 693 -8 m 583 83 q 745 113 671 83 q 874 198 819 143 q 960 326 929 253 q 990 486 990 399 q 960 647 990 574 q 874 774 929 719 q 745 859 819 829 q 583 889 671 889 q 421 859 496 889 q 291 774 346 829 q 205 647 236 719 q 174 486 174 574 q 205 326 174 400 q 291 198 236 253 q 421 113 346 143 q 583 83 496 83 m 676 1063 q 620 1074 644 1063 q 575 1100 596 1085 q 535 1126 554 1115 q 494 1138 515 1138 q 446 1119 463 1138 q 428 1068 429 1101 l 368 1068 q 403 1162 369 1128 q 492 1196 436 1196 q 563 1177 533 1196 q 619 1140 593 1158 q 672 1121 646 1121 q 722 1139 704 1121 q 740 1189 739 1157 l 799 1189 q 765 1097 797 1132 q 676 1063 732 1063 m 369 1281 l 369 1343 l 797 1343 l 797 1281 l 369 1281 z "},"Œ":{"ha":1557,"x_min":72,"x_max":1474,"o":"m 593 0 q 320 62 438 0 q 138 233 203 124 q 72 485 72 342 q 138 738 72 628 q 320 910 203 849 q 593 972 438 972 l 813 972 l 813 883 l 597 883 q 374 833 469 883 q 226 692 279 782 q 174 485 174 603 q 226 279 174 368 q 374 140 279 190 q 597 89 469 89 l 813 89 l 813 0 l 593 0 m 786 0 l 786 972 l 1453 972 l 1453 883 l 888 883 l 888 89 l 1474 89 l 1474 0 l 786 0 m 878 450 l 878 538 l 1392 538 l 1392 450 l 878 450 z "},"P":{"ha":997,"x_min":158,"x_max":919,"o":"m 158 0 l 158 972 l 522 972 q 735 933 646 972 q 872 819 824 893 q 919 639 919 744 q 872 462 919 536 q 735 347 824 388 q 522 307 646 307 l 215 307 l 261 356 l 261 0 l 158 0 m 261 347 l 215 397 l 519 397 q 741 460 665 397 q 817 639 817 524 q 741 819 817 756 q 519 883 665 883 l 215 883 l 261 932 l 261 347 z "},"Ṕ":{"ha":997,"x_min":158,"x_max":919,"o":"m 158 0 l 158 972 l 522 972 q 735 933 646 972 q 872 819 824 893 q 919 639 919 744 q 872 462 919 536 q 735 347 824 388 q 522 307 646 307 l 215 307 l 261 356 l 261 0 l 158 0 m 261 347 l 215 397 l 519 397 q 741 460 665 397 q 817 639 817 524 q 741 819 817 756 q 519 883 665 883 l 215 883 l 261 932 l 261 347 m 408 1051 l 599 1224 l 731 1224 l 506 1051 l 408 1051 z "},"Ṗ":{"ha":997,"x_min":158,"x_max":919,"o":"m 158 0 l 158 972 l 522 972 q 735 933 646 972 q 872 819 824 893 q 919 639 919 744 q 872 462 919 536 q 735 347 824 388 q 522 307 646 307 l 215 307 l 261 356 l 261 0 l 158 0 m 261 347 l 215 397 l 519 397 q 741 460 665 397 q 817 639 817 524 q 741 819 817 756 q 519 883 665 883 l 215 883 l 261 932 l 261 347 m 499 1083 q 451 1103 471 1083 q 432 1150 432 1122 q 451 1198 432 1179 q 499 1217 471 1217 q 546 1198 526 1217 q 565 1150 565 1179 q 546 1103 565 1122 q 499 1083 526 1083 z "},"Ƥ":{"ha":1215,"x_min":46,"x_max":1138,"o":"m 133 560 q 67 660 89 606 q 48 770 46 715 q 76 871 50 825 q 157 944 103 917 q 293 972 211 972 l 386 972 l 386 883 l 293 883 q 199 858 233 883 q 153 793 164 833 q 154 707 142 753 q 203 617 167 661 l 133 560 m 376 0 l 376 972 l 739 972 q 953 933 864 972 q 1090 819 1042 893 q 1138 639 1138 744 q 1090 462 1138 536 q 953 347 1042 388 q 739 307 864 307 l 432 307 l 478 356 l 478 0 l 376 0 m 478 347 l 432 397 l 738 397 q 959 460 883 397 q 1035 639 1035 524 q 959 819 1035 756 q 738 883 883 883 l 432 883 l 478 932 l 478 347 z "},"Þ":{"ha":997,"x_min":158,"x_max":919,"o":"m 235 179 l 235 269 l 519 269 q 741 333 665 269 q 817 514 817 397 q 741 693 817 629 q 519 757 665 757 l 235 757 l 235 846 l 522 846 q 735 806 646 846 q 872 692 824 765 q 919 514 919 618 q 872 335 919 410 q 735 219 824 260 q 522 179 646 179 l 235 179 m 158 0 l 158 972 l 261 972 l 261 0 l 158 0 z "},"Ᵽ":{"ha":1007,"x_min":18,"x_max":931,"o":"m 169 0 l 169 972 l 532 972 q 746 933 657 972 q 883 819 835 893 q 931 639 931 744 q 883 462 931 536 q 746 347 835 388 q 532 307 657 307 l 225 307 l 271 356 l 271 0 l 169 0 m 18 601 l 18 682 l 492 682 l 492 601 l 18 601 m 271 347 l 225 397 l 531 397 q 752 460 676 397 q 828 639 828 524 q 752 819 828 756 q 531 883 676 883 l 225 883 l 271 932 l 271 347 z "},"Q":{"ha":1165,"x_min":72,"x_max":1138,"o":"m 583 -8 q 380 28 474 -8 q 217 133 286 65 q 110 290 149 200 q 72 486 72 379 q 110 683 72 593 q 217 840 149 772 q 379 944 286 907 q 583 981 472 981 q 786 944 693 981 q 948 840 879 907 q 1055 683 1017 774 q 1093 486 1093 593 q 1055 289 1093 379 q 948 132 1017 199 q 786 28 879 65 q 583 -8 693 -8 m 901 -193 q 815 -182 857 -193 q 731 -147 774 -171 q 644 -83 689 -122 q 547 11 600 -44 l 660 39 q 744 -46 703 -12 q 824 -95 785 -79 q 903 -111 864 -111 q 1088 -22 1011 -111 l 1138 -82 q 901 -193 1046 -193 m 583 83 q 745 113 671 83 q 874 199 819 143 q 960 327 929 254 q 990 486 990 400 q 960 647 990 574 q 874 774 929 719 q 745 859 819 829 q 583 889 671 889 q 421 859 496 889 q 291 774 346 829 q 205 647 236 719 q 174 486 174 574 q 205 327 174 400 q 291 199 236 254 q 421 113 346 143 q 583 83 496 83 z "},"Ɋ":{"ha":1250,"x_min":72,"x_max":1303,"o":"m 576 -8 q 376 28 468 -8 q 215 133 283 65 q 110 290 147 200 q 72 486 72 379 q 110 683 72 593 q 215 840 147 772 q 376 944 283 907 q 576 981 468 981 q 772 944 682 981 q 929 840 863 907 q 1033 683 996 774 q 1069 486 1069 593 q 1033 289 1069 379 q 929 132 996 199 q 772 28 863 65 q 576 -8 682 -8 m 583 83 q 745 113 671 83 q 874 198 819 143 q 960 326 929 253 q 990 486 990 399 q 960 647 990 574 q 874 774 929 719 q 745 859 819 829 q 583 889 671 889 q 421 859 496 889 q 291 774 346 829 q 205 647 236 719 q 174 486 174 574 q 205 326 174 400 q 291 198 236 253 q 421 113 346 143 q 583 83 496 83 m 1303 -254 q 1196 -277 1251 -276 q 1093 -253 1140 -278 q 1016 -181 1046 -229 q 986 -60 986 -133 l 986 278 l 1000 488 l 986 697 l 986 964 l 1088 964 l 1088 -57 q 1117 -149 1088 -117 q 1189 -186 1146 -181 q 1274 -174 1232 -192 l 1303 -254 z "},"R":{"ha":1004,"x_min":158,"x_max":935,"o":"m 158 0 l 158 972 l 522 972 q 813 884 707 972 q 919 639 919 796 q 872 462 919 536 q 735 348 824 388 q 522 308 646 308 l 215 308 l 261 356 l 261 0 l 158 0 m 822 0 l 572 353 l 683 353 l 935 0 l 822 0 m 261 347 l 215 396 l 519 396 q 741 460 665 396 q 817 639 817 524 q 741 819 817 756 q 519 883 665 883 l 215 883 l 261 932 l 261 347 z "},"Ŕ":{"ha":1004,"x_min":158,"x_max":935,"o":"m 158 0 l 158 972 l 522 972 q 813 884 707 972 q 919 639 919 796 q 872 462 919 536 q 735 348 824 388 q 522 308 646 308 l 215 308 l 261 356 l 261 0 l 158 0 m 822 0 l 572 353 l 683 353 l 935 0 l 822 0 m 261 347 l 215 396 l 519 396 q 741 460 665 396 q 817 639 817 524 q 741 819 817 756 q 519 883 665 883 l 215 883 l 261 932 l 261 347 m 419 1051 l 610 1224 l 742 1224 l 517 1051 l 419 1051 z "},"Ř":{"ha":1004,"x_min":158,"x_max":935,"o":"m 158 0 l 158 972 l 522 972 q 813 884 707 972 q 919 639 919 796 q 872 462 919 536 q 735 348 824 388 q 522 308 646 308 l 215 308 l 261 356 l 261 0 l 158 0 m 822 0 l 572 353 l 683 353 l 935 0 l 822 0 m 261 347 l 215 396 l 519 396 q 741 460 665 396 q 817 639 817 524 q 741 819 817 756 q 519 883 665 883 l 215 883 l 261 932 l 261 347 m 460 1051 l 281 1224 l 372 1224 l 549 1078 l 471 1078 l 647 1224 l 739 1224 l 560 1051 l 460 1051 z "},"Ŗ":{"ha":1004,"x_min":158,"x_max":935,"o":"m 158 0 l 158 972 l 522 972 q 813 884 707 972 q 919 639 919 796 q 872 462 919 536 q 735 348 824 388 q 522 308 646 308 l 215 308 l 261 356 l 261 0 l 158 0 m 822 0 l 572 353 l 683 353 l 935 0 l 822 0 m 261 347 l 215 396 l 519 396 q 741 460 665 396 q 817 639 817 524 q 741 819 817 756 q 519 883 665 883 l 215 883 l 261 932 l 261 347 m 461 -350 l 500 -200 l 510 -239 q 467 -224 483 -239 q 450 -185 450 -208 q 467 -146 450 -161 q 510 -131 483 -131 q 553 -147 538 -131 q 569 -185 569 -162 q 566 -214 569 -199 q 554 -247 563 -229 l 515 -350 l 461 -350 z "},"Ȑ":{"ha":1004,"x_min":158,"x_max":935,"o":"m 158 0 l 158 972 l 522 972 q 813 884 707 972 q 919 639 919 796 q 872 462 919 536 q 735 348 824 388 q 522 308 646 308 l 215 308 l 261 356 l 261 0 l 158 0 m 822 0 l 572 353 l 683 353 l 935 0 l 822 0 m 261 347 l 215 396 l 519 396 q 741 460 665 396 q 817 639 817 524 q 741 819 817 756 q 519 883 665 883 l 215 883 l 261 932 l 261 347 m 579 1051 l 422 1224 l 532 1224 l 667 1051 l 579 1051 m 353 1051 l 197 1224 l 307 1224 l 440 1051 l 353 1051 z "},"Ṙ":{"ha":1004,"x_min":158,"x_max":935,"o":"m 158 0 l 158 972 l 522 972 q 813 884 707 972 q 919 639 919 796 q 872 462 919 536 q 735 348 824 388 q 522 308 646 308 l 215 308 l 261 356 l 261 0 l 158 0 m 822 0 l 572 353 l 683 353 l 935 0 l 822 0 m 261 347 l 215 396 l 519 396 q 741 460 665 396 q 817 639 817 524 q 741 819 817 756 q 519 883 665 883 l 215 883 l 261 932 l 261 347 m 510 1083 q 463 1103 482 1083 q 443 1150 443 1122 q 463 1198 443 1179 q 510 1217 482 1217 q 557 1198 538 1217 q 576 1150 576 1179 q 557 1103 576 1122 q 510 1083 538 1083 z "},"Ṛ":{"ha":1004,"x_min":158,"x_max":935,"o":"m 158 0 l 158 972 l 522 972 q 813 884 707 972 q 919 639 919 796 q 872 462 919 536 q 735 348 824 388 q 522 308 646 308 l 215 308 l 261 356 l 261 0 l 158 0 m 822 0 l 572 353 l 683 353 l 935 0 l 822 0 m 261 347 l 215 396 l 519 396 q 741 460 665 396 q 817 639 817 524 q 741 819 817 756 q 519 883 665 883 l 215 883 l 261 932 l 261 347 m 510 -253 q 463 -233 482 -253 q 443 -186 443 -214 q 463 -138 443 -157 q 510 -119 482 -119 q 557 -138 538 -119 q 576 -186 576 -157 q 557 -233 576 -214 q 510 -253 538 -253 z "},"Ṝ":{"ha":1004,"x_min":158,"x_max":935,"o":"m 158 0 l 158 972 l 522 972 q 813 884 707 972 q 919 639 919 796 q 872 462 919 536 q 735 348 824 388 q 522 308 646 308 l 215 308 l 261 356 l 261 0 l 158 0 m 822 0 l 572 353 l 683 353 l 935 0 l 822 0 m 261 347 l 215 396 l 519 396 q 741 460 665 396 q 817 639 817 524 q 741 819 817 756 q 519 883 665 883 l 215 883 l 261 932 l 261 347 m 510 -253 q 463 -233 482 -253 q 443 -186 443 -214 q 463 -138 443 -157 q 510 -119 482 -119 q 557 -138 538 -119 q 576 -186 576 -157 q 557 -233 576 -214 q 510 -253 538 -253 m 296 1104 l 296 1169 l 724 1169 l 724 1104 l 296 1104 z "},"Ȓ":{"ha":1004,"x_min":158,"x_max":935,"o":"m 158 0 l 158 972 l 522 972 q 813 884 707 972 q 919 639 919 796 q 872 462 919 536 q 735 348 824 388 q 522 308 646 308 l 215 308 l 261 356 l 261 0 l 158 0 m 822 0 l 572 353 l 683 353 l 935 0 l 822 0 m 261 347 l 215 396 l 519 396 q 741 460 665 396 q 817 639 817 524 q 741 819 817 756 q 519 883 665 883 l 215 883 l 261 932 l 261 347 m 299 1051 q 362 1182 301 1135 q 510 1229 422 1229 q 658 1182 597 1229 q 721 1051 718 1135 l 651 1051 q 609 1138 650 1106 q 510 1169 568 1169 q 412 1138 453 1169 q 368 1051 371 1106 l 299 1051 z "},"Ṟ":{"ha":1004,"x_min":158,"x_max":935,"o":"m 158 0 l 158 972 l 522 972 q 813 884 707 972 q 919 639 919 796 q 872 462 919 536 q 735 348 824 388 q 522 308 646 308 l 215 308 l 261 356 l 261 0 l 158 0 m 822 0 l 572 353 l 683 353 l 935 0 l 822 0 m 261 347 l 215 396 l 519 396 q 741 460 665 396 q 817 639 817 524 q 741 819 817 756 q 519 883 665 883 l 215 883 l 261 932 l 261 347 m 296 -221 l 296 -156 l 724 -156 l 724 -221 l 296 -221 z "},"Ɍ":{"ha":1004,"x_min":8,"x_max":935,"o":"m 158 0 l 158 972 l 522 972 q 813 884 707 972 q 919 639 919 796 q 872 462 919 536 q 735 348 824 388 q 522 308 646 308 l 215 308 l 261 356 l 261 0 l 158 0 m 822 0 l 572 353 l 683 353 l 935 0 l 822 0 m 261 347 l 215 396 l 519 396 q 741 460 665 396 q 817 639 817 524 q 741 819 817 756 q 519 883 665 883 l 215 883 l 261 932 l 261 347 m 8 314 l 8 396 l 456 396 l 456 314 l 8 314 z "},"Ɽ":{"ha":1046,"x_min":176,"x_max":953,"o":"m 542 -226 q 426 -273 489 -262 q 307 -264 364 -283 q 213 -194 250 -244 q 176 -60 176 -144 l 176 972 l 540 972 q 753 933 664 972 q 890 819 842 893 q 938 639 938 744 q 890 462 938 536 q 753 348 842 388 q 540 308 664 308 l 233 308 l 278 356 l 278 -57 q 300 -140 278 -108 q 356 -181 322 -171 q 430 -184 390 -192 q 506 -150 469 -176 l 542 -226 m 840 0 l 590 353 l 701 353 l 953 0 l 840 0 m 278 347 l 233 396 l 538 396 q 759 460 683 396 q 835 639 835 524 q 759 819 835 756 q 538 883 683 883 l 233 883 l 278 932 l 278 347 z "},"S":{"ha":854,"x_min":65,"x_max":789,"o":"m 426 -8 q 219 27 318 -8 q 65 118 119 63 l 106 197 q 244 113 157 147 q 426 79 331 79 q 576 102 518 79 q 660 164 633 125 q 688 250 688 203 q 655 342 688 307 q 569 397 622 376 q 453 432 517 417 q 325 465 389 447 q 208 511 261 482 q 122 588 154 540 q 89 714 89 636 q 127 847 89 786 q 244 944 165 907 q 447 981 324 981 q 610 958 529 981 q 749 894 690 935 l 714 813 q 581 874 651 854 q 446 893 511 893 q 301 869 358 893 q 217 806 244 846 q 190 717 190 767 q 223 625 190 660 q 309 571 256 590 q 426 536 363 551 q 553 503 490 521 q 670 456 617 485 q 756 381 724 428 q 789 257 789 333 q 750 126 789 186 q 631 28 711 65 q 426 -8 551 -8 z "},"Ś":{"ha":854,"x_min":65,"x_max":789,"o":"m 426 -8 q 219 27 318 -8 q 65 118 119 63 l 106 197 q 244 113 157 147 q 426 79 331 79 q 576 102 518 79 q 660 164 633 125 q 688 250 688 203 q 655 342 688 307 q 569 397 622 376 q 453 432 517 417 q 325 465 389 447 q 208 511 261 482 q 122 588 154 540 q 89 714 89 636 q 127 847 89 786 q 244 944 165 907 q 447 981 324 981 q 610 958 529 981 q 749 894 690 935 l 714 813 q 581 874 651 854 q 446 893 511 893 q 301 869 358 893 q 217 806 244 846 q 190 717 190 767 q 223 625 190 660 q 309 571 256 590 q 426 536 363 551 q 553 503 490 521 q 670 456 617 485 q 756 381 724 428 q 789 257 789 333 q 750 126 789 186 q 631 28 711 65 q 426 -8 551 -8 m 356 1051 l 546 1224 l 678 1224 l 453 1051 l 356 1051 z "},"Ṥ":{"ha":854,"x_min":65,"x_max":789,"o":"m 426 -8 q 219 27 318 -8 q 65 118 119 63 l 106 197 q 244 113 157 147 q 426 79 331 79 q 576 102 518 79 q 660 164 633 125 q 688 250 688 203 q 655 342 688 307 q 569 397 622 376 q 453 432 517 417 q 325 465 389 447 q 208 511 261 482 q 122 588 154 540 q 89 714 89 636 q 127 847 89 786 q 244 944 165 907 q 447 981 324 981 q 610 958 529 981 q 749 894 690 935 l 714 813 q 581 874 651 854 q 446 893 511 893 q 301 869 358 893 q 217 806 244 846 q 190 717 190 767 q 223 625 190 660 q 309 571 256 590 q 426 536 363 551 q 553 503 490 521 q 670 456 617 485 q 756 381 724 428 q 789 257 789 333 q 750 126 789 186 q 631 28 711 65 q 426 -8 551 -8 m 361 1051 l 529 1201 l 649 1201 l 449 1051 l 361 1051 m 460 1251 q 418 1269 436 1251 q 400 1311 400 1286 q 418 1354 400 1338 q 460 1371 436 1371 q 502 1354 485 1371 q 519 1311 519 1338 q 502 1269 519 1286 q 460 1251 485 1251 z "},"Š":{"ha":854,"x_min":65,"x_max":789,"o":"m 426 -8 q 219 27 318 -8 q 65 118 119 63 l 106 197 q 244 113 157 147 q 426 79 331 79 q 576 102 518 79 q 660 164 633 125 q 688 250 688 203 q 655 342 688 307 q 569 397 622 376 q 453 432 517 417 q 325 465 389 447 q 208 511 261 482 q 122 588 154 540 q 89 714 89 636 q 127 847 89 786 q 244 944 165 907 q 447 981 324 981 q 610 958 529 981 q 749 894 690 935 l 714 813 q 581 874 651 854 q 446 893 511 893 q 301 869 358 893 q 217 806 244 846 q 190 717 190 767 q 223 625 190 660 q 309 571 256 590 q 426 536 363 551 q 553 503 490 521 q 670 456 617 485 q 756 381 724 428 q 789 257 789 333 q 750 126 789 186 q 631 28 711 65 q 426 -8 551 -8 m 396 1051 l 217 1224 l 308 1224 l 485 1078 l 407 1078 l 583 1224 l 675 1224 l 496 1051 l 396 1051 z "},"Ṧ":{"ha":854,"x_min":65,"x_max":789,"o":"m 426 -8 q 219 27 318 -8 q 65 118 119 63 l 106 197 q 244 113 157 147 q 426 79 331 79 q 576 102 518 79 q 660 164 633 125 q 688 250 688 203 q 655 342 688 307 q 569 397 622 376 q 453 432 517 417 q 325 465 389 447 q 208 511 261 482 q 122 588 154 540 q 89 714 89 636 q 127 847 89 786 q 244 944 165 907 q 447 981 324 981 q 610 958 529 981 q 749 894 690 935 l 714 813 q 581 874 651 854 q 446 893 511 893 q 301 869 358 893 q 217 806 244 846 q 190 717 190 767 q 223 625 190 660 q 309 571 256 590 q 426 536 363 551 q 553 503 490 521 q 670 456 617 485 q 756 381 724 428 q 789 257 789 333 q 750 126 789 186 q 631 28 711 65 q 426 -8 551 -8 m 397 1057 l 217 1188 l 311 1188 l 485 1082 l 407 1082 l 581 1188 l 675 1188 l 494 1057 l 397 1057 m 446 1235 q 404 1252 422 1235 q 386 1294 386 1269 q 404 1338 386 1321 q 446 1354 422 1354 q 488 1338 471 1354 q 506 1294 506 1321 q 488 1252 506 1269 q 446 1235 471 1235 z "},"Ş":{"ha":854,"x_min":65,"x_max":789,"o":"m 426 -8 q 219 27 318 -8 q 65 118 119 63 l 106 197 q 244 113 157 147 q 426 79 331 79 q 576 102 518 79 q 660 164 633 125 q 688 250 688 203 q 655 342 688 307 q 569 397 622 376 q 453 432 517 417 q 325 465 389 447 q 208 511 261 482 q 122 588 154 540 q 89 714 89 636 q 127 847 89 786 q 244 944 165 907 q 447 981 324 981 q 610 958 529 981 q 749 894 690 935 l 714 813 q 581 874 651 854 q 446 893 511 893 q 301 869 358 893 q 217 806 244 846 q 190 717 190 767 q 223 625 190 660 q 309 571 256 590 q 426 536 363 551 q 553 503 490 521 q 670 456 617 485 q 756 381 724 428 q 789 257 789 333 q 750 126 789 186 q 631 28 711 65 q 426 -8 551 -8 m 415 -306 q 352 -297 381 -306 q 299 -274 324 -289 l 322 -221 q 366 -240 343 -233 q 414 -247 389 -247 q 478 -230 456 -247 q 500 -182 500 -212 q 478 -136 500 -154 q 414 -118 457 -118 l 382 -118 l 415 8 l 475 8 l 454 -72 q 542 -108 511 -76 q 572 -185 572 -139 q 528 -273 572 -240 q 415 -306 485 -306 z "},"Ŝ":{"ha":854,"x_min":65,"x_max":789,"o":"m 426 -8 q 219 27 318 -8 q 65 118 119 63 l 106 197 q 244 113 157 147 q 426 79 331 79 q 576 102 518 79 q 660 164 633 125 q 688 250 688 203 q 655 342 688 307 q 569 397 622 376 q 453 432 517 417 q 325 465 389 447 q 208 511 261 482 q 122 588 154 540 q 89 714 89 636 q 127 847 89 786 q 244 944 165 907 q 447 981 324 981 q 610 958 529 981 q 749 894 690 935 l 714 813 q 581 874 651 854 q 446 893 511 893 q 301 869 358 893 q 217 806 244 846 q 190 717 190 767 q 223 625 190 660 q 309 571 256 590 q 426 536 363 551 q 553 503 490 521 q 670 456 617 485 q 756 381 724 428 q 789 257 789 333 q 750 126 789 186 q 631 28 711 65 q 426 -8 551 -8 m 217 1051 l 396 1224 l 496 1224 l 675 1051 l 583 1051 l 407 1199 l 485 1199 l 308 1051 l 217 1051 z "},"Ș":{"ha":854,"x_min":65,"x_max":789,"o":"m 426 -8 q 219 27 318 -8 q 65 118 119 63 l 106 197 q 244 113 157 147 q 426 79 331 79 q 576 102 518 79 q 660 164 633 125 q 688 250 688 203 q 655 342 688 307 q 569 397 622 376 q 453 432 517 417 q 325 465 389 447 q 208 511 261 482 q 122 588 154 540 q 89 714 89 636 q 127 847 89 786 q 244 944 165 907 q 447 981 324 981 q 610 958 529 981 q 749 894 690 935 l 714 813 q 581 874 651 854 q 446 893 511 893 q 301 869 358 893 q 217 806 244 846 q 190 717 190 767 q 223 625 190 660 q 309 571 256 590 q 426 536 363 551 q 553 503 490 521 q 670 456 617 485 q 756 381 724 428 q 789 257 789 333 q 750 126 789 186 q 631 28 711 65 q 426 -8 551 -8 m 397 -350 l 436 -200 l 446 -239 q 403 -224 419 -239 q 386 -185 386 -208 q 403 -146 386 -161 q 446 -131 419 -131 q 490 -147 474 -131 q 506 -185 506 -162 q 502 -214 506 -199 q 490 -247 499 -229 l 451 -350 l 397 -350 z "},"Ṡ":{"ha":854,"x_min":65,"x_max":789,"o":"m 426 -8 q 219 27 318 -8 q 65 118 119 63 l 106 197 q 244 113 157 147 q 426 79 331 79 q 576 102 518 79 q 660 164 633 125 q 688 250 688 203 q 655 342 688 307 q 569 397 622 376 q 453 432 517 417 q 325 465 389 447 q 208 511 261 482 q 122 588 154 540 q 89 714 89 636 q 127 847 89 786 q 244 944 165 907 q 447 981 324 981 q 610 958 529 981 q 749 894 690 935 l 714 813 q 581 874 651 854 q 446 893 511 893 q 301 869 358 893 q 217 806 244 846 q 190 717 190 767 q 223 625 190 660 q 309 571 256 590 q 426 536 363 551 q 553 503 490 521 q 670 456 617 485 q 756 381 724 428 q 789 257 789 333 q 750 126 789 186 q 631 28 711 65 q 426 -8 551 -8 m 446 1083 q 399 1103 418 1083 q 379 1150 379 1122 q 399 1198 379 1179 q 446 1217 418 1217 q 493 1198 474 1217 q 513 1150 513 1179 q 493 1103 513 1122 q 446 1083 474 1083 z "},"Ṣ":{"ha":854,"x_min":65,"x_max":789,"o":"m 426 -8 q 219 27 318 -8 q 65 118 119 63 l 106 197 q 244 113 157 147 q 426 79 331 79 q 576 102 518 79 q 660 164 633 125 q 688 250 688 203 q 655 342 688 307 q 569 397 622 376 q 453 432 517 417 q 325 465 389 447 q 208 511 261 482 q 122 588 154 540 q 89 714 89 636 q 127 847 89 786 q 244 944 165 907 q 447 981 324 981 q 610 958 529 981 q 749 894 690 935 l 714 813 q 581 874 651 854 q 446 893 511 893 q 301 869 358 893 q 217 806 244 846 q 190 717 190 767 q 223 625 190 660 q 309 571 256 590 q 426 536 363 551 q 553 503 490 521 q 670 456 617 485 q 756 381 724 428 q 789 257 789 333 q 750 126 789 186 q 631 28 711 65 q 426 -8 551 -8 m 446 -253 q 399 -233 418 -253 q 379 -186 379 -214 q 399 -138 379 -157 q 446 -119 418 -119 q 493 -138 474 -119 q 513 -186 513 -157 q 493 -233 513 -214 q 446 -253 474 -253 z "},"Ṩ":{"ha":854,"x_min":65,"x_max":789,"o":"m 426 -8 q 219 27 318 -8 q 65 118 119 63 l 106 197 q 244 113 157 147 q 426 79 331 79 q 576 102 518 79 q 660 164 633 125 q 688 250 688 203 q 655 342 688 307 q 569 397 622 376 q 453 432 517 417 q 325 465 389 447 q 208 511 261 482 q 122 588 154 540 q 89 714 89 636 q 127 847 89 786 q 244 944 165 907 q 447 981 324 981 q 610 958 529 981 q 749 894 690 935 l 714 813 q 581 874 651 854 q 446 893 511 893 q 301 869 358 893 q 217 806 244 846 q 190 717 190 767 q 223 625 190 660 q 309 571 256 590 q 426 536 363 551 q 553 503 490 521 q 670 456 617 485 q 756 381 724 428 q 789 257 789 333 q 750 126 789 186 q 631 28 711 65 q 426 -8 551 -8 m 446 -253 q 399 -233 418 -253 q 379 -186 379 -214 q 399 -138 379 -157 q 446 -119 418 -119 q 493 -138 474 -119 q 513 -186 513 -157 q 493 -233 513 -214 q 446 -253 474 -253 m 446 1083 q 399 1103 418 1083 q 379 1150 379 1122 q 399 1198 379 1179 q 446 1217 418 1217 q 493 1198 474 1217 q 513 1150 513 1179 q 493 1103 513 1122 q 446 1083 474 1083 z "},"ẞ":{"ha":1050,"x_min":150,"x_max":974,"o":"m 639 -8 q 540 0 586 -8 q 450 28 493 8 l 468 114 q 547 88 504 97 q 638 79 589 79 q 807 130 744 79 q 869 279 869 181 q 806 429 869 379 q 633 479 742 479 q 572 475 603 479 q 515 463 540 471 l 494 515 l 828 878 l 838 808 q 715 873 783 853 q 572 893 647 893 q 334 809 415 893 q 253 567 253 725 l 253 0 l 150 0 l 150 571 q 199 790 150 699 q 342 931 249 882 q 567 981 435 981 q 683 970 625 981 q 792 939 740 960 q 883 885 843 918 l 883 817 l 579 488 l 540 546 q 592 557 564 554 q 649 560 619 560 q 816 527 743 560 q 931 431 889 494 q 974 275 974 368 q 932 120 974 183 q 815 24 890 57 q 639 -8 739 -8 z "},"Ꞩ":{"ha":854,"x_min":65,"x_max":789,"o":"m 426 -8 q 285 8 354 -8 q 159 53 215 24 q 65 118 103 82 l 106 197 q 244 113 157 147 q 426 79 331 79 q 576 102 518 79 q 660 164 633 125 q 688 250 688 203 q 655 342 688 307 q 569 397 622 376 q 453 432 517 417 q 325 465 389 447 q 208 511 261 482 q 122 588 154 540 q 89 714 89 636 q 127 847 89 786 q 244 944 165 907 q 447 981 324 981 q 610 958 529 981 q 749 894 690 935 l 714 813 q 581 874 651 854 q 446 893 511 893 q 301 869 358 893 q 217 806 244 846 q 190 717 190 767 q 223 625 190 660 q 309 571 256 590 q 426 536 363 551 q 553 503 490 521 q 670 456 617 485 q 756 381 724 428 q 789 257 789 333 q 750 126 789 186 q 631 28 711 65 q 426 -8 551 -8 m 326 258 l 260 293 l 492 713 l 558 679 l 326 258 z "},"T":{"ha":797,"x_min":6,"x_max":792,"o":"m 347 0 l 347 883 l 6 883 l 6 972 l 792 972 l 792 883 l 450 883 l 450 0 l 347 0 z "},"Ŧ":{"ha":797,"x_min":6,"x_max":792,"o":"m 347 0 l 347 883 l 6 883 l 6 972 l 792 972 l 792 883 l 450 883 l 450 0 l 347 0 m 128 454 l 128 538 l 669 538 l 669 454 l 128 454 z "},"Ť":{"ha":797,"x_min":6,"x_max":792,"o":"m 347 0 l 347 883 l 6 883 l 6 972 l 792 972 l 792 883 l 450 883 l 450 0 l 347 0 m 349 1051 l 169 1224 l 261 1224 l 438 1078 l 360 1078 l 536 1224 l 628 1224 l 449 1051 l 349 1051 z "},"Ţ":{"ha":797,"x_min":6,"x_max":792,"o":"m 347 0 l 347 883 l 6 883 l 6 972 l 792 972 l 792 883 l 450 883 l 450 0 l 347 0 m 368 -306 q 305 -297 333 -306 q 251 -274 276 -289 l 275 -221 q 319 -240 296 -233 q 367 -247 342 -247 q 431 -230 408 -247 q 453 -182 453 -212 q 431 -136 453 -154 q 367 -118 410 -118 l 335 -118 l 368 8 l 428 8 l 407 -72 q 494 -108 464 -76 q 525 -185 525 -139 q 481 -273 525 -240 q 368 -306 438 -306 z "},"Ṱ":{"ha":797,"x_min":6,"x_max":792,"o":"m 347 0 l 347 883 l 6 883 l 6 972 l 792 972 l 792 883 l 450 883 l 450 0 l 347 0 m 169 -275 l 349 -103 l 449 -103 l 628 -275 l 536 -275 l 360 -128 l 438 -128 l 261 -275 l 169 -275 z "},"Ț":{"ha":797,"x_min":6,"x_max":792,"o":"m 347 0 l 347 883 l 6 883 l 6 972 l 792 972 l 792 883 l 450 883 l 450 0 l 347 0 m 350 -350 l 389 -200 l 399 -239 q 356 -224 372 -239 q 339 -185 339 -208 q 356 -146 339 -161 q 399 -131 372 -131 q 442 -147 426 -131 q 458 -185 458 -162 q 455 -214 458 -199 q 443 -247 451 -229 l 404 -350 l 350 -350 z "},"Ⱦ":{"ha":794,"x_min":6,"x_max":789,"o":"m 347 0 l 347 883 l 6 883 l 6 972 l 789 972 l 789 883 l 446 883 l 446 0 l 347 0 m 122 -97 l 654 1069 l 738 1069 l 206 -97 l 122 -97 z "},"Ṫ":{"ha":797,"x_min":6,"x_max":792,"o":"m 347 0 l 347 883 l 6 883 l 6 972 l 792 972 l 792 883 l 450 883 l 450 0 l 347 0 m 399 1083 q 351 1103 371 1083 q 332 1150 332 1122 q 351 1198 332 1179 q 399 1217 371 1217 q 446 1198 426 1217 q 465 1150 465 1179 q 446 1103 465 1122 q 399 1083 426 1083 z "},"Ṭ":{"ha":797,"x_min":6,"x_max":792,"o":"m 347 0 l 347 883 l 6 883 l 6 972 l 792 972 l 792 883 l 450 883 l 450 0 l 347 0 m 399 -253 q 351 -233 371 -253 q 332 -186 332 -214 q 351 -138 332 -157 q 399 -119 371 -119 q 446 -138 426 -119 q 465 -186 465 -157 q 446 -233 465 -214 q 399 -253 426 -253 z "},"Ƭ":{"ha":886,"x_min":46,"x_max":881,"o":"m 436 0 l 436 904 l 460 883 l 286 883 q 188 857 224 883 q 142 789 153 831 q 147 700 132 747 q 199 610 161 653 l 132 561 q 67 662 89 607 q 48 772 46 717 q 76 872 50 826 q 155 944 103 917 q 286 972 207 972 l 881 972 l 881 883 l 517 883 l 538 904 l 538 0 l 436 0 z "},"Ṯ":{"ha":797,"x_min":6,"x_max":792,"o":"m 347 0 l 347 883 l 6 883 l 6 972 l 792 972 l 792 883 l 450 883 l 450 0 l 347 0 m 185 -221 l 185 -156 l 613 -156 l 613 -221 l 185 -221 z "},"Ʈ":{"ha":797,"x_min":6,"x_max":792,"o":"m 713 -226 q 597 -273 660 -262 q 478 -264 535 -283 q 384 -194 421 -244 q 347 -60 347 -143 l 347 899 l 450 899 l 450 -56 q 472 -140 450 -108 q 528 -181 493 -171 q 601 -184 563 -192 q 676 -150 640 -176 l 713 -226 m 6 883 l 6 972 l 792 972 l 792 883 l 6 883 z "},"Ʇ":{"ha":797,"x_min":6,"x_max":792,"o":"m 450 972 l 450 89 l 792 89 l 792 0 l 6 0 l 6 89 l 347 89 l 347 972 l 450 972 z "},"U":{"ha":1100,"x_min":150,"x_max":949,"o":"m 550 -8 q 257 99 364 -8 q 150 415 150 206 l 150 972 l 253 972 l 253 419 q 331 165 253 247 q 550 83 408 83 q 771 165 693 83 q 849 419 849 247 l 849 972 l 949 972 l 949 415 q 842 99 949 206 q 550 -8 736 -8 z "},"Ú":{"ha":1100,"x_min":150,"x_max":949,"o":"m 550 -8 q 257 99 364 -8 q 150 415 150 206 l 150 972 l 253 972 l 253 419 q 331 165 253 247 q 550 83 408 83 q 771 165 693 83 q 849 419 849 247 l 849 972 l 949 972 l 949 415 q 842 99 949 206 q 550 -8 736 -8 m 460 1051 l 650 1224 l 782 1224 l 557 1051 l 460 1051 z "},"Ʉ":{"ha":1099,"x_min":-1,"x_max":1100,"o":"m 549 -8 q 256 99 363 -8 q 150 415 150 206 l 150 972 l 251 972 l 251 419 q 329 165 251 247 q 550 83 407 83 q 770 165 692 83 q 849 419 849 247 l 849 972 l 949 972 l 949 415 q 842 99 949 206 q 549 -8 735 -8 m -1 454 l -1 538 l 1100 538 l 1100 454 l -1 454 z "},"Ŭ":{"ha":1100,"x_min":150,"x_max":949,"o":"m 550 -8 q 257 99 364 -8 q 150 415 150 206 l 150 972 l 253 972 l 253 419 q 331 165 253 247 q 550 83 408 83 q 771 165 693 83 q 849 419 849 247 l 849 972 l 949 972 l 949 415 q 842 99 949 206 q 550 -8 736 -8 m 550 1058 q 402 1106 463 1058 q 339 1238 342 1154 l 408 1238 q 452 1151 411 1183 q 550 1119 493 1119 q 649 1151 608 1119 q 692 1238 690 1183 l 761 1238 q 698 1106 758 1154 q 550 1058 638 1058 z "},"Ǔ":{"ha":1100,"x_min":150,"x_max":949,"o":"m 550 -8 q 257 99 364 -8 q 150 415 150 206 l 150 972 l 253 972 l 253 419 q 331 165 253 247 q 550 83 408 83 q 771 165 693 83 q 849 419 849 247 l 849 972 l 949 972 l 949 415 q 842 99 949 206 q 550 -8 736 -8 m 500 1051 l 321 1224 l 413 1224 l 589 1078 l 511 1078 l 688 1224 l 779 1224 l 600 1051 l 500 1051 z "},"Û":{"ha":1100,"x_min":150,"x_max":949,"o":"m 550 -8 q 257 99 364 -8 q 150 415 150 206 l 150 972 l 253 972 l 253 419 q 331 165 253 247 q 550 83 408 83 q 771 165 693 83 q 849 419 849 247 l 849 972 l 949 972 l 949 415 q 842 99 949 206 q 550 -8 736 -8 m 321 1051 l 500 1224 l 600 1224 l 779 1051 l 688 1051 l 511 1199 l 589 1199 l 413 1051 l 321 1051 z "},"Ṷ":{"ha":1100,"x_min":150,"x_max":949,"o":"m 550 -8 q 257 99 364 -8 q 150 415 150 206 l 150 972 l 253 972 l 253 419 q 331 165 253 247 q 550 83 408 83 q 771 165 693 83 q 849 419 849 247 l 849 972 l 949 972 l 949 415 q 842 99 949 206 q 550 -8 736 -8 m 321 -275 l 500 -103 l 600 -103 l 779 -275 l 688 -275 l 511 -128 l 589 -128 l 413 -275 l 321 -275 z "},"Ȕ":{"ha":1100,"x_min":150,"x_max":949,"o":"m 550 -8 q 257 99 364 -8 q 150 415 150 206 l 150 972 l 253 972 l 253 419 q 331 165 253 247 q 550 83 408 83 q 771 165 693 83 q 849 419 849 247 l 849 972 l 949 972 l 949 415 q 842 99 949 206 q 550 -8 736 -8 m 619 1051 l 463 1224 l 572 1224 l 707 1051 l 619 1051 m 393 1051 l 238 1224 l 347 1224 l 481 1051 l 393 1051 z "},"Ü":{"ha":1100,"x_min":150,"x_max":949,"o":"m 550 -8 q 257 99 364 -8 q 150 415 150 206 l 150 972 l 253 972 l 253 419 q 331 165 253 247 q 550 83 408 83 q 771 165 693 83 q 849 419 849 247 l 849 972 l 949 972 l 949 415 q 842 99 949 206 q 550 -8 736 -8 m 674 1083 q 632 1100 650 1083 q 614 1143 614 1117 q 632 1186 614 1169 q 674 1203 650 1203 q 716 1186 699 1203 q 733 1143 733 1169 q 716 1100 733 1117 q 674 1083 699 1083 m 426 1083 q 384 1100 401 1083 q 367 1143 367 1117 q 384 1186 367 1169 q 426 1203 401 1203 q 468 1186 450 1203 q 486 1143 486 1169 q 468 1100 486 1117 q 426 1083 450 1083 z "},"Ǘ":{"ha":1100,"x_min":150,"x_max":949,"o":"m 550 -8 q 257 99 364 -8 q 150 415 150 206 l 150 972 l 253 972 l 253 419 q 331 165 253 247 q 550 83 408 83 q 771 165 693 83 q 849 419 849 247 l 849 972 l 949 972 l 949 415 q 842 99 949 206 q 550 -8 736 -8 m 672 1076 q 631 1094 649 1076 q 614 1135 614 1111 q 631 1176 614 1160 q 672 1193 649 1193 q 713 1176 696 1193 q 731 1135 731 1160 q 713 1094 731 1111 q 672 1076 696 1076 m 428 1076 q 388 1094 406 1076 q 369 1135 369 1111 q 388 1176 369 1160 q 428 1193 406 1193 q 469 1176 453 1193 q 486 1135 486 1160 q 469 1094 486 1111 q 428 1076 453 1076 m 465 1235 l 633 1385 l 753 1385 l 553 1235 l 465 1235 z "},"Ṳ":{"ha":1100,"x_min":150,"x_max":949,"o":"m 550 -8 q 257 99 364 -8 q 150 415 150 206 l 150 972 l 253 972 l 253 419 q 331 165 253 247 q 550 83 408 83 q 771 165 693 83 q 849 419 849 247 l 849 972 l 949 972 l 949 415 q 842 99 949 206 q 550 -8 736 -8 m 674 -243 q 632 -226 650 -243 q 614 -183 614 -210 q 632 -140 614 -157 q 674 -124 650 -124 q 716 -140 699 -124 q 733 -183 733 -157 q 716 -226 733 -210 q 674 -243 699 -243 m 426 -243 q 384 -226 401 -243 q 367 -183 367 -210 q 384 -140 367 -157 q 426 -124 401 -124 q 468 -140 450 -124 q 486 -183 486 -157 q 468 -226 486 -210 q 426 -243 450 -243 z "},"Ǚ":{"ha":1100,"x_min":150,"x_max":949,"o":"m 550 -8 q 257 99 364 -8 q 150 415 150 206 l 150 972 l 253 972 l 253 419 q 331 165 253 247 q 550 83 408 83 q 771 165 693 83 q 849 419 849 247 l 849 972 l 949 972 l 949 415 q 842 99 949 206 q 550 -8 736 -8 m 674 1083 q 632 1100 650 1083 q 614 1143 614 1117 q 632 1186 614 1169 q 674 1203 650 1203 q 716 1186 699 1203 q 733 1143 733 1169 q 716 1100 733 1117 q 674 1083 699 1083 m 426 1083 q 384 1100 401 1083 q 367 1143 367 1117 q 384 1186 367 1169 q 426 1203 401 1203 q 468 1186 450 1203 q 486 1143 486 1169 q 468 1100 486 1117 q 426 1083 450 1083 m 500 1239 l 321 1411 l 413 1411 l 589 1265 l 511 1265 l 688 1411 l 779 1411 l 600 1239 l 500 1239 z "},"Ǜ":{"ha":1100,"x_min":150,"x_max":949,"o":"m 550 -8 q 257 99 364 -8 q 150 415 150 206 l 150 972 l 253 972 l 253 419 q 331 165 253 247 q 550 83 408 83 q 771 165 693 83 q 849 419 849 247 l 849 972 l 949 972 l 949 415 q 842 99 949 206 q 550 -8 736 -8 m 672 1076 q 631 1094 649 1076 q 614 1135 614 1111 q 631 1176 614 1160 q 672 1193 649 1193 q 713 1176 696 1193 q 731 1135 731 1160 q 713 1094 731 1111 q 672 1076 696 1076 m 428 1076 q 388 1094 406 1076 q 369 1135 369 1111 q 388 1176 369 1160 q 428 1193 406 1193 q 469 1176 453 1193 q 486 1135 486 1160 q 469 1094 486 1111 q 428 1076 453 1076 m 549 1235 l 347 1385 l 468 1385 l 635 1235 l 549 1235 z "},"Ǖ":{"ha":1100,"x_min":150,"x_max":949,"o":"m 550 -8 q 257 99 364 -8 q 150 415 150 206 l 150 972 l 253 972 l 253 419 q 331 165 253 247 q 550 83 408 83 q 771 165 693 83 q 849 419 849 247 l 849 972 l 949 972 l 949 415 q 842 99 949 206 q 550 -8 736 -8 m 672 1069 q 631 1087 649 1069 q 614 1128 614 1104 q 631 1169 614 1153 q 672 1186 649 1186 q 713 1169 696 1186 q 731 1128 731 1153 q 713 1087 731 1104 q 672 1069 696 1069 m 428 1069 q 388 1087 406 1069 q 369 1128 369 1104 q 388 1169 369 1153 q 428 1186 406 1186 q 469 1169 453 1186 q 486 1128 486 1153 q 469 1087 486 1104 q 428 1069 453 1069 m 336 1281 l 336 1343 l 764 1343 l 764 1281 l 336 1281 z "},"Ụ":{"ha":1100,"x_min":150,"x_max":949,"o":"m 550 -8 q 257 99 364 -8 q 150 415 150 206 l 150 972 l 253 972 l 253 419 q 331 165 253 247 q 550 83 408 83 q 771 165 693 83 q 849 419 849 247 l 849 972 l 949 972 l 949 415 q 842 99 949 206 q 550 -8 736 -8 m 550 -253 q 503 -233 522 -253 q 483 -186 483 -214 q 503 -138 483 -157 q 550 -119 522 -119 q 597 -138 578 -119 q 617 -186 617 -157 q 597 -233 617 -214 q 550 -253 578 -253 z "},"Ù":{"ha":1100,"x_min":150,"x_max":949,"o":"m 550 -8 q 257 99 364 -8 q 150 415 150 206 l 150 972 l 253 972 l 253 419 q 331 165 253 247 q 550 83 408 83 q 771 165 693 83 q 849 419 849 247 l 849 972 l 949 972 l 949 415 q 842 99 949 206 q 550 -8 736 -8 m 543 1051 l 318 1224 l 450 1224 l 640 1051 l 543 1051 z "},"Ủ":{"ha":1100,"x_min":150,"x_max":949,"o":"m 550 -8 q 257 99 364 -8 q 150 415 150 206 l 150 972 l 253 972 l 253 419 q 331 165 253 247 q 550 83 408 83 q 771 165 693 83 q 849 419 849 247 l 849 972 l 949 972 l 949 415 q 842 99 949 206 q 550 -8 736 -8 m 551 1019 l 517 1063 q 578 1106 558 1082 q 599 1161 599 1129 q 578 1210 599 1190 q 522 1229 557 1229 q 439 1203 479 1229 l 415 1251 q 470 1278 439 1269 q 531 1288 501 1288 q 599 1273 569 1288 q 646 1232 629 1258 q 663 1168 663 1206 q 635 1083 663 1119 q 551 1019 608 1046 z "},"Ư":{"ha":1107,"x_min":150,"x_max":1088,"o":"m 550 -8 q 257 99 364 -8 q 150 415 150 206 l 150 972 l 253 972 l 253 419 q 331 165 253 247 q 550 83 408 83 q 771 165 693 83 q 849 419 849 247 l 849 972 l 949 972 l 949 415 q 842 99 949 206 q 550 -8 736 -8 m 901 897 l 901 972 l 922 972 q 992 1000 971 972 q 1014 1067 1014 1028 q 1006 1115 1014 1093 q 986 1156 999 1138 l 1051 1181 q 1078 1127 1068 1157 q 1088 1064 1088 1097 q 1046 944 1088 990 q 922 897 1004 897 l 901 897 z "},"Ứ":{"ha":1107,"x_min":150,"x_max":1088,"o":"m 550 -8 q 257 99 364 -8 q 150 415 150 206 l 150 972 l 253 972 l 253 419 q 331 165 253 247 q 550 83 408 83 q 771 165 693 83 q 849 419 849 247 l 849 972 l 949 972 l 949 415 q 842 99 949 206 q 550 -8 736 -8 m 901 897 l 901 972 l 922 972 q 992 1000 971 972 q 1014 1067 1014 1028 q 1006 1115 1014 1093 q 986 1156 999 1138 l 1051 1181 q 1078 1127 1068 1157 q 1088 1064 1088 1097 q 1046 944 1088 990 q 922 897 1004 897 l 901 897 m 460 1051 l 650 1224 l 782 1224 l 557 1051 l 460 1051 z "},"Ự":{"ha":1107,"x_min":150,"x_max":1088,"o":"m 550 -8 q 257 99 364 -8 q 150 415 150 206 l 150 972 l 253 972 l 253 419 q 331 165 253 247 q 550 83 408 83 q 771 165 693 83 q 849 419 849 247 l 849 972 l 949 972 l 949 415 q 842 99 949 206 q 550 -8 736 -8 m 901 897 l 901 972 l 922 972 q 992 1000 971 972 q 1014 1067 1014 1028 q 1006 1115 1014 1093 q 986 1156 999 1138 l 1051 1181 q 1078 1127 1068 1157 q 1088 1064 1088 1097 q 1046 944 1088 990 q 922 897 1004 897 l 901 897 m 550 -253 q 503 -233 522 -253 q 483 -186 483 -214 q 503 -138 483 -157 q 550 -119 522 -119 q 597 -138 578 -119 q 617 -186 617 -157 q 597 -233 617 -214 q 550 -253 578 -253 z "},"Ừ":{"ha":1107,"x_min":150,"x_max":1088,"o":"m 550 -8 q 257 99 364 -8 q 150 415 150 206 l 150 972 l 253 972 l 253 419 q 331 165 253 247 q 550 83 408 83 q 771 165 693 83 q 849 419 849 247 l 849 972 l 949 972 l 949 415 q 842 99 949 206 q 550 -8 736 -8 m 901 897 l 901 972 l 922 972 q 992 1000 971 972 q 1014 1067 1014 1028 q 1006 1115 1014 1093 q 986 1156 999 1138 l 1051 1181 q 1078 1127 1068 1157 q 1088 1064 1088 1097 q 1046 944 1088 990 q 922 897 1004 897 l 901 897 m 543 1051 l 318 1224 l 450 1224 l 640 1051 l 543 1051 z "},"Ử":{"ha":1107,"x_min":150,"x_max":1088,"o":"m 550 -8 q 257 99 364 -8 q 150 415 150 206 l 150 972 l 253 972 l 253 419 q 331 165 253 247 q 550 83 408 83 q 771 165 693 83 q 849 419 849 247 l 849 972 l 949 972 l 949 415 q 842 99 949 206 q 550 -8 736 -8 m 901 897 l 901 972 l 922 972 q 992 1000 971 972 q 1014 1067 1014 1028 q 1006 1115 1014 1093 q 986 1156 999 1138 l 1051 1181 q 1078 1127 1068 1157 q 1088 1064 1088 1097 q 1046 944 1088 990 q 922 897 1004 897 l 901 897 m 551 1019 l 517 1063 q 578 1106 558 1082 q 599 1161 599 1129 q 578 1210 599 1190 q 522 1229 557 1229 q 439 1203 479 1229 l 415 1251 q 470 1278 439 1269 q 531 1288 501 1288 q 599 1273 569 1288 q 646 1232 629 1258 q 663 1168 663 1206 q 635 1083 663 1119 q 551 1019 608 1046 z "},"Ữ":{"ha":1107,"x_min":150,"x_max":1088,"o":"m 550 -8 q 257 99 364 -8 q 150 415 150 206 l 150 972 l 253 972 l 253 419 q 331 165 253 247 q 550 83 408 83 q 771 165 693 83 q 849 419 849 247 l 849 972 l 949 972 l 949 415 q 842 99 949 206 q 550 -8 736 -8 m 901 897 l 901 972 l 922 972 q 992 1000 971 972 q 1014 1067 1014 1028 q 1006 1115 1014 1093 q 986 1156 999 1138 l 1051 1181 q 1078 1127 1068 1157 q 1088 1064 1088 1097 q 1046 944 1088 990 q 922 897 1004 897 l 901 897 m 654 1056 q 591 1071 618 1056 q 542 1105 564 1086 q 499 1139 521 1124 q 450 1154 476 1154 q 399 1128 418 1154 q 378 1061 381 1101 l 314 1061 q 350 1176 315 1129 q 446 1222 385 1222 q 509 1207 482 1222 q 558 1173 536 1192 q 602 1139 581 1154 q 650 1124 624 1124 q 701 1151 682 1124 q 722 1214 721 1178 l 785 1214 q 749 1101 783 1146 q 654 1056 715 1056 z "},"Ű":{"ha":1100,"x_min":150,"x_max":949,"o":"m 550 -8 q 257 99 364 -8 q 150 415 150 206 l 150 972 l 253 972 l 253 419 q 331 165 253 247 q 550 83 408 83 q 771 165 693 83 q 849 419 849 247 l 849 972 l 949 972 l 949 415 q 842 99 949 206 q 550 -8 736 -8 m 619 1051 l 753 1224 l 863 1224 l 707 1051 l 619 1051 m 393 1051 l 528 1224 l 638 1224 l 481 1051 l 393 1051 z "},"Ȗ":{"ha":1100,"x_min":150,"x_max":949,"o":"m 550 -8 q 257 99 364 -8 q 150 415 150 206 l 150 972 l 253 972 l 253 419 q 331 165 253 247 q 550 83 408 83 q 771 165 693 83 q 849 419 849 247 l 849 972 l 949 972 l 949 415 q 842 99 949 206 q 550 -8 736 -8 m 339 1051 q 402 1182 342 1135 q 550 1229 463 1229 q 698 1182 638 1229 q 761 1051 758 1135 l 692 1051 q 649 1138 690 1106 q 550 1169 608 1169 q 452 1138 493 1169 q 408 1051 411 1106 l 339 1051 z "},"Ū":{"ha":1100,"x_min":150,"x_max":949,"o":"m 550 -8 q 257 99 364 -8 q 150 415 150 206 l 150 972 l 253 972 l 253 419 q 331 165 253 247 q 550 83 408 83 q 771 165 693 83 q 849 419 849 247 l 849 972 l 949 972 l 949 415 q 842 99 949 206 q 550 -8 736 -8 m 336 1104 l 336 1169 l 764 1169 l 764 1104 l 336 1104 z "},"Ṻ":{"ha":1100,"x_min":150,"x_max":949,"o":"m 550 -8 q 257 99 364 -8 q 150 415 150 206 l 150 972 l 253 972 l 253 419 q 331 165 253 247 q 550 83 408 83 q 771 165 693 83 q 849 419 849 247 l 849 972 l 949 972 l 949 415 q 842 99 949 206 q 550 -8 736 -8 m 336 1093 l 336 1156 l 764 1156 l 764 1093 l 336 1093 m 672 1260 q 631 1277 649 1260 q 614 1318 614 1294 q 631 1360 614 1343 q 672 1376 649 1376 q 713 1360 696 1376 q 731 1318 731 1343 q 713 1277 731 1294 q 672 1260 696 1260 m 428 1260 q 388 1277 406 1260 q 369 1318 369 1294 q 388 1360 369 1343 q 428 1376 406 1376 q 469 1360 453 1376 q 486 1318 486 1343 q 469 1277 486 1294 q 428 1260 453 1260 z "},"Ų":{"ha":1100,"x_min":150,"x_max":949,"o":"m 574 -306 q 463 -269 504 -306 q 421 -174 421 -233 q 438 -103 421 -140 q 498 -31 456 -67 q 617 36 540 6 l 607 -6 q 578 -8 593 -7 q 550 -8 564 -8 q 257 99 364 -8 q 150 415 150 206 l 150 972 l 253 972 l 253 419 q 331 165 253 247 q 550 83 408 83 q 771 165 693 83 q 849 419 849 247 l 849 972 l 949 972 l 949 415 q 882 149 949 246 q 700 11 815 51 q 569 -50 614 -18 q 510 -112 525 -82 q 494 -167 494 -142 q 520 -225 494 -206 q 585 -244 546 -244 q 630 -237 607 -244 q 669 -218 653 -231 l 692 -272 q 638 -297 668 -287 q 574 -306 607 -306 z "},"Ʊ":{"ha":1185,"x_min":21,"x_max":1164,"o":"m 1164 972 l 1164 882 l 896 882 q 1049 706 996 811 q 1103 478 1103 600 q 1064 282 1103 371 q 956 128 1025 193 q 794 27 888 63 q 593 -8 701 -8 q 392 27 485 -8 q 229 128 299 63 q 122 282 160 193 q 83 478 83 371 q 136 706 83 600 q 290 882 189 811 l 21 882 l 21 972 l 449 972 l 449 889 q 253 715 319 822 q 186 482 186 607 q 216 322 186 394 q 301 195 246 249 q 430 113 356 142 q 593 83 504 83 q 756 113 681 83 q 885 195 831 142 q 969 322 939 249 q 1000 482 1000 394 q 933 716 1000 608 q 738 889 867 824 l 738 972 l 1164 972 z "},"Ů":{"ha":1100,"x_min":150,"x_max":949,"o":"m 550 -8 q 257 99 364 -8 q 150 415 150 206 l 150 972 l 253 972 l 253 419 q 331 165 253 247 q 550 83 408 83 q 771 165 693 83 q 849 419 849 247 l 849 972 l 949 972 l 949 415 q 842 99 949 206 q 550 -8 736 -8 m 549 1035 q 474 1054 507 1035 q 423 1106 442 1074 q 404 1176 404 1138 q 424 1249 404 1215 q 476 1302 443 1282 q 549 1322 508 1322 q 623 1302 590 1322 q 675 1249 656 1282 q 694 1176 694 1215 q 675 1106 694 1138 q 623 1054 656 1074 q 549 1035 590 1035 m 549 1083 q 617 1110 590 1083 q 643 1176 643 1138 q 617 1245 643 1217 q 549 1274 590 1274 q 482 1246 508 1274 q 456 1176 456 1218 q 481 1110 456 1136 q 549 1083 507 1083 z "},"Ũ":{"ha":1100,"x_min":150,"x_max":949,"o":"m 550 -8 q 257 99 364 -8 q 150 415 150 206 l 150 972 l 253 972 l 253 419 q 331 165 253 247 q 550 83 408 83 q 771 165 693 83 q 849 419 849 247 l 849 972 l 949 972 l 949 415 q 842 99 949 206 q 550 -8 736 -8 m 654 1056 q 591 1071 618 1056 q 542 1105 564 1086 q 499 1139 521 1124 q 450 1154 476 1154 q 399 1128 418 1154 q 378 1061 381 1101 l 314 1061 q 350 1176 315 1129 q 446 1222 385 1222 q 509 1207 482 1222 q 558 1173 536 1192 q 602 1139 581 1154 q 650 1124 624 1124 q 701 1151 682 1124 q 722 1214 721 1178 l 785 1214 q 749 1101 783 1146 q 654 1056 715 1056 z "},"Ṹ":{"ha":1100,"x_min":150,"x_max":949,"o":"m 550 -8 q 257 99 364 -8 q 150 415 150 206 l 150 972 l 253 972 l 253 419 q 331 165 253 247 q 550 83 408 83 q 771 165 693 83 q 849 419 849 247 l 849 972 l 949 972 l 949 415 q 842 99 949 206 q 550 -8 736 -8 m 643 1063 q 587 1074 611 1063 q 542 1100 563 1085 q 501 1126 521 1115 q 461 1138 482 1138 q 413 1119 429 1138 q 394 1068 396 1101 l 335 1068 q 369 1162 336 1128 q 458 1196 403 1196 q 530 1177 500 1196 q 586 1140 560 1158 q 639 1121 613 1121 q 688 1139 671 1121 q 707 1189 706 1157 l 765 1189 q 731 1097 764 1132 q 643 1063 699 1063 m 465 1235 l 633 1385 l 753 1385 l 553 1235 l 465 1235 z "},"Ṵ":{"ha":1100,"x_min":150,"x_max":949,"o":"m 550 -8 q 257 99 364 -8 q 150 415 150 206 l 150 972 l 253 972 l 253 419 q 331 165 253 247 q 550 83 408 83 q 771 165 693 83 q 849 419 849 247 l 849 972 l 949 972 l 949 415 q 842 99 949 206 q 550 -8 736 -8 m 654 -256 q 591 -240 618 -256 q 542 -206 564 -225 q 499 -172 521 -187 q 450 -157 476 -157 q 399 -183 418 -157 q 378 -250 381 -210 l 314 -250 q 350 -135 315 -182 q 446 -89 385 -89 q 509 -104 482 -89 q 558 -138 536 -119 q 602 -172 581 -157 q 650 -187 624 -187 q 701 -160 682 -187 q 722 -97 721 -133 l 785 -97 q 749 -210 783 -165 q 654 -256 715 -256 z "},"V":{"ha":969,"x_min":4,"x_max":967,"o":"m 435 0 l 4 972 l 115 972 l 518 57 l 457 57 l 863 972 l 967 972 l 536 0 l 435 0 z "},"Ɣ":{"ha":882,"x_min":-4,"x_max":890,"o":"m 438 -279 q 356 -259 393 -279 q 297 -203 319 -239 q 275 -122 275 -168 q 292 -35 275 -82 q 335 58 310 11 q 384 146 360 104 q 424 218 408 188 l 788 972 l 890 972 l 496 154 q 459 90 482 125 q 413 16 436 54 q 374 -58 390 -22 q 358 -122 358 -93 q 382 -178 358 -157 q 438 -200 406 -200 q 494 -179 469 -200 q 518 -122 518 -158 q 505 -61 518 -96 q 472 12 492 -26 q 430 87 451 50 q 394 156 408 124 l -4 972 l 107 972 l 469 218 q 506 147 483 188 q 549 59 528 106 q 585 -34 571 13 q 600 -119 600 -81 q 578 -202 600 -167 q 519 -258 557 -237 q 438 -279 482 -279 z "},"Ṿ":{"ha":969,"x_min":4,"x_max":967,"o":"m 435 0 l 4 972 l 115 972 l 518 57 l 457 57 l 863 972 l 967 972 l 536 0 l 435 0 m 485 -253 q 438 -233 457 -253 q 418 -186 418 -214 q 438 -138 418 -157 q 485 -119 457 -119 q 532 -138 513 -119 q 551 -186 551 -157 q 532 -233 551 -214 q 485 -253 513 -253 z "},"Ʋ":{"ha":1088,"x_min":147,"x_max":949,"o":"m 547 -8 q 254 99 361 -8 q 147 415 147 206 l 147 972 l 250 972 l 250 419 q 328 165 250 247 q 547 83 406 83 q 768 165 690 83 q 846 419 846 247 l 846 768 q 824 854 846 822 q 765 897 801 886 q 688 897 729 907 q 613 860 647 888 l 575 936 q 690 987 626 975 q 813 981 754 999 q 910 911 872 963 q 949 771 949 860 l 949 415 q 841 99 949 206 q 547 -8 733 -8 z "},"Ṽ":{"ha":969,"x_min":4,"x_max":967,"o":"m 435 0 l 4 972 l 115 972 l 518 57 l 457 57 l 863 972 l 967 972 l 536 0 l 435 0 m 589 1056 q 526 1071 553 1056 q 477 1105 499 1086 q 433 1139 456 1124 q 385 1154 411 1154 q 334 1128 353 1154 q 313 1061 315 1101 l 249 1061 q 285 1176 250 1129 q 381 1222 319 1222 q 444 1207 417 1222 q 493 1173 471 1192 q 537 1139 515 1154 q 585 1124 558 1124 q 636 1151 617 1124 q 657 1214 656 1178 l 719 1214 q 684 1101 718 1146 q 589 1056 650 1056 z "},"Ʌ":{"ha":969,"x_min":4,"x_max":967,"o":"m 535 972 l 967 0 l 854 0 l 451 915 l 513 915 l 107 0 l 4 0 l 435 972 l 535 972 z "},"W":{"ha":1543,"x_min":51,"x_max":1493,"o":"m 379 0 l 51 972 l 157 972 l 464 57 l 411 57 l 728 972 l 822 972 l 1135 57 l 1085 57 l 1394 972 l 1493 972 l 1165 0 l 1057 0 l 758 868 l 786 868 l 486 0 l 379 0 z "},"Ẃ":{"ha":1543,"x_min":51,"x_max":1493,"o":"m 379 0 l 51 972 l 157 972 l 464 57 l 411 57 l 728 972 l 822 972 l 1135 57 l 1085 57 l 1394 972 l 1493 972 l 1165 0 l 1057 0 l 758 868 l 786 868 l 486 0 l 379 0 m 682 1051 l 872 1224 l 1004 1224 l 779 1051 l 682 1051 z "},"Ŵ":{"ha":1543,"x_min":51,"x_max":1493,"o":"m 379 0 l 51 972 l 157 972 l 464 57 l 411 57 l 728 972 l 822 972 l 1135 57 l 1085 57 l 1394 972 l 1493 972 l 1165 0 l 1057 0 l 758 868 l 786 868 l 486 0 l 379 0 m 543 1051 l 722 1224 l 822 1224 l 1001 1051 l 910 1051 l 733 1199 l 811 1199 l 635 1051 l 543 1051 z "},"Ẅ":{"ha":1543,"x_min":51,"x_max":1493,"o":"m 379 0 l 51 972 l 157 972 l 464 57 l 411 57 l 728 972 l 822 972 l 1135 57 l 1085 57 l 1394 972 l 1493 972 l 1165 0 l 1057 0 l 758 868 l 786 868 l 486 0 l 379 0 m 896 1083 q 854 1100 872 1083 q 836 1143 836 1117 q 854 1186 836 1169 q 896 1203 872 1203 q 938 1186 921 1203 q 956 1143 956 1169 q 938 1100 956 1117 q 896 1083 921 1083 m 649 1083 q 606 1100 624 1083 q 589 1143 589 1117 q 606 1186 589 1169 q 649 1203 624 1203 q 690 1186 672 1203 q 708 1143 708 1169 q 690 1100 708 1117 q 649 1083 672 1083 z "},"Ẇ":{"ha":1543,"x_min":51,"x_max":1493,"o":"m 379 0 l 51 972 l 157 972 l 464 57 l 411 57 l 728 972 l 822 972 l 1135 57 l 1085 57 l 1394 972 l 1493 972 l 1165 0 l 1057 0 l 758 868 l 786 868 l 486 0 l 379 0 m 772 1083 q 725 1103 744 1083 q 706 1150 706 1122 q 725 1198 706 1179 q 772 1217 744 1217 q 819 1198 800 1217 q 839 1150 839 1179 q 819 1103 839 1122 q 772 1083 800 1083 z "},"Ẉ":{"ha":1543,"x_min":51,"x_max":1493,"o":"m 379 0 l 51 972 l 157 972 l 464 57 l 411 57 l 728 972 l 822 972 l 1135 57 l 1085 57 l 1394 972 l 1493 972 l 1165 0 l 1057 0 l 758 868 l 786 868 l 486 0 l 379 0 m 772 -253 q 725 -233 744 -253 q 706 -186 706 -214 q 725 -138 706 -157 q 772 -119 744 -119 q 819 -138 800 -119 q 839 -186 839 -157 q 819 -233 839 -214 q 772 -253 800 -253 z "},"Ẁ":{"ha":1543,"x_min":51,"x_max":1493,"o":"m 379 0 l 51 972 l 157 972 l 464 57 l 411 57 l 728 972 l 822 972 l 1135 57 l 1085 57 l 1394 972 l 1493 972 l 1165 0 l 1057 0 l 758 868 l 786 868 l 486 0 l 379 0 m 765 1051 l 540 1224 l 672 1224 l 863 1051 l 765 1051 z "},"Ⱳ":{"ha":1585,"x_min":51,"x_max":1651,"o":"m 379 0 l 51 972 l 157 972 l 464 57 l 411 57 l 728 972 l 822 972 l 1118 57 l 1069 57 l 1350 883 q 1404 978 1371 943 q 1479 1028 1438 1014 q 1566 1036 1521 1042 q 1651 1007 1611 1031 l 1610 932 q 1514 941 1564 957 q 1439 854 1464 925 l 1150 0 l 1040 0 l 758 868 l 786 868 l 486 0 l 379 0 z "},"X":{"ha":911,"x_min":24,"x_max":888,"o":"m 24 0 l 422 539 l 422 460 l 47 972 l 165 972 l 481 544 l 435 543 l 750 972 l 861 972 l 490 467 l 490 539 l 888 0 l 768 0 l 432 457 l 475 457 l 142 0 l 24 0 z "},"Ẍ":{"ha":911,"x_min":24,"x_max":888,"o":"m 24 0 l 422 539 l 422 460 l 47 972 l 165 972 l 481 544 l 435 543 l 750 972 l 861 972 l 490 467 l 490 539 l 888 0 l 768 0 l 432 457 l 475 457 l 142 0 l 24 0 m 581 1083 q 539 1100 557 1083 q 521 1143 521 1117 q 539 1186 521 1169 q 581 1203 557 1203 q 623 1186 606 1203 q 640 1143 640 1169 q 623 1100 640 1117 q 581 1083 606 1083 m 333 1083 q 291 1100 308 1083 q 274 1143 274 1117 q 291 1186 274 1169 q 333 1203 308 1203 q 375 1186 357 1203 q 393 1143 393 1169 q 375 1100 393 1117 q 333 1083 357 1083 z "},"Ẋ":{"ha":911,"x_min":24,"x_max":888,"o":"m 24 0 l 422 539 l 422 460 l 47 972 l 165 972 l 481 544 l 435 543 l 750 972 l 861 972 l 490 467 l 490 539 l 888 0 l 768 0 l 432 457 l 475 457 l 142 0 l 24 0 m 457 1083 q 410 1103 429 1083 q 390 1150 390 1122 q 410 1198 390 1179 q 457 1217 429 1217 q 504 1198 485 1217 q 524 1150 524 1179 q 504 1103 524 1122 q 457 1083 485 1083 z "},"Y":{"ha":882,"x_min":1,"x_max":881,"o":"m 390 0 l 390 361 l 414 297 l 1 972 l 111 972 l 474 379 l 415 379 l 778 972 l 881 972 l 468 297 l 492 361 l 492 0 l 390 0 z "},"Ý":{"ha":882,"x_min":1,"x_max":881,"o":"m 390 0 l 390 361 l 414 297 l 1 972 l 111 972 l 474 379 l 415 379 l 778 972 l 881 972 l 468 297 l 492 361 l 492 0 l 390 0 m 350 1051 l 540 1224 l 672 1224 l 447 1051 l 350 1051 z "},"Ŷ":{"ha":882,"x_min":1,"x_max":881,"o":"m 390 0 l 390 361 l 414 297 l 1 972 l 111 972 l 474 379 l 415 379 l 778 972 l 881 972 l 468 297 l 492 361 l 492 0 l 390 0 m 211 1051 l 390 1224 l 490 1224 l 669 1051 l 578 1051 l 401 1199 l 479 1199 l 303 1051 l 211 1051 z "},"Ÿ":{"ha":882,"x_min":1,"x_max":881,"o":"m 390 0 l 390 361 l 414 297 l 1 972 l 111 972 l 474 379 l 415 379 l 778 972 l 881 972 l 468 297 l 492 361 l 492 0 l 390 0 m 564 1083 q 522 1100 540 1083 q 504 1143 504 1117 q 522 1186 504 1169 q 564 1203 540 1203 q 606 1186 589 1203 q 624 1143 624 1169 q 606 1100 624 1117 q 564 1083 589 1083 m 317 1083 q 274 1100 292 1083 q 257 1143 257 1117 q 274 1186 257 1169 q 317 1203 292 1203 q 358 1186 340 1203 q 376 1143 376 1169 q 358 1100 376 1117 q 317 1083 340 1083 z "},"Ẏ":{"ha":882,"x_min":1,"x_max":881,"o":"m 390 0 l 390 361 l 414 297 l 1 972 l 111 972 l 474 379 l 415 379 l 778 972 l 881 972 l 468 297 l 492 361 l 492 0 l 390 0 m 440 1083 q 393 1103 413 1083 q 374 1150 374 1122 q 393 1198 374 1179 q 440 1217 413 1217 q 488 1198 468 1217 q 507 1150 507 1179 q 488 1103 507 1122 q 440 1083 468 1083 z "},"Ỵ":{"ha":882,"x_min":1,"x_max":881,"o":"m 390 0 l 390 361 l 414 297 l 1 972 l 111 972 l 474 379 l 415 379 l 778 972 l 881 972 l 468 297 l 492 361 l 492 0 l 390 0 m 440 -253 q 393 -233 413 -253 q 374 -186 374 -214 q 393 -138 374 -157 q 440 -119 413 -119 q 488 -138 468 -119 q 507 -186 507 -157 q 488 -233 507 -214 q 440 -253 468 -253 z "},"Ỳ":{"ha":882,"x_min":1,"x_max":881,"o":"m 390 0 l 390 361 l 414 297 l 1 972 l 111 972 l 474 379 l 415 379 l 778 972 l 881 972 l 468 297 l 492 361 l 492 0 l 390 0 m 433 1051 l 208 1224 l 340 1224 l 531 1051 l 433 1051 z "},"Ƴ":{"ha":949,"x_min":1,"x_max":1040,"o":"m 1040 996 l 990 925 q 904 947 953 954 q 817 874 856 939 l 468 297 l 492 361 l 492 0 l 390 0 l 390 361 l 414 297 l 1 972 l 111 972 l 474 379 l 415 379 l 744 921 q 838 1015 786 989 q 942 1035 889 1042 q 1040 996 996 1029 z "},"Ỷ":{"ha":882,"x_min":1,"x_max":881,"o":"m 390 0 l 390 361 l 414 297 l 1 972 l 111 972 l 474 379 l 415 379 l 778 972 l 881 972 l 468 297 l 492 361 l 492 0 l 390 0 m 442 1019 l 407 1063 q 469 1106 449 1082 q 489 1161 489 1129 q 468 1210 489 1190 q 413 1229 447 1229 q 329 1203 369 1229 l 306 1251 q 360 1278 329 1269 q 421 1288 392 1288 q 490 1273 460 1288 q 536 1232 519 1258 q 553 1168 553 1206 q 526 1083 553 1119 q 442 1019 499 1046 z "},"Ȳ":{"ha":882,"x_min":1,"x_max":881,"o":"m 390 0 l 390 361 l 414 297 l 1 972 l 111 972 l 474 379 l 415 379 l 778 972 l 881 972 l 468 297 l 492 361 l 492 0 l 390 0 m 226 1104 l 226 1169 l 654 1169 l 654 1104 l 226 1104 z "},"Ʀ":{"ha":1004,"x_min":158,"x_max":935,"o":"m 215 206 l 215 293 l 519 293 q 741 357 665 293 q 817 536 817 421 q 741 716 817 653 q 519 779 665 779 l 215 779 l 215 869 l 522 869 q 813 781 707 869 q 919 536 919 693 q 872 359 919 433 q 735 245 824 285 q 522 206 646 206 l 215 206 m 158 0 l 158 972 l 261 972 l 261 0 l 158 0 m 822 -139 l 558 235 l 671 235 l 935 -139 l 822 -139 z "},"Ɏ":{"ha":889,"x_min":-3,"x_max":892,"o":"m 393 0 l 393 340 l 417 275 l 6 972 l 115 972 l 476 358 l 418 358 l 782 972 l 885 972 l 472 275 l 496 340 l 496 0 l 393 0 m -3 713 l -3 794 l 892 794 l 892 713 l -3 713 z "},"Ỹ":{"ha":882,"x_min":1,"x_max":881,"o":"m 390 0 l 390 361 l 414 297 l 1 972 l 111 972 l 474 379 l 415 379 l 778 972 l 881 972 l 468 297 l 492 361 l 492 0 l 390 0 m 544 1056 q 481 1071 508 1056 q 433 1105 454 1086 q 389 1139 411 1124 q 340 1154 367 1154 q 290 1128 308 1154 q 268 1061 271 1101 l 204 1061 q 240 1176 206 1129 q 336 1222 275 1222 q 399 1207 372 1222 q 449 1173 426 1192 q 492 1139 471 1154 q 540 1124 514 1124 q 592 1151 572 1124 q 613 1214 611 1178 l 675 1214 q 640 1101 674 1146 q 544 1056 606 1056 z "},"Z":{"ha":904,"x_min":63,"x_max":860,"o":"m 63 0 l 63 71 l 738 922 l 749 883 l 72 883 l 72 972 l 843 972 l 843 901 l 169 50 l 157 89 l 860 89 l 860 0 l 63 0 z "},"Ź":{"ha":904,"x_min":63,"x_max":860,"o":"m 63 0 l 63 71 l 738 922 l 749 883 l 72 883 l 72 972 l 843 972 l 843 901 l 169 50 l 157 89 l 860 89 l 860 0 l 63 0 m 371 1051 l 561 1224 l 693 1224 l 468 1051 l 371 1051 z "},"Ž":{"ha":904,"x_min":63,"x_max":860,"o":"m 63 0 l 63 71 l 738 922 l 749 883 l 72 883 l 72 972 l 843 972 l 843 901 l 169 50 l 157 89 l 860 89 l 860 0 l 63 0 m 411 1051 l 232 1224 l 324 1224 l 500 1078 l 422 1078 l 599 1224 l 690 1224 l 511 1051 l 411 1051 z "},"Ẑ":{"ha":904,"x_min":63,"x_max":860,"o":"m 63 0 l 63 71 l 738 922 l 749 883 l 72 883 l 72 972 l 843 972 l 843 901 l 169 50 l 157 89 l 860 89 l 860 0 l 63 0 m 232 1051 l 411 1224 l 511 1224 l 690 1051 l 599 1051 l 422 1199 l 500 1199 l 324 1051 l 232 1051 z "},"Ż":{"ha":904,"x_min":63,"x_max":860,"o":"m 63 0 l 63 71 l 738 922 l 749 883 l 72 883 l 72 972 l 843 972 l 843 901 l 169 50 l 157 89 l 860 89 l 860 0 l 63 0 m 461 1083 q 414 1103 433 1083 q 394 1150 394 1122 q 414 1198 394 1179 q 461 1217 433 1217 q 508 1198 489 1217 q 528 1150 528 1179 q 508 1103 528 1122 q 461 1083 489 1083 z "},"Ẓ":{"ha":904,"x_min":63,"x_max":860,"o":"m 63 0 l 63 71 l 738 922 l 749 883 l 72 883 l 72 972 l 843 972 l 843 901 l 169 50 l 157 89 l 860 89 l 860 0 l 63 0 m 472 -253 q 425 -233 444 -253 q 406 -186 406 -214 q 425 -138 406 -157 q 472 -119 444 -119 q 519 -138 500 -119 q 539 -186 539 -157 q 519 -233 539 -214 q 472 -253 500 -253 z "},"Ẕ":{"ha":904,"x_min":63,"x_max":860,"o":"m 63 0 l 63 71 l 738 922 l 749 883 l 72 883 l 72 972 l 843 972 l 843 901 l 169 50 l 157 89 l 860 89 l 860 0 l 63 0 m 258 -221 l 258 -156 l 686 -156 l 686 -221 l 258 -221 z "},"Ƶ":{"ha":904,"x_min":63,"x_max":860,"o":"m 63 0 l 63 71 l 738 922 l 749 883 l 72 883 l 72 972 l 843 972 l 843 901 l 169 50 l 157 89 l 860 89 l 860 0 l 63 0 m 181 454 l 181 538 l 742 538 l 742 454 l 181 454 z "},"Ꞌ":{"ha":335,"x_min":117,"x_max":218,"o":"m 117 414 l 117 972 l 218 972 l 207 414 l 117 414 z "},"ɪ":{"ha":494,"x_min":58,"x_max":438,"o":"m 58 647 l 58 729 l 438 729 l 438 647 l 58 647 m 58 0 l 58 82 l 438 82 l 438 0 l 58 0 m 199 0 l 199 729 l 297 729 l 297 0 l 199 0 z "},"ᵻ":{"ha":538,"x_min":79,"x_max":460,"o":"m 79 647 l 79 729 l 460 729 l 460 647 l 79 647 m 79 0 l 79 82 l 460 82 l 460 0 l 79 0 m 219 0 l 219 729 l 318 729 l 318 0 l 219 0 m 85 339 l 85 411 l 453 411 l 453 339 l 85 339 z "},"ɴ":{"ha":915,"x_min":124,"x_max":793,"o":"m 124 0 l 124 729 l 206 729 l 736 121 l 694 121 l 694 729 l 793 729 l 793 0 l 711 0 l 181 608 l 222 608 l 222 0 l 124 0 z "},"ʀ":{"ha":832,"x_min":138,"x_max":778,"o":"m 138 0 l 138 729 l 440 729 q 677 663 590 729 q 764 478 764 596 q 725 342 764 399 q 614 255 686 285 q 440 225 542 225 l 192 225 l 236 269 l 236 0 l 138 0 m 668 0 l 467 265 l 574 265 l 778 0 l 668 0 m 236 261 l 192 308 l 436 308 q 607 353 549 308 q 665 478 665 397 q 606 601 665 557 q 436 646 547 646 l 192 646 l 236 693 l 236 261 z "},"ᵾ":{"ha":979,"x_min":17,"x_max":953,"o":"m 461 -7 q 297 28 367 -7 q 190 132 228 63 q 151 306 151 201 l 151 729 l 250 729 l 250 317 q 308 141 250 200 q 469 82 365 82 q 602 113 546 82 q 688 204 658 144 q 718 347 718 264 l 718 729 l 817 729 l 817 0 l 722 0 l 722 200 l 738 164 q 631 38 704 83 q 461 -7 557 -7 m 17 339 l 17 411 l 953 411 l 953 339 l 17 339 z "},"a":{"ha":819,"x_min":76,"x_max":689,"o":"m 594 0 l 594 161 l 590 188 l 590 457 q 538 600 590 550 q 383 650 486 650 q 249 626 313 650 q 140 564 185 603 l 96 638 q 229 710 151 685 q 393 736 307 736 q 612 666 535 736 q 689 453 689 596 l 689 0 l 594 0 m 343 -7 q 201 20 261 -7 q 108 95 140 47 q 76 206 76 143 q 103 309 76 263 q 192 384 131 356 q 358 413 254 413 l 610 413 l 610 339 l 361 339 q 215 301 256 339 q 174 208 174 264 q 222 108 174 146 q 358 71 271 71 q 502 109 442 71 q 590 219 563 147 l 613 151 q 516 36 585 79 q 343 -7 447 -7 z "},"á":{"ha":819,"x_min":76,"x_max":689,"o":"m 594 0 l 594 161 l 590 188 l 590 457 q 538 600 590 550 q 383 650 486 650 q 249 626 313 650 q 140 564 185 603 l 96 638 q 229 710 151 685 q 393 736 307 736 q 612 666 535 736 q 689 453 689 596 l 689 0 l 594 0 m 343 -7 q 201 20 261 -7 q 108 95 140 47 q 76 206 76 143 q 103 309 76 263 q 192 384 131 356 q 358 413 254 413 l 610 413 l 610 339 l 361 339 q 215 301 256 339 q 174 208 174 264 q 222 108 174 146 q 358 71 271 71 q 502 109 442 71 q 590 219 563 147 l 613 151 q 516 36 585 79 q 343 -7 447 -7 m 306 843 l 496 1015 l 628 1015 l 403 843 l 306 843 z "},"ă":{"ha":819,"x_min":76,"x_max":689,"o":"m 594 0 l 594 161 l 590 188 l 590 457 q 538 600 590 550 q 383 650 486 650 q 249 626 313 650 q 140 564 185 603 l 96 638 q 229 710 151 685 q 393 736 307 736 q 612 666 535 736 q 689 453 689 596 l 689 0 l 594 0 m 343 -7 q 201 20 261 -7 q 108 95 140 47 q 76 206 76 143 q 103 309 76 263 q 192 384 131 356 q 358 413 254 413 l 610 413 l 610 339 l 361 339 q 215 301 256 339 q 174 208 174 264 q 222 108 174 146 q 358 71 271 71 q 502 109 442 71 q 590 219 563 147 l 613 151 q 516 36 585 79 q 343 -7 447 -7 m 396 836 q 248 884 308 836 q 185 1015 188 932 l 254 1015 q 298 929 257 961 q 396 897 339 897 q 495 929 454 897 q 538 1015 536 961 l 607 1015 q 544 884 604 932 q 396 836 483 836 z "},"ắ":{"ha":819,"x_min":76,"x_max":689,"o":"m 594 0 l 594 161 l 590 188 l 590 457 q 538 600 590 550 q 383 650 486 650 q 249 626 313 650 q 140 564 185 603 l 96 638 q 229 710 151 685 q 393 736 307 736 q 612 666 535 736 q 689 453 689 596 l 689 0 l 594 0 m 343 -7 q 201 20 261 -7 q 108 95 140 47 q 76 206 76 143 q 103 309 76 263 q 192 384 131 356 q 358 413 254 413 l 610 413 l 610 339 l 361 339 q 215 301 256 339 q 174 208 174 264 q 222 108 174 146 q 358 71 271 71 q 502 109 442 71 q 590 219 563 147 l 613 151 q 516 36 585 79 q 343 -7 447 -7 m 396 850 q 251 886 310 850 q 185 988 193 922 l 253 988 q 299 929 260 950 q 396 908 338 908 q 493 929 454 908 q 539 988 532 950 l 607 988 q 540 886 599 922 q 396 850 482 850 m 311 1001 l 479 1151 l 599 1151 l 399 1001 l 311 1001 z "},"ặ":{"ha":819,"x_min":76,"x_max":689,"o":"m 594 0 l 594 161 l 590 188 l 590 457 q 538 600 590 550 q 383 650 486 650 q 249 626 313 650 q 140 564 185 603 l 96 638 q 229 710 151 685 q 393 736 307 736 q 612 666 535 736 q 689 453 689 596 l 689 0 l 594 0 m 343 -7 q 201 20 261 -7 q 108 95 140 47 q 76 206 76 143 q 103 309 76 263 q 192 384 131 356 q 358 413 254 413 l 610 413 l 610 339 l 361 339 q 215 301 256 339 q 174 208 174 264 q 222 108 174 146 q 358 71 271 71 q 502 109 442 71 q 590 219 563 147 l 613 151 q 516 36 585 79 q 343 -7 447 -7 m 399 -254 q 351 -235 371 -254 q 332 -187 332 -215 q 351 -140 332 -158 q 399 -121 371 -121 q 446 -140 426 -121 q 465 -187 465 -158 q 446 -235 465 -215 q 399 -254 426 -254 m 396 836 q 248 884 308 836 q 185 1015 188 932 l 254 1015 q 298 929 257 961 q 396 897 339 897 q 495 929 454 897 q 538 1015 536 961 l 607 1015 q 544 884 604 932 q 396 836 483 836 z "},"ằ":{"ha":819,"x_min":76,"x_max":689,"o":"m 594 0 l 594 161 l 590 188 l 590 457 q 538 600 590 550 q 383 650 486 650 q 249 626 313 650 q 140 564 185 603 l 96 638 q 229 710 151 685 q 393 736 307 736 q 612 666 535 736 q 689 453 689 596 l 689 0 l 594 0 m 343 -7 q 201 20 261 -7 q 108 95 140 47 q 76 206 76 143 q 103 309 76 263 q 192 384 131 356 q 358 413 254 413 l 610 413 l 610 339 l 361 339 q 215 301 256 339 q 174 208 174 264 q 222 108 174 146 q 358 71 271 71 q 502 109 442 71 q 590 219 563 147 l 613 151 q 516 36 585 79 q 343 -7 447 -7 m 396 850 q 251 886 310 850 q 185 988 193 922 l 253 988 q 299 929 260 950 q 396 908 338 908 q 493 929 454 908 q 539 988 532 950 l 607 988 q 540 886 599 922 q 396 850 482 850 m 394 1001 l 193 1151 l 314 1151 l 481 1001 l 394 1001 z "},"ẳ":{"ha":819,"x_min":76,"x_max":689,"o":"m 594 0 l 594 161 l 590 188 l 590 457 q 538 600 590 550 q 383 650 486 650 q 249 626 313 650 q 140 564 185 603 l 96 638 q 229 710 151 685 q 393 736 307 736 q 612 666 535 736 q 689 453 689 596 l 689 0 l 594 0 m 343 -7 q 201 20 261 -7 q 108 95 140 47 q 76 206 76 143 q 103 309 76 263 q 192 384 131 356 q 358 413 254 413 l 610 413 l 610 339 l 361 339 q 215 301 256 339 q 174 208 174 264 q 222 108 174 146 q 358 71 271 71 q 502 109 442 71 q 590 219 563 147 l 613 151 q 516 36 585 79 q 343 -7 447 -7 m 396 850 q 251 886 310 850 q 185 988 193 922 l 253 988 q 299 929 260 950 q 396 908 338 908 q 493 929 454 908 q 539 988 532 950 l 607 988 q 540 886 599 922 q 396 850 482 850 m 411 964 l 383 999 q 426 1031 411 1013 q 442 1068 442 1049 q 426 1101 442 1089 q 386 1114 411 1114 q 326 1097 356 1114 l 306 1138 q 348 1158 325 1151 q 394 1164 371 1164 q 468 1138 442 1164 q 494 1074 494 1113 q 473 1009 494 1038 q 411 964 451 981 z "},"ẵ":{"ha":819,"x_min":76,"x_max":689,"o":"m 594 0 l 594 161 l 590 188 l 590 457 q 538 600 590 550 q 383 650 486 650 q 249 626 313 650 q 140 564 185 603 l 96 638 q 229 710 151 685 q 393 736 307 736 q 612 666 535 736 q 689 453 689 596 l 689 0 l 594 0 m 343 -7 q 201 20 261 -7 q 108 95 140 47 q 76 206 76 143 q 103 309 76 263 q 192 384 131 356 q 358 413 254 413 l 610 413 l 610 339 l 361 339 q 215 301 256 339 q 174 208 174 264 q 222 108 174 146 q 358 71 271 71 q 502 109 442 71 q 590 219 563 147 l 613 151 q 516 36 585 79 q 343 -7 447 -7 m 396 850 q 251 886 310 850 q 185 988 193 922 l 253 988 q 299 929 260 950 q 396 908 338 908 q 493 929 454 908 q 539 988 532 950 l 607 988 q 540 886 599 922 q 396 850 482 850 m 489 1039 q 433 1050 457 1039 q 388 1076 408 1061 q 347 1103 367 1092 q 307 1114 328 1114 q 258 1096 275 1114 q 240 1044 242 1078 l 181 1044 q 215 1138 182 1104 q 304 1172 249 1172 q 376 1153 346 1172 q 432 1116 406 1135 q 485 1097 458 1097 q 534 1115 517 1097 q 553 1165 551 1133 l 611 1165 q 577 1074 610 1108 q 489 1039 544 1039 z "},"ǎ":{"ha":819,"x_min":76,"x_max":689,"o":"m 594 0 l 594 161 l 590 188 l 590 457 q 538 600 590 550 q 383 650 486 650 q 249 626 313 650 q 140 564 185 603 l 96 638 q 229 710 151 685 q 393 736 307 736 q 612 666 535 736 q 689 453 689 596 l 689 0 l 594 0 m 343 -7 q 201 20 261 -7 q 108 95 140 47 q 76 206 76 143 q 103 309 76 263 q 192 384 131 356 q 358 413 254 413 l 610 413 l 610 339 l 361 339 q 215 301 256 339 q 174 208 174 264 q 222 108 174 146 q 358 71 271 71 q 502 109 442 71 q 590 219 563 147 l 613 151 q 516 36 585 79 q 343 -7 447 -7 m 346 843 l 167 1015 l 258 1015 l 435 869 l 357 869 l 533 1015 l 625 1015 l 446 843 l 346 843 z "},"â":{"ha":819,"x_min":76,"x_max":689,"o":"m 594 0 l 594 161 l 590 188 l 590 457 q 538 600 590 550 q 383 650 486 650 q 249 626 313 650 q 140 564 185 603 l 96 638 q 229 710 151 685 q 393 736 307 736 q 612 666 535 736 q 689 453 689 596 l 689 0 l 594 0 m 343 -7 q 201 20 261 -7 q 108 95 140 47 q 76 206 76 143 q 103 309 76 263 q 192 384 131 356 q 358 413 254 413 l 610 413 l 610 339 l 361 339 q 215 301 256 339 q 174 208 174 264 q 222 108 174 146 q 358 71 271 71 q 502 109 442 71 q 590 219 563 147 l 613 151 q 516 36 585 79 q 343 -7 447 -7 m 167 843 l 346 1015 l 446 1015 l 625 843 l 533 843 l 357 990 l 435 990 l 258 843 l 167 843 z "},"ấ":{"ha":819,"x_min":76,"x_max":811,"o":"m 594 0 l 594 161 l 590 188 l 590 457 q 538 600 590 550 q 383 650 486 650 q 249 626 313 650 q 140 564 185 603 l 96 638 q 229 710 151 685 q 393 736 307 736 q 612 666 535 736 q 689 453 689 596 l 689 0 l 594 0 m 343 -7 q 201 20 261 -7 q 108 95 140 47 q 76 206 76 143 q 103 309 76 263 q 192 384 131 356 q 358 413 254 413 l 610 413 l 610 339 l 361 339 q 215 301 256 339 q 174 208 174 264 q 222 108 174 146 q 358 71 271 71 q 502 109 442 71 q 590 219 563 147 l 613 151 q 516 36 585 79 q 343 -7 447 -7 m 167 843 l 347 974 l 444 974 l 625 843 l 531 843 l 357 949 l 435 949 l 261 843 l 167 843 m 522 958 l 690 1108 l 810 1108 l 610 958 l 522 958 z "},"ậ":{"ha":819,"x_min":76,"x_max":689,"o":"m 594 0 l 594 161 l 590 188 l 590 457 q 538 600 590 550 q 383 650 486 650 q 249 626 313 650 q 140 564 185 603 l 96 638 q 229 710 151 685 q 393 736 307 736 q 612 666 535 736 q 689 453 689 596 l 689 0 l 594 0 m 343 -7 q 201 20 261 -7 q 108 95 140 47 q 76 206 76 143 q 103 309 76 263 q 192 384 131 356 q 358 413 254 413 l 610 413 l 610 339 l 361 339 q 215 301 256 339 q 174 208 174 264 q 222 108 174 146 q 358 71 271 71 q 502 109 442 71 q 590 219 563 147 l 613 151 q 516 36 585 79 q 343 -7 447 -7 m 399 -254 q 351 -235 371 -254 q 332 -187 332 -215 q 351 -140 332 -158 q 399 -121 371 -121 q 446 -140 426 -121 q 465 -187 465 -158 q 446 -235 465 -215 q 399 -254 426 -254 m 167 843 l 346 1015 l 446 1015 l 625 843 l 533 843 l 357 990 l 435 990 l 258 843 l 167 843 z "},"ầ":{"ha":819,"x_min":76,"x_max":693,"o":"m 594 0 l 594 161 l 590 188 l 590 457 q 538 600 590 550 q 383 650 486 650 q 249 626 313 650 q 140 564 185 603 l 96 638 q 229 710 151 685 q 393 736 307 736 q 612 666 535 736 q 689 453 689 596 l 689 0 l 594 0 m 343 -7 q 201 20 261 -7 q 108 95 140 47 q 76 206 76 143 q 103 309 76 263 q 192 384 131 356 q 358 413 254 413 l 610 413 l 610 339 l 361 339 q 215 301 256 339 q 174 208 174 264 q 222 108 174 146 q 358 71 271 71 q 502 109 442 71 q 590 219 563 147 l 613 151 q 516 36 585 79 q 343 -7 447 -7 m 167 843 l 347 974 l 444 974 l 625 843 l 531 843 l 357 949 l 435 949 l 261 843 l 167 843 m 606 958 l 404 1108 l 525 1108 l 692 958 l 606 958 z "},"ẩ":{"ha":819,"x_min":76,"x_max":689,"o":"m 594 0 l 594 161 l 590 188 l 590 457 q 538 600 590 550 q 383 650 486 650 q 249 626 313 650 q 140 564 185 603 l 96 638 q 229 710 151 685 q 393 736 307 736 q 612 666 535 736 q 689 453 689 596 l 689 0 l 594 0 m 343 -7 q 201 20 261 -7 q 108 95 140 47 q 76 206 76 143 q 103 309 76 263 q 192 384 131 356 q 358 413 254 413 l 610 413 l 610 339 l 361 339 q 215 301 256 339 q 174 208 174 264 q 222 108 174 146 q 358 71 271 71 q 502 109 442 71 q 590 219 563 147 l 613 151 q 516 36 585 79 q 343 -7 447 -7 m 167 843 l 347 974 l 444 974 l 625 843 l 531 843 l 357 949 l 435 949 l 261 843 l 167 843 m 578 935 l 550 969 q 593 1001 578 983 q 608 1039 608 1019 q 593 1072 608 1060 q 553 1085 578 1085 q 493 1068 522 1085 l 472 1108 q 515 1128 492 1122 q 561 1135 538 1135 q 635 1109 608 1135 q 661 1044 661 1083 q 640 980 661 1008 q 578 935 618 951 z "},"ẫ":{"ha":819,"x_min":76,"x_max":689,"o":"m 594 0 l 594 161 l 590 188 l 590 457 q 538 600 590 550 q 383 650 486 650 q 249 626 313 650 q 140 564 185 603 l 96 638 q 229 710 151 685 q 393 736 307 736 q 612 666 535 736 q 689 453 689 596 l 689 0 l 594 0 m 343 -7 q 201 20 261 -7 q 108 95 140 47 q 76 206 76 143 q 103 309 76 263 q 192 384 131 356 q 358 413 254 413 l 610 413 l 610 339 l 361 339 q 215 301 256 339 q 174 208 174 264 q 222 108 174 146 q 358 71 271 71 q 502 109 442 71 q 590 219 563 147 l 613 151 q 516 36 585 79 q 343 -7 447 -7 m 167 843 l 347 974 l 444 974 l 625 843 l 531 843 l 357 949 l 435 949 l 261 843 l 167 843 m 489 1021 q 433 1032 457 1021 q 388 1058 408 1043 q 347 1085 367 1074 q 307 1096 328 1096 q 258 1078 275 1096 q 240 1026 242 1060 l 181 1026 q 215 1120 182 1086 q 304 1154 249 1154 q 376 1135 346 1154 q 432 1098 406 1117 q 485 1079 458 1079 q 534 1097 517 1079 q 553 1147 551 1115 l 611 1147 q 577 1056 610 1090 q 489 1021 544 1021 z "},"ȁ":{"ha":819,"x_min":76,"x_max":689,"o":"m 594 0 l 594 161 l 590 188 l 590 457 q 538 600 590 550 q 383 650 486 650 q 249 626 313 650 q 140 564 185 603 l 96 638 q 229 710 151 685 q 393 736 307 736 q 612 666 535 736 q 689 453 689 596 l 689 0 l 594 0 m 343 -7 q 201 20 261 -7 q 108 95 140 47 q 76 206 76 143 q 103 309 76 263 q 192 384 131 356 q 358 413 254 413 l 610 413 l 610 339 l 361 339 q 215 301 256 339 q 174 208 174 264 q 222 108 174 146 q 358 71 271 71 q 502 109 442 71 q 590 219 563 147 l 613 151 q 516 36 585 79 q 343 -7 447 -7 m 465 843 l 308 1015 l 418 1015 l 553 843 l 465 843 m 239 843 l 83 1015 l 193 1015 l 326 843 l 239 843 z "},"ä":{"ha":819,"x_min":76,"x_max":689,"o":"m 594 0 l 594 161 l 590 188 l 590 457 q 538 600 590 550 q 383 650 486 650 q 249 626 313 650 q 140 564 185 603 l 96 638 q 229 710 151 685 q 393 736 307 736 q 612 666 535 736 q 689 453 689 596 l 689 0 l 594 0 m 343 -7 q 201 20 261 -7 q 108 95 140 47 q 76 206 76 143 q 103 309 76 263 q 192 384 131 356 q 358 413 254 413 l 610 413 l 610 339 l 361 339 q 215 301 256 339 q 174 208 174 264 q 222 108 174 146 q 358 71 271 71 q 502 109 442 71 q 590 219 563 147 l 613 151 q 516 36 585 79 q 343 -7 447 -7 m 519 875 q 478 892 496 875 q 460 935 460 908 q 478 978 460 961 q 519 994 496 994 q 562 978 544 994 q 579 935 579 961 q 562 892 579 908 q 519 875 544 875 m 272 875 q 230 892 247 875 q 213 935 213 908 q 230 978 213 961 q 272 994 247 994 q 314 978 296 994 q 332 935 332 961 q 314 892 332 908 q 272 875 296 875 z "},"ǟ":{"ha":819,"x_min":76,"x_max":689,"o":"m 594 0 l 594 161 l 590 188 l 590 457 q 538 600 590 550 q 383 650 486 650 q 249 626 313 650 q 140 564 185 603 l 96 638 q 229 710 151 685 q 393 736 307 736 q 612 666 535 736 q 689 453 689 596 l 689 0 l 594 0 m 343 -7 q 201 20 261 -7 q 108 95 140 47 q 76 206 76 143 q 103 309 76 263 q 192 384 131 356 q 358 413 254 413 l 610 413 l 610 339 l 361 339 q 215 301 256 339 q 174 208 174 264 q 222 108 174 146 q 358 71 271 71 q 502 109 442 71 q 590 219 563 147 l 613 151 q 516 36 585 79 q 343 -7 447 -7 m 518 861 q 477 878 494 861 q 460 919 460 896 q 477 961 460 944 q 518 978 494 978 q 559 961 542 978 q 576 919 576 944 q 559 878 576 896 q 518 861 542 861 m 274 861 q 233 878 251 861 q 215 919 215 896 q 233 961 215 944 q 274 978 251 978 q 315 961 299 978 q 332 919 332 944 q 315 878 332 896 q 274 861 299 861 m 182 1072 l 182 1135 l 610 1135 l 610 1072 l 182 1072 z "},"ȧ":{"ha":819,"x_min":76,"x_max":689,"o":"m 594 0 l 594 161 l 590 188 l 590 457 q 538 600 590 550 q 383 650 486 650 q 249 626 313 650 q 140 564 185 603 l 96 638 q 229 710 151 685 q 393 736 307 736 q 612 666 535 736 q 689 453 689 596 l 689 0 l 594 0 m 343 -7 q 201 20 261 -7 q 108 95 140 47 q 76 206 76 143 q 103 309 76 263 q 192 384 131 356 q 358 413 254 413 l 610 413 l 610 339 l 361 339 q 215 301 256 339 q 174 208 174 264 q 222 108 174 146 q 358 71 271 71 q 502 109 442 71 q 590 219 563 147 l 613 151 q 516 36 585 79 q 343 -7 447 -7 m 396 875 q 349 894 368 875 q 329 942 329 914 q 349 990 329 971 q 396 1008 368 1008 q 443 990 424 1008 q 463 942 463 971 q 443 894 463 914 q 396 875 424 875 z "},"ạ":{"ha":819,"x_min":76,"x_max":689,"o":"m 594 0 l 594 161 l 590 188 l 590 457 q 538 600 590 550 q 383 650 486 650 q 249 626 313 650 q 140 564 185 603 l 96 638 q 229 710 151 685 q 393 736 307 736 q 612 666 535 736 q 689 453 689 596 l 689 0 l 594 0 m 343 -7 q 201 20 261 -7 q 108 95 140 47 q 76 206 76 143 q 103 309 76 263 q 192 384 131 356 q 358 413 254 413 l 610 413 l 610 339 l 361 339 q 215 301 256 339 q 174 208 174 264 q 222 108 174 146 q 358 71 271 71 q 502 109 442 71 q 590 219 563 147 l 613 151 q 516 36 585 79 q 343 -7 447 -7 m 399 -254 q 351 -235 371 -254 q 332 -187 332 -215 q 351 -140 332 -158 q 399 -121 371 -121 q 446 -140 426 -121 q 465 -187 465 -158 q 446 -235 465 -215 q 399 -254 426 -254 z "},"ǡ":{"ha":819,"x_min":76,"x_max":689,"o":"m 594 0 l 594 161 l 590 188 l 590 457 q 538 600 590 550 q 383 650 486 650 q 249 626 313 650 q 140 564 185 603 l 96 638 q 229 710 151 685 q 393 736 307 736 q 612 666 535 736 q 689 453 689 596 l 689 0 l 594 0 m 343 -7 q 201 20 261 -7 q 108 95 140 47 q 76 206 76 143 q 103 309 76 263 q 192 384 131 356 q 358 413 254 413 l 610 413 l 610 339 l 361 339 q 215 301 256 339 q 174 208 174 264 q 222 108 174 146 q 358 71 271 71 q 502 109 442 71 q 590 219 563 147 l 613 151 q 516 36 585 79 q 343 -7 447 -7 m 396 867 q 354 884 372 867 q 336 926 336 901 q 354 969 336 953 q 396 986 372 986 q 438 969 421 986 q 456 926 456 953 q 438 884 456 901 q 396 867 421 867 m 182 1072 l 182 1135 l 610 1135 l 610 1072 l 182 1072 z "},"à":{"ha":819,"x_min":76,"x_max":689,"o":"m 594 0 l 594 161 l 590 188 l 590 457 q 538 600 590 550 q 383 650 486 650 q 249 626 313 650 q 140 564 185 603 l 96 638 q 229 710 151 685 q 393 736 307 736 q 612 666 535 736 q 689 453 689 596 l 689 0 l 594 0 m 343 -7 q 201 20 261 -7 q 108 95 140 47 q 76 206 76 143 q 103 309 76 263 q 192 384 131 356 q 358 413 254 413 l 610 413 l 610 339 l 361 339 q 215 301 256 339 q 174 208 174 264 q 222 108 174 146 q 358 71 271 71 q 502 109 442 71 q 590 219 563 147 l 613 151 q 516 36 585 79 q 343 -7 447 -7 m 389 843 l 164 1015 l 296 1015 l 486 843 l 389 843 z "},"ả":{"ha":819,"x_min":76,"x_max":689,"o":"m 594 0 l 594 161 l 590 188 l 590 457 q 538 600 590 550 q 383 650 486 650 q 249 626 313 650 q 140 564 185 603 l 96 638 q 229 710 151 685 q 393 736 307 736 q 612 666 535 736 q 689 453 689 596 l 689 0 l 594 0 m 343 -7 q 201 20 261 -7 q 108 95 140 47 q 76 206 76 143 q 103 309 76 263 q 192 384 131 356 q 358 413 254 413 l 610 413 l 610 339 l 361 339 q 215 301 256 339 q 174 208 174 264 q 222 108 174 146 q 358 71 271 71 q 502 109 442 71 q 590 219 563 147 l 613 151 q 516 36 585 79 q 343 -7 447 -7 m 400 819 l 365 863 q 427 906 407 882 q 447 961 447 929 q 426 1010 447 990 q 371 1029 406 1029 q 288 1003 328 1029 l 264 1051 q 319 1078 288 1069 q 379 1088 350 1088 q 448 1073 418 1088 q 494 1032 478 1058 q 511 968 511 1006 q 484 883 511 919 q 400 819 457 846 z "},"ȃ":{"ha":819,"x_min":76,"x_max":689,"o":"m 594 0 l 594 161 l 590 188 l 590 457 q 538 600 590 550 q 383 650 486 650 q 249 626 313 650 q 140 564 185 603 l 96 638 q 229 710 151 685 q 393 736 307 736 q 612 666 535 736 q 689 453 689 596 l 689 0 l 594 0 m 343 -7 q 201 20 261 -7 q 108 95 140 47 q 76 206 76 143 q 103 309 76 263 q 192 384 131 356 q 358 413 254 413 l 610 413 l 610 339 l 361 339 q 215 301 256 339 q 174 208 174 264 q 222 108 174 146 q 358 71 271 71 q 502 109 442 71 q 590 219 563 147 l 613 151 q 516 36 585 79 q 343 -7 447 -7 m 185 843 q 248 974 188 926 q 396 1021 308 1021 q 544 974 483 1021 q 607 843 604 926 l 538 843 q 495 929 536 897 q 396 961 454 961 q 298 929 339 961 q 254 843 257 897 l 185 843 z "},"ɑ":{"ha":942,"x_min":64,"x_max":804,"o":"m 428 -7 q 241 40 324 -7 q 111 172 158 88 q 64 365 64 256 q 111 560 64 476 q 241 690 158 643 q 428 736 324 736 q 599 693 524 736 q 720 567 675 650 q 765 365 765 485 q 721 164 765 247 q 601 37 676 81 q 428 -7 525 -7 m 435 81 q 574 116 513 81 q 672 216 636 151 q 707 365 707 281 q 672 515 707 451 q 574 615 636 579 q 435 650 513 650 q 297 615 358 650 q 200 515 236 579 q 164 365 164 451 q 200 216 164 281 q 297 116 236 151 q 435 81 358 81 m 710 0 l 710 219 l 719 367 l 706 514 l 706 729 l 804 729 l 804 0 l 710 0 z "},"ā":{"ha":819,"x_min":76,"x_max":689,"o":"m 594 0 l 594 161 l 590 188 l 590 457 q 538 600 590 550 q 383 650 486 650 q 249 626 313 650 q 140 564 185 603 l 96 638 q 229 710 151 685 q 393 736 307 736 q 612 666 535 736 q 689 453 689 596 l 689 0 l 594 0 m 343 -7 q 201 20 261 -7 q 108 95 140 47 q 76 206 76 143 q 103 309 76 263 q 192 384 131 356 q 358 413 254 413 l 610 413 l 610 339 l 361 339 q 215 301 256 339 q 174 208 174 264 q 222 108 174 146 q 358 71 271 71 q 502 109 442 71 q 590 219 563 147 l 613 151 q 516 36 585 79 q 343 -7 447 -7 m 182 896 l 182 961 l 610 961 l 610 896 l 182 896 z "},"ą":{"ha":819,"x_min":76,"x_max":718,"o":"m 594 0 l 594 161 l 590 188 l 590 457 q 538 600 590 550 q 383 650 486 650 q 249 626 313 650 q 140 564 185 603 l 96 638 q 229 710 151 685 q 393 736 307 736 q 612 666 535 736 q 689 453 689 596 l 689 0 l 594 0 m 343 -7 q 201 20 261 -7 q 108 95 140 47 q 76 206 76 143 q 103 309 76 263 q 192 384 131 356 q 358 413 254 413 l 610 413 l 610 339 l 361 339 q 215 301 256 339 q 174 208 174 264 q 222 108 174 146 q 358 71 271 71 q 502 109 442 71 q 590 219 563 147 l 613 151 q 516 36 585 79 q 343 -7 447 -7 m 600 -306 q 488 -269 529 -306 q 447 -174 447 -233 q 465 -103 447 -140 q 524 -31 482 -67 q 643 38 567 6 l 689 0 q 585 -58 622 -29 q 534 -113 549 -86 q 519 -167 519 -140 q 545 -225 519 -206 q 610 -244 571 -244 q 655 -237 632 -244 q 694 -218 678 -231 l 718 -272 q 663 -297 693 -287 q 600 -306 633 -306 z "},"ẚ":{"ha":819,"x_min":76,"x_max":689,"o":"m 594 0 l 594 161 l 590 188 l 590 457 q 538 600 590 550 q 383 650 486 650 q 249 626 313 650 q 140 564 185 603 l 96 638 q 229 710 151 685 q 393 736 307 736 q 612 666 535 736 q 689 453 689 596 l 689 0 l 594 0 m 343 -7 q 201 20 261 -7 q 108 95 140 47 q 76 206 76 143 q 103 309 76 263 q 192 384 131 356 q 358 413 254 413 l 610 413 l 610 339 l 361 339 q 215 301 256 339 q 174 208 174 264 q 222 108 174 146 q 358 71 271 71 q 502 109 442 71 q 590 219 563 147 l 613 151 q 516 36 585 79 q 343 -7 447 -7 m 351 826 l 351 876 q 419 903 393 876 q 446 968 446 929 q 419 1036 446 1008 q 351 1064 393 1064 l 351 1114 q 427 1093 394 1114 q 479 1040 460 1072 q 499 968 499 1008 q 480 897 499 929 q 428 846 461 865 q 351 826 394 826 z "},"å":{"ha":819,"x_min":76,"x_max":689,"o":"m 594 0 l 594 161 l 590 188 l 590 457 q 538 600 590 550 q 383 650 486 650 q 249 626 313 650 q 140 564 185 603 l 96 638 q 229 710 151 685 q 393 736 307 736 q 612 666 535 736 q 689 453 689 596 l 689 0 l 594 0 m 343 -7 q 201 20 261 -7 q 108 95 140 47 q 76 206 76 143 q 103 309 76 263 q 192 384 131 356 q 358 413 254 413 l 610 413 l 610 339 l 361 339 q 215 301 256 339 q 174 208 174 264 q 222 108 174 146 q 358 71 271 71 q 502 109 442 71 q 590 219 563 147 l 613 151 q 516 36 585 79 q 343 -7 447 -7 m 394 826 q 320 846 353 826 q 269 897 288 865 q 250 968 250 929 q 269 1040 250 1007 q 322 1094 289 1074 q 394 1114 354 1114 q 469 1094 436 1114 q 521 1040 501 1074 q 540 968 540 1007 q 521 897 540 929 q 469 846 501 865 q 394 826 436 826 m 394 875 q 463 902 436 875 q 489 968 489 929 q 463 1037 489 1008 q 394 1065 436 1065 q 328 1038 354 1065 q 301 968 301 1010 q 327 901 301 928 q 394 875 353 875 z "},"ǻ":{"ha":819,"x_min":76,"x_max":689,"o":"m 594 0 l 594 161 l 590 188 l 590 457 q 538 600 590 550 q 383 650 486 650 q 249 626 313 650 q 140 564 185 603 l 96 638 q 229 710 151 685 q 393 736 307 736 q 612 666 535 736 q 689 453 689 596 l 689 0 l 594 0 m 343 -7 q 201 20 261 -7 q 108 95 140 47 q 76 206 76 143 q 103 309 76 263 q 192 384 131 356 q 358 413 254 413 l 610 413 l 610 339 l 361 339 q 215 301 256 339 q 174 208 174 264 q 222 108 174 146 q 358 71 271 71 q 502 109 442 71 q 590 219 563 147 l 613 151 q 516 36 585 79 q 343 -7 447 -7 m 394 826 q 320 846 353 826 q 269 897 288 865 q 250 968 250 929 q 269 1040 250 1007 q 322 1094 289 1074 q 394 1114 354 1114 q 469 1094 436 1114 q 521 1040 501 1074 q 540 968 540 1007 q 521 897 540 929 q 469 846 501 865 q 394 826 436 826 m 394 875 q 463 902 436 875 q 489 968 489 929 q 463 1037 489 1008 q 394 1065 436 1065 q 328 1038 354 1065 q 301 968 301 1010 q 327 901 301 928 q 394 875 353 875 m 503 1046 l 444 1067 l 585 1206 l 640 1161 l 503 1046 z "},"ḁ":{"ha":819,"x_min":76,"x_max":689,"o":"m 594 0 l 594 161 l 590 188 l 590 457 q 538 600 590 550 q 383 650 486 650 q 249 626 313 650 q 140 564 185 603 l 96 638 q 229 710 151 685 q 393 736 307 736 q 612 666 535 736 q 689 453 689 596 l 689 0 l 594 0 m 343 -7 q 201 20 261 -7 q 108 95 140 47 q 76 206 76 143 q 103 309 76 263 q 192 384 131 356 q 358 413 254 413 l 610 413 l 610 339 l 361 339 q 215 301 256 339 q 174 208 174 264 q 222 108 174 146 q 358 71 271 71 q 502 109 442 71 q 590 219 563 147 l 613 151 q 516 36 585 79 q 343 -7 447 -7 m 397 -346 q 323 -326 356 -346 q 272 -275 290 -307 q 253 -204 253 -243 q 272 -132 253 -165 q 324 -78 292 -99 q 397 -58 357 -58 q 472 -78 439 -58 q 524 -132 504 -99 q 543 -204 543 -165 q 524 -275 543 -243 q 472 -326 504 -307 q 397 -346 439 -346 m 397 -297 q 465 -270 439 -297 q 492 -204 492 -243 q 465 -135 492 -164 q 397 -107 439 -107 q 331 -135 357 -107 q 304 -204 304 -162 q 330 -271 304 -244 q 397 -297 356 -297 z "},"ⱥ":{"ha":819,"x_min":76,"x_max":689,"o":"m 594 0 l 594 161 l 590 188 l 590 457 q 538 600 590 550 q 383 650 486 650 q 249 626 313 650 q 140 564 185 603 l 96 638 q 229 710 151 685 q 393 736 307 736 q 612 666 535 736 q 689 453 689 596 l 689 0 l 594 0 m 343 -7 q 201 20 261 -7 q 108 95 140 47 q 76 206 76 143 q 103 309 76 263 q 192 384 131 356 q 358 413 254 413 l 610 413 l 610 339 l 361 339 q 215 301 256 339 q 174 208 174 264 q 222 108 174 146 q 358 71 271 71 q 502 109 442 71 q 590 219 563 147 l 613 151 q 516 36 585 79 q 343 -7 447 -7 m 175 -110 l 561 839 l 632 839 l 246 -110 l 175 -110 z "}}}
